SplineFontDB: 3.0
FontName: Bentham-Regular
FullName: Bentham
FamilyName: Bentham
Weight: Regular
Copyright: Copyright (c) 1999-2010, Ben Weiner (ben@readingtype.org.uk), with Reserved Font Name Bentham.
Version: 002.001
ItalicAngle: 0
UnderlinePosition: -136
UnderlineWidth: 20
Ascent: 768
Descent: 256
sfntRevision: 0x00020000
LayerCount: 2
Layer: 0 1 "Back"  1
Layer: 1 1 "Fore"  0
XUID: [1021 496 529952750 10710796]
FSType: 0
OS2Version: 1
OS2_WeightWidthSlopeOnly: 0
OS2_UseTypoMetrics: 1
CreationTime: 1194201199
ModificationTime: 1290843536
PfmFamily: 17
TTFWeight: 400
TTFWidth: 5
LineGap: 92
VLineGap: 0
Panose: 2 0 5 3 0 0 0 0 0 0
OS2TypoAscent: 0
OS2TypoAOffset: 1
OS2TypoDescent: 0
OS2TypoDOffset: 1
OS2TypoLinegap: 92
OS2WinAscent: 1
OS2WinAOffset: 1
OS2WinDescent: 0
OS2WinDOffset: 1
HheadAscent: 1
HheadAOffset: 1
HheadDescent: 0
HheadDOffset: 1
OS2SubXSize: 666
OS2SubYSize: 717
OS2SubXOff: 0
OS2SubYOff: 143
OS2SupXSize: 666
OS2SupYSize: 717
OS2SupXOff: 0
OS2SupYOff: 492
OS2StrikeYSize: 50
OS2StrikeYPos: 264
OS2Vendor: 'PfEd'
OS2CodePages: 00000001.00000000
OS2UnicodeRanges: 800000a7.40000040.00000000.00000000
Lookup: 4 0 1 "'liga' Standard Ligatures lookup 0"  {"'liga' Standard Ligatures lookup 0 subtable"  } ['liga' ('grek' <'dflt' > 'latn' <'dflt' > ) ]
MarkAttachClasses: 1
DEI: 91125
TtTable: prep
PUSHW_1
 511
SCANCTRL
PUSHB_1
 1
SCANTYPE
SVTCA[y-axis]
MPPEM
PUSHB_1
 8
LT
IF
PUSHB_2
 1
 1
INSTCTRL
EIF
PUSHB_2
 70
 6
CALL
IF
POP
PUSHB_1
 16
EIF
MPPEM
PUSHB_1
 20
GT
IF
POP
PUSHB_1
 128
EIF
SCVTCI
PUSHB_1
 6
CALL
NOT
IF
EIF
PUSHB_1
 20
CALL
EndTTInstrs
TtTable: fpgm
PUSHB_1
 0
FDEF
PUSHB_1
 0
SZP0
MPPEM
PUSHB_1
 42
LT
IF
PUSHB_1
 74
SROUND
EIF
PUSHB_1
 0
SWAP
MIAP[rnd]
RTG
PUSHB_1
 6
CALL
IF
RTDG
EIF
MPPEM
PUSHB_1
 42
LT
IF
RDTG
EIF
DUP
MDRP[rp0,rnd,grey]
PUSHB_1
 1
SZP0
MDAP[no-rnd]
RTG
ENDF
PUSHB_1
 1
FDEF
DUP
MDRP[rp0,min,white]
PUSHB_1
 12
CALL
ENDF
PUSHB_1
 2
FDEF
MPPEM
GT
IF
RCVT
SWAP
EIF
POP
ENDF
PUSHB_1
 3
FDEF
ROUND[Black]
RTG
DUP
PUSHB_1
 64
LT
IF

StartChar: .notdef
Encoding: 65536 -1 0
Width: 372
Flags: W
HStem: 0 34<68 271> 648 34<68 271>
VStem: 34 34<34 648> 271 34<34 648>
LayerCount: 2
Fore
SplineSet
34 0 m 1,0,-1
 34 682 l 1,1,-1
 305 682 l 1,2,-1
 305 0 l 1,3,-1
 34 0 l 1,0,-1
68 34 m 1,4,-1
 271 34 l 1,5,-1
 271 648 l 1,6,-1
 68 648 l 1,7,-1
 68 34 l 1,4,-1
EndSplineSet
EndChar

StartChar: exclam
Encoding: 33 33 5
Width: 425
GlyphClass: 2
Flags: W
HStem: -12 124<164.565 250.467>
VStem: 146 122<6.56445 93.9508> 190 37<197 302.93>
LayerCount: 2
Fore
SplineSet
190 197 m 1,0,1
 159 569 159 569 160 569 c 0,2,3
 160 598 160 598 227 598 c 0,4,5
 259 598 259 598 271 591 c 128,-1,6
 283 584 283 584 283 570 c 0,7,8
 283 528 283 528 227 198 c 0,9,10
 227 197 l 1,11,-1
 190 197 l 1,0,1
207 112 m 0,12,13
 236 112 236 112 252 94.5 c 128,-1,14
 268 77 268 77 268 50 c 0,15,16
 268 24 268 24 251 6 c 128,-1,17
 234 -12 234 -12 210 -12 c 0,18,19
 182 -12 182 -12 164 2 c 128,-1,20
 146 16 146 16 146 48 c 0,21,22
 147 112 147 112 207 112 c 0,12,13
EndSplineSet
EndChar

StartChar: quotedbl
Encoding: 34 34 6
Width: 223
GlyphClass: 2
Flags: W
HStem: 440 205
VStem: 13 73<491.056 632.624> 47 13<438.125 463.141> 136 73<489.095 632.624> 170 12<438.553 460.677>
LayerCount: 2
Fore
SplineSet
52 645 m 0,0,1
 68 645 68 645 77 633 c 128,-1,2
 86 621 86 621 86 605 c 0,3,4
 86 534 86 534 60 440 c 1,5,6
 51 436 51 436 47 440 c 1,7,-1
 31 508 l 2,8,9
 14 576 14 576 13 602 c 0,10,11
 13 645 13 645 52 645 c 0,0,1
175 645 m 0,12,13
 191 645 191 645 200 633 c 128,-1,14
 209 621 209 621 209 605 c 0,15,16
 209 536 209 536 182 440 c 1,17,18
 176 437 176 437 170 440 c 1,19,-1
 154 508 l 2,20,21
 137 576 137 576 136 602 c 0,22,23
 136 645 136 645 175 645 c 0,12,13
EndSplineSet
EndChar

StartChar: numbersign
Encoding: 35 35 7
Width: 512
GlyphClass: 2
Flags: W
HStem: 326 306 615 20G<286 327>
VStem: 163 41<326 396 420 529 553 623> 286 41<335 404 428 538 561 632>
LayerCount: 2
Fore
SplineSet
286 538 m 1,0,-1
 204 532 l 1,1,-1
 204 420 l 1,2,-1
 286 425 l 1,3,-1
 286 538 l 1,0,-1
89 544 m 1,4,-1
 163 550 l 1,5,-1
 163 623 l 1,6,-1
 204 626 l 1,7,-1
 204 553 l 1,8,-1
 286 558 l 1,9,-1
 286 632 l 1,10,-1
 327 635 l 1,11,-1
 327 561 l 1,12,-1
 400 567 l 1,13,-1
 400 547 l 1,14,-1
 327 541 l 1,15,-1
 327 428 l 1,16,-1
 400 434 l 1,17,-1
 400 414 l 1,18,-1
 327 408 l 1,19,-1
 327 335 l 1,20,-1
 286 332 l 1,21,-1
 286 404 l 1,22,-1
 204 399 l 1,23,-1
 204 326 l 1,24,-1
 163 323 l 1,25,-1
 163 396 l 1,26,-1
 89 390 l 1,27,-1
 89 411 l 1,28,-1
 163 417 l 1,29,-1
 163 529 l 1,30,-1
 89 523 l 1,31,-1
 89 544 l 1,4,-1
EndSplineSet
EndChar

StartChar: dollar
Encoding: 36 36 8
Width: 587
GlyphClass: 2
Flags: W
HStem: -103 26<217.279 279> -16 112<148.507 226.314> 237 105<367.471 439.404> 417 22<328 375.155>
VStem: 115 125<11.502 77.9496> 148 70<258.138 370.647> 278 50<-180 -100.155 -72 114 226 409 435.627 539> 397 78<-28.7245 80.5> 440 31<319 368.748>
LayerCount: 2
Fore
SplineSet
471 314 m 0,0,1
 471 287 471 287 450 262 c 128,-1,2
 429 237 429 237 407 237 c 0,3,4
 382 237 382 237 367 252 c 128,-1,5
 352 267 352 267 352 295 c 0,6,7
 352 318 352 318 366.5 330 c 128,-1,8
 381 342 381 342 393 342 c 0,9,10
 421 342 421 342 440 319 c 1,11,12
 440 366 440 366 406 390 c 128,-1,13
 372 414 372 414 328 417 c 1,14,-1
 328 203 l 1,15,16
 475 147 475 147 475 59 c 0,17,18
 475 31 475 31 468 6.5 c 128,-1,19
 461 -18 461 -18 444.5 -41.5 c 128,-1,20
 428 -65 428 -65 398 -80.5 c 128,-1,21
 368 -96 368 -96 328 -101 c 1,22,-1
 328 -180 l 1,23,-1
 280 -180 l 1,24,-1
 280 -103 l 1,25,26
 253 -101 253 -101 227 -93.5 c 128,-1,27
 201 -86 201 -86 174 -71.5 c 128,-1,28
 147 -57 147 -57 131 -31 c 128,-1,29
 115 -5 115 -5 115 29 c 0,30,31
 115 61 115 61 136 78.5 c 128,-1,32
 157 96 157 96 178 96 c 0,33,34
 202 96 202 96 221 79 c 128,-1,35
 240 62 240 62 240 41 c 0,36,37
 240 16 240 16 227.5 0 c 128,-1,38
 215 -16 215 -16 196 -16 c 0,39,40
 163 -16 163 -16 145 11 c 1,41,42
 153 -31 153 -31 193 -53 c 128,-1,43
 233 -75 233 -75 279 -77 c 1,44,-1
 278 137 l 1,45,46
 226 161 226 161 187 202 c 128,-1,47
 148 243 148 243 148 283 c 0,48,49
 148 344 148 344 180.5 385.5 c 128,-1,50
 213 427 213 427 276 437 c 1,51,-1
 275 539 l 1,52,-1
 328 539 l 1,53,-1
 328 439 l 1,54,55
 350 437 350 437 373 429 c 128,-1,56
 396 421 396 421 418.5 406.5 c 128,-1,57
 441 392 441 392 456 368 c 128,-1,58
 471 344 471 344 471 314 c 0,0,1
278 226 m 1,59,-1
 276 409 l 1,60,61
 249 398 249 398 233.5 373 c 128,-1,62
 218 348 218 348 218 314 c 0,63,64
 219 263 219 263 278 226 c 1,59,-1
328 114 m 1,65,-1
 328 -72 l 1,66,67
 366 -61 366 -61 381.5 -31.5 c 128,-1,68
 397 -2 397 -2 397 32 c 0,69,70
 398 78 398 78 328 114 c 1,65,-1
EndSplineSet
EndChar

StartChar: percent
Encoding: 37 37 9
Width: 512
GlyphClass: 2
Flags: W
HStem: -41 12<359.161 410.154> 174 10<362.505 410.508> 233 12<100.161 151.817> 447 11<102.392 152.994>
VStem: 8 50<278.441 411.377> 194 49<278.3 413.016> 267 50<4.33154 137.734> 453 49<4.95581 139.864>
LayerCount: 2
Fore
SplineSet
8 340 m 0,0,1
 8 394 8 394 43.5 426 c 128,-1,2
 79 458 79 458 127 458 c 0,3,4
 172 458 172 458 207.5 427.5 c 128,-1,5
 243 397 243 397 243 340 c 0,6,7
 243 295 243 295 207 264 c 128,-1,8
 171 233 171 233 126 233 c 128,-1,9
 81 233 81 233 44.5 264 c 128,-1,10
 8 295 8 295 8 340 c 0,0,1
127 447 m 0,11,12
 95 447 95 447 76.5 417.5 c 128,-1,13
 58 388 58 388 58 340 c 0,14,15
 58 297 58 297 77 271 c 128,-1,16
 96 245 96 245 126 245 c 128,-1,17
 156 245 156 245 175 271.5 c 128,-1,18
 194 298 194 298 194 340 c 0,19,20
 194 447 194 447 127 447 c 0,11,12
267 67 m 0,21,22
 267 121 267 121 302.5 152.5 c 128,-1,23
 338 184 338 184 386 184 c 0,24,25
 431 184 431 184 466.5 154 c 128,-1,26
 502 124 502 124 502 67 c 0,27,28
 502 22 502 22 466 -9.5 c 128,-1,29
 430 -41 430 -41 385 -41 c 128,-1,30
 340 -41 340 -41 303.5 -10 c 128,-1,31
 267 21 267 21 267 67 c 0,21,22
386 174 m 0,32,33
 354 174 354 174 335.5 144.5 c 128,-1,34
 317 115 317 115 317 67 c 0,35,36
 317 24 317 24 336 -2.5 c 128,-1,37
 355 -29 355 -29 385 -29 c 128,-1,38
 415 -29 415 -29 434 -2 c 128,-1,39
 453 25 453 25 453 67 c 0,40,41
 453 174 453 174 386 174 c 0,32,33
432 485 m 1,42,-1
 464 463 l 1,43,-1
 69 -90 l 1,44,-1
 37 -68 l 1,45,-1
 432 485 l 1,42,-1
EndSplineSet
EndChar

StartChar: ampersand
Encoding: 38 38 10
Width: 627
GlyphClass: 2
Flags: W
HStem: -11 42<190.393 319.929 500.627 584.682> 307 16<388 423.93 527.182 579> 602 23<209.048 285.958>
VStem: 28 78<119.147 248.094> 105 64<431.547 568.388> 324 64<446.007 575.913> 457 41<174.817 289.454> 595 20<48.5669 99>
LayerCount: 2
Fore
SplineSet
229 381 m 1,0,1
 288 412 288 412 306 431.5 c 128,-1,2
 324 451 324 451 324 503 c 0,3,4
 324 549 324 549 303 575.5 c 128,-1,5
 282 602 282 602 245 602 c 0,6,7
 211 602 211 602 190 570.5 c 128,-1,8
 169 539 169 539 169 495 c 0,9,10
 169 450 169 450 229 381 c 1,0,1
437 24 m 1,11,-1
 398 67 l 1,12,13
 322 -11 322 -11 227 -11 c 0,14,15
 106 -11 106 -11 62 51 c 0,16,17
 53 64 53 64 45.5 74 c 128,-1,18
 38 84 38 84 33 104.5 c 128,-1,19
 28 125 28 125 28 156 c 0,20,21
 28 157 l 2,22,23
 28 212 28 212 49.5 247 c 128,-1,24
 71 282 71 282 118 318 c 1,25,26
 138 332 138 332 165 348 c 1,27,28
 141 375 141 375 123 415.5 c 128,-1,29
 105 456 105 456 105 494 c 0,30,31
 105 557 105 557 150 591 c 128,-1,32
 195 625 195 625 243 625 c 0,33,34
 309 625 309 625 348.5 598 c 128,-1,35
 388 571 388 571 388 515 c 0,36,37
 388 468 388 468 355.5 434 c 128,-1,38
 323 400 323 400 249 356 c 1,39,40
 314 268 314 268 425 137 c 1,41,42
 444 162 444 162 450.5 185 c 128,-1,43
 457 208 457 208 457 245 c 0,44,45
 457 263 457 263 444 281 c 0,46,47
 425 308 425 308 388 307 c 1,48,-1
 385 323 l 1,49,-1
 580 323 l 1,50,-1
 579 304 l 1,51,52
 527 304 527 304 515 293 c 0,53,54
 498 276 498 276 498 243 c 0,55,56
 498 214 498 214 478.5 176 c 128,-1,57
 459 138 459 138 443 119 c 1,58,-1
 468 88 l 1,59,60
 472 81 472 81 481 71 c 128,-1,61
 490 61 490 61 499 52 c 128,-1,62
 508 43 508 43 520 36.5 c 128,-1,63
 532 30 532 30 544 30 c 0,64,65
 575 30 575 30 585 48 c 128,-1,66
 595 66 595 66 595 102 c 1,67,-1
 615 99 l 1,68,69
 615 -11 615 -11 534 -10 c 0,70,71
 466 -10 466 -10 437 24 c 1,11,-1
260 31 m 0,72,73
 299 31 299 31 323 41.5 c 128,-1,74
 347 52 347 52 381 83 c 1,75,76
 330 146 330 146 258.5 233.5 c 128,-1,77
 187 321 187 321 186 321 c 0,78,79
 154 306 154 306 135.5 280 c 128,-1,80
 117 254 117 254 111.5 234 c 128,-1,81
 106 214 106 214 106 195 c 0,82,83
 106 149 106 149 141 99 c 0,84,85
 190 31 190 31 260 31 c 0,72,73
EndSplineSet
EndChar

StartChar: quotesingle
Encoding: 39 39 11
Width: 204
GlyphClass: 2
Flags: W
HStem: 438 207<83.0007 111.967>
VStem: 72 61<443.757 643.594> 78 5<440 441>
LayerCount: 2
Fore
SplineSet
105 645 m 0,0,1
 133 645 133 645 133 605 c 0,2,3
 133 574 133 574 126 520.5 c 128,-1,4
 119 467 119 467 112 443 c 0,5,6
 111 438 111 438 103 438 c 0,7,8
 100 438 100 438 96 438 c 128,-1,9
 92 438 92 438 90 438 c 0,10,11
 89 438 89 438 86 439.5 c 128,-1,12
 83 441 83 441 83 440 c 2,13,-1
 78 508 l 2,14,15
 72 577 72 577 72 603 c 0,16,17
 71 645 71 645 105 645 c 0,0,1
EndSplineSet
EndChar

StartChar: parenleft
Encoding: 40 40 12
Width: 304
GlyphClass: 2
Flags: W
VStem: 50 88<105.594 391.777>
LayerCount: 2
Fore
SplineSet
318 733 m 1,0,-1
 345 701 l 1,1,2
 333 689 333 689 293.5 655 c 128,-1,3
 254 621 254 621 226.5 590.5 c 128,-1,4
 199 560 199 560 181 525 c 0,5,6
 155 476 155 476 146.5 427 c 128,-1,7
 138 378 138 378 138 290 c 0,8,9
 138 88 138 88 170 8 c 0,10,11
 194 -50 194 -50 234.5 -98 c 128,-1,12
 275 -146 275 -146 310 -173 c 1,13,-1
 282 -211 l 1,14,15
 205 -159 205 -159 127.5 -24 c 128,-1,16
 50 111 50 111 50 260 c 0,17,18
 50 325 50 325 72 391 c 128,-1,19
 94 457 94 457 120.5 503 c 128,-1,20
 147 549 147 549 191.5 601.5 c 128,-1,21
 236 654 236 654 258.5 676.5 c 128,-1,22
 281 699 281 699 318 733 c 1,0,-1
EndSplineSet
EndChar

StartChar: parenright
Encoding: 41 41 13
Width: 304
GlyphClass: 2
Flags: W
VStem: 166 88<105.027 391.777>
LayerCount: 2
Fore
SplineSet
-14 733 m 1,0,1
 23 699 23 699 46 676.5 c 128,-1,2
 69 654 69 654 113 601.5 c 128,-1,3
 157 549 157 549 183.5 503 c 128,-1,4
 210 457 210 457 232 391 c 128,-1,5
 254 325 254 325 254 260 c 0,6,7
 254 110 254 110 176.5 -24.5 c 128,-1,8
 99 -159 99 -159 23 -211 c 1,9,-1
 -6 -173 l 1,10,11
 29 -146 29 -146 70 -98 c 128,-1,12
 111 -50 111 -50 134 8 c 0,13,14
 166 87 166 87 166 290 c 0,15,16
 166 378 166 378 157 427 c 128,-1,17
 148 476 148 476 123 525 c 0,18,19
 106 560 106 560 78 590.5 c 128,-1,20
 50 621 50 621 10.5 655 c 128,-1,21
 -29 689 -29 689 -41 701 c 1,22,-1
 -14 733 l 1,0,1
EndSplineSet
EndChar

StartChar: asterisk
Encoding: 42 42 14
Width: 569
GlyphClass: 2
Flags: W
HStem: 239 69<356.781 422.555> 392 70<84.25 161.838> 400 70<349.975 427.555>
VStem: 218 73<167.894 300.562 404.875 540.981>
LayerCount: 2
Fore
SplineSet
247 548 m 0,0,1
 263 548 263 548 273.5 536.5 c 128,-1,2
 284 525 284 525 284 511 c 0,3,4
 284 453 284 453 257 361 c 1,5,-1
 233 422 l 2,6,7
 210 481 210 481 211 508 c 0,8,9
 211 525 211 525 217 534.5 c 128,-1,10
 223 544 223 544 230 546 c 128,-1,11
 237 548 237 548 247 548 c 0,0,1
254 165 m 0,12,13
 244 165 244 165 237 167 c 128,-1,14
 230 169 230 169 224 178 c 128,-1,15
 218 187 218 187 218 205 c 0,16,17
 218 232 218 232 238 293 c 2,18,-1
 257 354 l 1,19,20
 258 349 258 349 268 318 c 128,-1,21
 278 287 278 287 284.5 256 c 128,-1,22
 291 225 291 225 291 202 c 0,23,24
 291 188 291 188 280.5 176.5 c 128,-1,25
 270 165 270 165 254 165 c 0,12,13
86 443 m 0,26,27
 97 461 97 461 118 462 c 0,28,29
 128 462 128 462 136 457 c 0,30,31
 193 424 193 424 254 359 c 1,32,-1
 190 369 l 2,33,34
 125 379 125 379 102 392 c 256,35,36
 78 405 78 405 79 423 c 0,37,38
 79 431 79 431 86 443 c 0,26,27
421 258 m 0,39,40
 410 239 410 239 394 239 c 0,41,42
 383 239 383 239 369 247 c 0,43,44
 346 260 346 260 303 308 c 2,45,-1
 259 356 l 1,46,47
 273 354 273 354 326 339.5 c 128,-1,48
 379 325 379 325 408 308 c 0,49,50
 426 298 426 298 426 276 c 0,51,52
 426 267 426 267 421 258 c 0,39,40
97 254 m 0,53,54
 92 263 92 263 92 272 c 0,55,56
 92 294 92 294 111 304 c 0,57,58
 161 333 161 333 254 356 c 1,59,-1
 236 333 l 2,60,61
 219 309 219 309 192.5 280.5 c 128,-1,62
 166 252 166 252 150 243 c 0,63,64
 136 235 136 235 124 234 c 0,65,66
 108 235 108 235 97 254 c 0,53,54
425 452 m 0,67,68
 432 441 432 441 432 431 c 0,69,70
 432 414 432 414 409 400 c 256,71,72
 385 387 385 387 323 373 c 2,73,-1
 260 359 l 1,74,75
 264 362 264 362 286.5 387 c 128,-1,76
 309 412 309 412 331.5 432.5 c 128,-1,77
 354 453 354 453 375 465 c 0,78,79
 384 470 384 470 394 470 c 0,80,81
 415 470 415 470 425 452 c 0,67,68
EndSplineSet
EndChar

StartChar: plus
Encoding: 43 43 15
Width: 512
GlyphClass: 2
Flags: W
HStem: 206 61<46 229 292 475>
VStem: 229 62<23 206 267 452>
LayerCount: 2
Fore
SplineSet
230 23 m 1,0,-1
 230 206 l 1,1,-1
 46 206 l 1,2,-1
 46 267 l 1,3,-1
 229 267 l 1,4,-1
 229 452 l 1,5,-1
 291 452 l 1,6,-1
 291 267 l 1,7,-1
 475 267 l 1,8,-1
 475 206 l 1,9,-1
 292 206 l 1,10,-1
 292 23 l 1,11,-1
 230 23 l 1,0,-1
EndSplineSet
EndChar

StartChar: comma
Encoding: 44 44 16
Width: 254
GlyphClass: 2
Flags: W
HStem: -108 16<90.312 100.449> -9 135<81.1725 159.251>
VStem: 160 37<-27.6045 5>
LayerCount: 2
Fore
SplineSet
117 -9 m 0,0,1
 94 -9 94 -9 76.5 11.5 c 128,-1,2
 59 32 59 32 59 56 c 0,3,4
 59 89 59 89 80.5 107.5 c 128,-1,5
 102 126 102 126 126 126 c 0,6,7
 151 126 151 126 174 104 c 128,-1,8
 197 82 197 82 197 46 c 0,9,10
 197 -7 197 -7 162 -55 c 128,-1,11
 127 -103 127 -103 93 -108 c 1,12,-1
 87 -92 l 1,13,14
 112 -81 112 -81 135.5 -50 c 128,-1,15
 159 -19 159 -19 160 5 c 1,16,17
 136 -9 136 -9 117 -9 c 0,0,1
EndSplineSet
EndChar

StartChar: hyphen
Encoding: 45 45 17
Width: 472
GlyphClass: 2
Flags: W
HStem: 266 67<82 412>
LayerCount: 2
Fore
SplineSet
82 333 m 1,0,-1
 417 333 l 1,1,-1
 412 264 l 1,2,-1
 74 266 l 1,3,-1
 82 333 l 1,0,-1
EndSplineSet
EndChar

StartChar: period
Encoding: 46 46 18
Width: 253
GlyphClass: 2
Flags: W
HStem: -4 135<82.657 173.827>
VStem: 61 135<15.1971 112.95>
LayerCount: 2
Fore
SplineSet
127 131 m 0,0,1
 153 131 153 131 174.5 114.5 c 128,-1,2
 196 98 196 98 196 65 c 0,3,4
 196 29 196 29 176.5 12.5 c 128,-1,5
 157 -4 157 -4 127 -4 c 0,6,7
 102 -4 102 -4 81.5 17 c 128,-1,8
 61 38 61 38 61 65 c 0,9,10
 61 96 61 96 82 113.5 c 128,-1,11
 103 131 103 131 127 131 c 0,0,1
EndSplineSet
EndChar

StartChar: slash
Encoding: 47 47 19
Width: 309
GlyphClass: 2
Flags: W
VStem: 13 283
LayerCount: 2
Fore
SplineSet
243 726 m 1,0,-1
 296 712 l 1,1,-1
 67 -145 l 1,2,-1
 13 -131 l 1,3,-1
 243 726 l 1,0,-1
EndSplineSet
EndChar

StartChar: zero
Encoding: 48 48 20
Width: 512
GlyphClass: 2
Flags: W
HStem: -16 22<198.635 296.12> 409 21<203.647 301.279>
VStem: 14 99<106.563 303.589> 382 96<105.684 305.773>
LayerCount: 2
Fore
SplineSet
14 197 m 0,0,1
 14 305 14 305 84 367.5 c 128,-1,2
 154 430 154 430 250 430 c 0,3,4
 339 430 339 430 408.5 370 c 128,-1,5
 478 310 478 310 478 197 c 0,6,7
 478 108 478 108 407.5 46 c 128,-1,8
 337 -16 337 -16 247 -16 c 0,9,10
 159 -16 159 -16 86.5 45 c 128,-1,11
 14 106 14 106 14 197 c 0,0,1
250 409 m 0,12,13
 188 409 188 409 150.5 350 c 128,-1,14
 113 291 113 291 113 197 c 0,15,16
 113 111 113 111 151 58.5 c 128,-1,17
 189 6 189 6 247 6 c 0,18,19
 306 6 306 6 344 59.5 c 128,-1,20
 382 113 382 113 382 197 c 0,21,22
 382 409 382 409 250 409 c 0,12,13
EndSplineSet
EndChar

StartChar: one
Encoding: 49 49 21
Width: 512
GlyphClass: 2
Flags: W
HStem: -2 21G<108.778 142> 5 24<336.417 476> 319 37<96.4502 114.491>
VStem: 244 92<36 369>
LayerCount: 2
Fore
SplineSet
108 25 m 1,0,1
 244 36 l 1,2,-1
 244 369 l 1,3,-1
 98 319 l 1,4,-1
 90 356 l 1,5,-1
 336 428 l 1,6,-1
 336 36 l 1,7,8
 349 31 349 31 406 29 c 128,-1,9
 463 27 463 27 476 25 c 1,10,-1
 476 1 l 1,11,12
 416 5 416 5 315 5 c 0,13,14
 173 5 173 5 111 -2 c 1,15,-1
 108 25 l 1,0,1
EndSplineSet
EndChar

StartChar: two
Encoding: 50 50 22
Width: 512
GlyphClass: 2
Flags: W
HStem: 0 65<174 417.687> 404 22<188.126 283.264>
VStem: 65 125<238.336 314.044> 336 106<210.334 346.583>
LayerCount: 2
Fore
SplineSet
237 426 m 0,0,1
 287 426 287 426 333.5 409 c 128,-1,2
 380 392 380 392 411 357.5 c 128,-1,3
 442 323 442 323 442 279 c 256,4,5
 442 235 442 235 416 205.5 c 128,-1,6
 390 176 390 176 319 131 c 0,7,8
 283 108 283 108 229 86 c 1,9,-1
 174 65 l 1,10,11
 206 65 l 0,12,13
 378 65 378 65 419 70 c 1,14,-1
 454 151 l 1,15,-1
 480 151 l 1,16,-1
 431 0 l 1,17,-1
 53 0 l 1,18,-1
 44 34 l 1,19,-1
 225 115 l 2,20,21
 263 132 263 132 299.5 180.5 c 128,-1,22
 336 229 336 229 336 274 c 0,23,24
 336 335 336 335 310 369.5 c 128,-1,25
 284 404 284 404 238 404 c 0,26,27
 201 404 201 404 168.5 382 c 128,-1,28
 136 360 136 360 131 331 c 1,29,30
 157 329 157 329 173.5 314.5 c 128,-1,31
 190 300 190 300 190 272 c 0,32,33
 190 245 190 245 170.5 232 c 128,-1,34
 151 219 151 219 126 219 c 0,35,36
 104 219 104 219 84.5 241 c 128,-1,37
 65 263 65 263 65 298 c 0,38,39
 65 342 65 342 113 384 c 128,-1,40
 161 426 161 426 237 426 c 0,0,1
EndSplineSet
EndChar

StartChar: three
Encoding: 51 51 23
Width: 512
GlyphClass: 2
Flags: W
HStem: -225 26<155.918 277.97> 123 20<228 249.828> 210 122<152.955 201.631> 397 26<196.354 308.303>
VStem: 40 23<-102.992 -69.1301> 90 128<234.236 314.719> 368 102<-99.3083 53.5398> 369 80<225.435 347.436>
LayerCount: 2
Fore
SplineSet
228 123 m 1,0,-1
 222 143 l 1,1,2
 274 161 274 161 283 166 c 0,3,4
 313 180 313 180 341 208.5 c 128,-1,5
 369 237 369 237 369 264 c 0,6,7
 369 322 369 322 338 359.5 c 128,-1,8
 307 397 307 397 254 397 c 0,9,10
 177 397 177 397 152 332 c 1,11,12
 178 330 178 330 198 313.5 c 128,-1,13
 218 297 218 297 218 270 c 0,14,15
 218 210 218 210 160 210 c 0,16,17
 127 210 127 210 108.5 233.5 c 128,-1,18
 90 257 90 257 90 288 c 0,19,20
 90 333 90 333 142 378 c 128,-1,21
 194 423 194 423 262 423 c 0,22,23
 336 423 336 423 392.5 383.5 c 128,-1,24
 449 344 449 344 449 290 c 0,25,26
 449 245 449 245 419.5 217.5 c 128,-1,27
 390 190 390 190 328 160 c 1,28,29
 378 149 378 149 424 106 c 128,-1,30
 470 63 470 63 470 6 c 0,31,32
 470 -102 470 -102 398.5 -163.5 c 128,-1,33
 327 -225 327 -225 215 -225 c 0,34,35
 161 -225 161 -225 106.5 -182.5 c 128,-1,36
 52 -140 52 -140 40 -71 c 1,37,-1
 63 -65 l 1,38,39
 71 -118 71 -118 114 -158.5 c 128,-1,40
 157 -199 157 -199 215 -199 c 0,41,42
 291 -199 291 -199 329.5 -143.5 c 128,-1,43
 368 -88 368 -88 368 -22 c 0,44,45
 368 36 368 36 325.5 79.5 c 128,-1,46
 283 123 283 123 228 123 c 1,0,-1
EndSplineSet
EndChar

StartChar: four
Encoding: 52 52 24
Width: 512
GlyphClass: 2
Flags: W
HStem: -4 26<55 282 364 429>
VStem: 282 82<-189.955 -4 22 307>
LayerCount: 2
Fore
SplineSet
364 -4 m 1,0,1
 365 -190 l 1,2,-1
 281 -190 l 2,3,4
 282 -190 282 -190 282 -4 c 1,5,-1
 41 -4 l 1,6,-1
 9 26 l 1,7,-1
 349 427 l 1,8,-1
 371 410 l 1,9,10
 367 268 l 1,11,12
 364 126 364 126 364 44 c 0,13,14
 364 32 364 32 364 20 c 1,15,-1
 429 20 l 1,16,-1
 457 56 l 2,17,18
 486 92 486 92 495 109 c 1,19,-1
 510 96 l 1,20,21
 505 86 505 86 493.5 65 c 128,-1,22
 482 44 482 44 474 28 c 128,-1,23
 466 12 466 12 461 -5 c 1,24,25
 442 -5 442 -5 418.5 -4.5 c 128,-1,26
 395 -4 395 -4 364 -4 c 1,0,1
284 307 m 1,27,28
 278 299 278 299 177.5 178.5 c 128,-1,29
 77 58 77 58 55 22 c 1,30,-1
 282 22 l 1,31,32
 282 269 282 269 284 307 c 1,27,28
EndSplineSet
EndChar

StartChar: five
Encoding: 53 53 25
Width: 512
GlyphClass: 2
Flags: W
HStem: -221 23<151.034 249.065> 172 31<187.736 288.03> 330 66<180 438>
VStem: 23 114<-111.37 -33.0782> 344 100<-83.9964 111.24>
LayerCount: 2
Fore
SplineSet
440 329 m 1,0,-1
 180 330 l 1,1,2
 115 139 l 1,3,4
 176 202 176 202 265 203 c 0,5,6
 347 203 347 203 395.5 150 c 128,-1,7
 444 97 444 97 444 7 c 0,8,9
 444 -82 444 -82 369 -151.5 c 128,-1,10
 294 -221 294 -221 206 -221 c 0,11,12
 132 -221 132 -221 77.5 -178.5 c 128,-1,13
 23 -136 23 -136 23 -90 c 0,14,15
 23 -14 23 -14 86 -14 c 0,16,17
 112 -14 112 -14 124.5 -32.5 c 128,-1,18
 137 -51 137 -51 137 -70 c 0,19,20
 137 -93 137 -93 120 -107.5 c 128,-1,21
 103 -122 103 -122 83 -124 c 1,22,23
 87 -154 87 -154 128 -176 c 128,-1,24
 169 -198 169 -198 208 -198 c 0,25,26
 258 -198 258 -198 301 -135.5 c 128,-1,27
 344 -73 344 -73 344 -3 c 0,28,29
 344 70 344 70 317.5 121 c 128,-1,30
 291 172 291 172 241 172 c 0,31,32
 148 172 148 172 105 90 c 1,33,34
 99 90 99 90 86 98 c 2,35,-1
 74 106 l 1,36,-1
 171 396 l 1,37,-1
 438 397 l 1,38,-1
 466 459 l 1,39,-1
 492 459 l 1,40,-1
 440 329 l 1,0,-1
EndSplineSet
EndChar

StartChar: six
Encoding: 54 54 26
Width: 512
GlyphClass: 2
Flags: W
HStem: -23 19<218.896 305.554> 316 38<212.758 332.507> 559 19<318.83 441.199>
VStem: 33 98<102.97 289.493> 377 101<75.2498 254.32>
LayerCount: 2
Fore
SplineSet
135 262 m 1,0,1
 172 307 172 307 204 330 c 128,-1,2
 236 353 236 353 282 354 c 0,3,4
 284 354 284 354 286 354 c 0,5,6
 332 354 332 354 374.5 333.5 c 128,-1,7
 417 313 417 313 447.5 267.5 c 128,-1,8
 478 222 478 222 478 161 c 0,9,10
 478 80 478 80 416.5 28.5 c 128,-1,11
 355 -23 355 -23 260 -23 c 0,12,13
 221 -23 221 -23 184 -11 c 128,-1,14
 147 1 147 1 112 26.5 c 128,-1,15
 77 52 77 52 55 103.5 c 128,-1,16
 33 155 33 155 33 225 c 0,17,18
 33 262 33 262 47.5 307.5 c 128,-1,19
 62 353 62 353 93.5 401 c 128,-1,20
 125 449 125 449 166.5 488 c 128,-1,21
 208 527 208 527 268.5 552.5 c 128,-1,22
 329 578 329 578 395 578 c 0,23,24
 427 578 427 578 469 564 c 128,-1,25
 511 550 511 550 529 532 c 1,26,-1
 516 514 l 1,27,28
 491 534 491 534 452 546.5 c 128,-1,29
 413 559 413 559 377 559 c 0,30,31
 336 559 336 559 297 541 c 128,-1,32
 258 523 258 523 223 489 c 128,-1,33
 188 455 188 455 164.5 396 c 128,-1,34
 141 337 141 337 135 262 c 1,0,1
266 316 m 0,35,36
 200 316 200 316 166 271 c 128,-1,37
 132 226 132 226 131 154 c 0,38,39
 131 92 131 92 169.5 44 c 128,-1,40
 208 -4 208 -4 265 -4 c 0,41,42
 316 -4 316 -4 346.5 43.5 c 128,-1,43
 377 91 377 91 377 160 c 0,44,45
 377 251 377 251 348.5 283.5 c 128,-1,46
 320 316 320 316 266 316 c 0,35,36
EndSplineSet
EndChar

StartChar: seven
Encoding: 55 55 27
Width: 512
GlyphClass: 2
Flags: W
HStem: 325 81<103 392> 416 20G<453 494>
VStem: 68 20<230.133 274.698>
LayerCount: 2
Fore
SplineSet
444 406 m 1,0,-1
 471 436 l 1,1,-1
 494 436 l 1,2,-1
 122 -227 l 1,3,-1
 82 -209 l 1,4,-1
 392 325 l 1,5,6
 238 329 238 329 103 329 c 1,7,-1
 88 225 l 1,8,-1
 68 233 l 1,9,-1
 78 409 l 1,10,-1
 444 406 l 1,0,-1
EndSplineSet
EndChar

StartChar: eight
Encoding: 56 56 28
Width: 512
GlyphClass: 2
Flags: W
HStem: -18 20<201.125 300.769> 567 15<221.338 292.156>
VStem: 35 85<72.0215 228.269> 85 76<382.683 517.531> 353 74<381.856 520.94> 379 88<65.707 222.895>
LayerCount: 2
Fore
SplineSet
467 160 m 0,0,1
 467 -18 467 -18 248 -18 c 0,2,3
 157 -18 157 -18 96 25.5 c 128,-1,4
 35 69 35 69 35 158 c 0,5,6
 35 224 35 224 98 266.5 c 128,-1,7
 161 309 161 309 217 315 c 1,8,9
 171 324 171 324 128 360.5 c 128,-1,10
 85 397 85 397 85 451 c 0,11,12
 85 496 85 496 115.5 527 c 128,-1,13
 146 558 146 558 183.5 570 c 128,-1,14
 221 582 221 582 260 582 c 0,15,16
 300 582 300 582 336 570.5 c 128,-1,17
 372 559 372 559 399.5 528 c 128,-1,18
 427 497 427 497 427 451 c 0,19,20
 427 394 427 394 382 358.5 c 128,-1,21
 337 323 337 323 287 317 c 1,22,23
 320 311 320 311 359 292.5 c 128,-1,24
 398 274 398 274 432.5 238 c 128,-1,25
 467 202 467 202 467 160 c 0,0,1
353 449 m 0,26,27
 353 499 353 499 325.5 533 c 128,-1,28
 298 567 298 567 257 567 c 0,29,30
 217 567 217 567 190 535.5 c 128,-1,31
 163 504 163 504 161 455 c 0,32,33
 161 449 161 449 161 443 c 0,34,35
 161 341 161 341 252 322 c 1,36,37
 304 332 304 332 328.5 366.5 c 128,-1,38
 353 401 353 401 353 449 c 0,26,27
379 164 m 0,39,40
 379 234 379 234 344.5 265 c 128,-1,41
 310 296 310 296 253 307 c 1,42,43
 226 303 226 303 208.5 297.5 c 128,-1,44
 191 292 191 292 167.5 277.5 c 128,-1,45
 144 263 144 263 132 234 c 128,-1,46
 120 205 120 205 120 163 c 0,47,48
 120 103 120 103 154 52.5 c 128,-1,49
 188 2 188 2 248 2 c 0,50,51
 379 2 379 2 379 164 c 0,39,40
EndSplineSet
EndChar

StartChar: nine
Encoding: 57 57 29
Width: 512
GlyphClass: 2
Flags: W
HStem: -238 33<83.3566 235.623> 28 21<186.797 273.954> 403 23<189.503 295.123>
VStem: 31 96<120.263 316.609> 366 104<110.624 293.619>
LayerCount: 2
Fore
SplineSet
366 193 m 0,0,1
 366 230 366 230 365 250.5 c 128,-1,2
 364 271 364 271 357 304.5 c 128,-1,3
 350 338 350 338 338 356.5 c 128,-1,4
 326 375 326 375 300.5 389 c 128,-1,5
 275 403 275 403 240 403 c 0,6,7
 182 403 182 403 154.5 358 c 128,-1,8
 127 313 127 313 127 209 c 0,9,10
 127 132 127 132 154 90.5 c 128,-1,11
 181 49 181 49 229 49 c 0,12,13
 283 49 283 49 324.5 88 c 128,-1,14
 366 127 366 127 366 193 c 0,0,1
223 28 m 0,15,16
 150 28 150 28 90.5 77 c 128,-1,17
 31 126 31 126 31 210 c 0,18,19
 31 308 31 308 88.5 367 c 128,-1,20
 146 426 146 426 244 426 c 0,21,22
 282 426 282 426 319 413 c 128,-1,23
 356 400 356 400 391.5 372 c 128,-1,24
 427 344 427 344 448.5 292 c 128,-1,25
 470 240 470 240 470 169 c 0,26,27
 470 -4 470 -4 378 -121 c 128,-1,28
 286 -238 286 -238 130 -238 c 0,29,30
 84 -238 84 -238 34.5 -203.5 c 128,-1,31
 -15 -169 -15 -169 -41 -127 c 1,32,-1
 -17 -100 l 1,33,34
 7 -141 7 -141 55 -173 c 128,-1,35
 103 -205 103 -205 152 -205 c 0,36,37
 205 -205 205 -205 245 -185 c 128,-1,38
 285 -165 285 -165 308 -137 c 128,-1,39
 331 -109 331 -109 345.5 -63 c 128,-1,40
 360 -17 360 -17 366.5 20.5 c 128,-1,41
 373 58 373 58 377 111 c 1,42,43
 355 79 355 79 307 53.5 c 128,-1,44
 259 28 259 28 223 28 c 0,15,16
EndSplineSet
EndChar

StartChar: colon
Encoding: 58 58 30
Width: 254
GlyphClass: 2
Flags: W
HStem: -12 135<81.1725 174.311> 270 145<81.1725 174.311>
VStem: 59 138<7.08179 103.919 293.721 395.919>
LayerCount: 2
Fore
SplineSet
126 415 m 0,0,1
 153 415 153 415 175 399.5 c 128,-1,2
 197 384 197 384 197 350 c 0,3,4
 197 314 197 314 177.5 292 c 128,-1,5
 158 270 158 270 122 270 c 0,6,7
 92 270 92 270 75.5 293 c 128,-1,8
 59 316 59 316 59 347 c 128,-1,9
 59 378 59 378 80.5 396.5 c 128,-1,10
 102 415 102 415 126 415 c 0,0,1
126 123 m 0,11,12
 153 123 153 123 175 107.5 c 128,-1,13
 197 92 197 92 197 58.5 c 128,-1,14
 197 25 197 25 176.5 6.5 c 128,-1,15
 156 -12 156 -12 122 -12 c 0,16,17
 98 -12 98 -12 78.5 9.5 c 128,-1,18
 59 31 59 31 59 55 c 0,19,20
 59 86 59 86 80.5 104.5 c 128,-1,21
 102 123 102 123 126 123 c 0,11,12
EndSplineSet
EndChar

StartChar: semicolon
Encoding: 59 59 31
Width: 254
GlyphClass: 2
Flags: W
HStem: -6 135<81.1725 159.283> 266 145<72.6405 174.311>
VStem: 59 138<14.8665 107.34 288.69 395.011> 160 37<-20.3015 7>
LayerCount: 2
Fore
SplineSet
122 -6 m 0,0,1
 99 -6 99 -6 79 17 c 128,-1,2
 59 40 59 40 59 61 c 0,3,4
 59 92 59 92 80.5 110.5 c 128,-1,5
 102 129 102 129 126 129 c 0,6,7
 151 129 151 129 174 108 c 128,-1,8
 197 87 197 87 197 52 c 0,9,10
 197 -2 197 -2 164 -43 c 128,-1,11
 131 -84 131 -84 96 -88 c 1,12,13
 96 -87 96 -87 96 -86 c 0,14,15
 96 -82 96 -82 93 -77 c 2,16,-1
 89 -71 l 1,17,18
 114 -66 114 -66 136.5 -41.5 c 128,-1,19
 159 -17 159 -17 160 7 c 1,20,21
 137 -6 137 -6 122 -6 c 0,0,1
126 411 m 0,22,23
 153 411 153 411 175 395.5 c 128,-1,24
 197 380 197 380 197 346 c 0,25,26
 197 309 197 309 178 287.5 c 128,-1,27
 159 266 159 266 122 266 c 0,28,29
 87 266 87 266 70.5 288 c 128,-1,30
 54 310 54 310 54 344 c 0,31,32
 54 375 54 375 77.5 393 c 128,-1,33
 101 411 101 411 126 411 c 0,22,23
EndSplineSet
EndChar

StartChar: less
Encoding: 60 60 32
Width: 510
GlyphClass: 2
Flags: W
HStem: -3 21G<356 386>
VStem: 62 335
LayerCount: 2
Fore
SplineSet
397 446 m 1,0,-1
 397 425 l 1,1,-1
 174 236 l 1,2,-1
 174 218 l 1,3,-1
 386 25 l 1,4,-1
 386 -3 l 1,5,-1
 62 213 l 1,6,-1
 62 246 l 1,7,-1
 397 446 l 1,0,-1
EndSplineSet
EndChar

StartChar: equal
Encoding: 61 61 33
Width: 512
GlyphClass: 2
Flags: W
HStem: 124 61<46 475> 278 61<46 475>
LayerCount: 2
Fore
SplineSet
46 339 m 1,0,-1
 475 339 l 1,1,-1
 475 278 l 1,2,-1
 46 278 l 1,3,-1
 46 339 l 1,0,-1
46 185 m 1,4,-1
 475 185 l 1,5,-1
 475 124 l 1,6,-1
 46 124 l 1,7,-1
 46 185 l 1,4,-1
EndSplineSet
EndChar

StartChar: greater
Encoding: 62 62 34
Width: 510
GlyphClass: 2
Flags: W
HStem: -3 21G<74 105.359>
VStem: 62 335
LayerCount: 2
Fore
SplineSet
62 446 m 1,0,-1
 397 236 l 1,1,-1
 397 203 l 1,2,-1
 74 -3 l 1,3,-1
 74 25 l 1,4,-1
 286 208 l 1,5,-1
 286 225 l 1,6,-1
 62 425 l 1,7,-1
 62 446 l 1,0,-1
EndSplineSet
EndChar

StartChar: question
Encoding: 63 63 35
Width: 512
GlyphClass: 2
Flags: W
HStem: -22 116<228.534 311.466> 166 20<240.935 319.239> 416 21G<112.5 144.5> 627 21<192.69 277.521>
VStem: 62 132<442.298 518.616> 166 54<205.964 303.664> 211 118<-5.49731 78.5283> 342 96<426.821 568.107>
LayerCount: 2
Fore
SplineSet
381 272 m 1,0,-1
 403 258 l 1,1,2
 368 166 368 166 272 166 c 0,3,4
 238 166 238 166 202 193.5 c 128,-1,5
 166 221 166 221 166 256 c 0,6,7
 166 316 166 316 220 349 c 1,8,9
 237 358 237 358 259 373 c 128,-1,10
 281 388 281 388 299 403.5 c 128,-1,11
 317 419 317 419 329.5 442.5 c 128,-1,12
 342 466 342 466 342 494 c 0,13,14
 342 554 342 554 311 590.5 c 128,-1,15
 280 627 280 627 229 627 c 0,16,17
 195 627 195 627 164.5 594 c 128,-1,18
 134 561 134 561 129 530 c 1,19,20
 194 526 194 526 194 477 c 0,21,22
 194 450 194 450 177 433 c 128,-1,23
 160 416 160 416 129 416 c 0,24,25
 96 416 96 416 79 441.5 c 128,-1,26
 62 467 62 467 62 496 c 0,27,28
 62 540 62 540 113 594 c 128,-1,29
 164 648 164 648 237 648 c 0,30,31
 261 648 261 648 285 643.5 c 128,-1,32
 309 639 309 639 337.5 627.5 c 128,-1,33
 366 616 366 616 388 599 c 128,-1,34
 410 582 410 582 424 552.5 c 128,-1,35
 438 523 438 523 438 486 c 0,36,37
 438 444 438 444 415.5 414.5 c 128,-1,38
 393 385 393 385 361.5 368.5 c 128,-1,39
 330 352 330 352 297.5 338.5 c 128,-1,40
 265 325 265 325 242.5 304 c 128,-1,41
 220 283 220 283 220 253 c 0,42,43
 220 186 220 186 274 186 c 0,44,45
 315 186 315 186 342 210.5 c 128,-1,46
 369 235 369 235 381 272 c 1,0,-1
211 37 m 0,47,48
 211 64 211 64 228 79 c 128,-1,49
 245 94 245 94 271.5 94 c 128,-1,50
 298 94 298 94 313.5 79.5 c 128,-1,51
 329 65 329 65 329 37 c 0,52,53
 329 10 329 10 312 -6 c 128,-1,54
 295 -22 295 -22 268.5 -22 c 128,-1,55
 242 -22 242 -22 226.5 -6.5 c 128,-1,56
 211 9 211 9 211 37 c 0,47,48
EndSplineSet
EndChar

StartChar: at
Encoding: 64 64 36
Width: 608
GlyphClass: 2
Flags: W
HStem: -135 26<234.665 404.895> -7 49<264.952 346.98> 282 17<305.057 373.348> 395 23<272.323 430.914>
VStem: 50 70<15.3979 240.047> 175 78<57.6304 218.937> 559 29<116.849 268.448>
LayerCount: 2
Fore
SplineSet
456 2 m 2,0,1
 384 -7 l 1,2,3
 397 68 l 1,4,5
 391 59 391 59 379 46 c 128,-1,6
 367 33 367 33 354 21 c 128,-1,7
 341 9 341 9 320.5 1 c 128,-1,8
 300 -7 300 -7 279 -7 c 0,9,10
 233 -7 233 -7 204 27 c 128,-1,11
 175 61 175 61 175 124 c 0,12,13
 175 171 175 171 191.5 207.5 c 128,-1,14
 208 244 208 244 233 263 c 128,-1,15
 258 282 258 282 281.5 290.5 c 128,-1,16
 305 299 305 299 325 299 c 0,17,18
 390 299 390 299 424 269 c 1,19,-1
 428 299 l 1,20,-1
 497 299 l 1,21,22
 487 228 487 228 464 35 c 1,23,24
 499 39 499 39 529 75 c 128,-1,25
 559 111 559 111 559 182 c 0,26,27
 559 211 559 211 557 232 c 128,-1,28
 555 253 555 253 543 286 c 128,-1,29
 531 319 531 319 510 340.5 c 128,-1,30
 489 362 489 362 446.5 378.5 c 128,-1,31
 404 395 404 395 345 395 c 0,32,33
 287 395 287 395 242 370.5 c 128,-1,34
 197 346 197 346 171 306.5 c 128,-1,35
 145 267 145 267 132.5 224 c 128,-1,36
 120 181 120 181 120 137 c 0,37,38
 120 82 120 82 127.5 41.5 c 128,-1,39
 135 1 135 1 155.5 -35 c 128,-1,40
 176 -71 176 -71 217.5 -90 c 128,-1,41
 259 -109 259 -109 321 -109 c 0,42,43
 360 -109 360 -109 390.5 -100.5 c 128,-1,44
 421 -92 421 -92 438.5 -80 c 128,-1,45
 456 -68 456 -68 471.5 -53.5 c 128,-1,46
 487 -39 487 -39 497 -27 c 1,47,-1
 517 -55 l 1,48,49
 513 -58 513 -58 488 -80 c 128,-1,50
 463 -102 463 -102 449.5 -109.5 c 128,-1,51
 436 -117 436 -117 400.5 -126 c 128,-1,52
 365 -135 365 -135 318 -135 c 0,53,54
 200 -135 200 -135 125 -59.5 c 128,-1,55
 50 16 50 16 50 123 c 0,56,57
 50 214 50 214 95.5 283 c 128,-1,58
 141 352 141 352 210 385 c 128,-1,59
 279 418 279 418 355 418 c 0,60,61
 470 418 470 418 529 346.5 c 128,-1,62
 588 275 588 275 588 184 c 0,63,64
 588 127 588 127 546 67.5 c 128,-1,65
 504 8 504 8 456 2 c 2,0,1
402 98 m 1,66,-1
 423 248 l 1,67,68
 371 282 371 282 331 282 c 0,69,70
 300 282 300 282 276.5 240.5 c 128,-1,71
 253 199 253 199 253 135 c 0,72,73
 253 85 253 85 264.5 63.5 c 128,-1,74
 276 42 276 42 308 42 c 0,75,76
 337 42 337 42 364 60 c 128,-1,77
 391 78 391 78 402 98 c 1,66,-1
EndSplineSet
EndChar

StartChar: A
Encoding: 65 65 37
Width: 706
GlyphClass: 2
Flags: W
HStem: -5 20<0 46.3826 142.896 196 432.004 492.229> -3 26<646.818 705> 276 24<240 421> 612 20G<334.206 384.439>
VStem: 431 1<15 16>
LayerCount: 2
Fore
SplineSet
429 276 m 1,0,-1
 228 276 l 1,1,-1
 133 53 l 2,2,3
 130 48 130 48 130 43 c 0,4,5
 130 29 130 29 152 20.5 c 128,-1,6
 174 12 174 12 196 12 c 1,7,-1
 197 -4 l 1,8,-1
 0 -5 l 1,9,-1
 0 15 l 1,10,11
 1 15 1 15 2 15 c 0,12,13
 21 15 21 15 43 23.5 c 128,-1,14
 65 32 65 32 78 47 c 0,15,16
 95 67 95 67 219 350 c 2,17,-1
 343 632 l 1,18,-1
 376 632 l 1,19,-1
 595 113 l 2,20,21
 623 46 623 46 656 30 c 0,22,23
 665 26 665 26 675 24.5 c 128,-1,24
 685 23 685 23 694 23 c 128,-1,25
 703 23 703 23 707 22 c 1,26,-1
 705 -3 l 1,27,28
 638 0 638 0 554 0 c 0,29,30
 478 0 478 0 431 -3 c 1,31,-1
 432 16 l 2,32,33
 432 15 432 15 450 15 c 0,34,35
 486 15 486 15 500 32 c 0,36,37
 507 40 507 40 507 54 c 0,38,39
 507 67 507 67 501 83 c 2,40,-1
 496 98 l 1,41,-1
 429 276 l 1,0,-1
240 300 m 1,42,-1
 421 300 l 1,43,-1
 332 516 l 1,44,-1
 240 300 l 1,42,-1
EndSplineSet
EndChar

StartChar: B
Encoding: 66 66 38
Width: 583
GlyphClass: 2
Flags: W
HStem: -3 21<54 72 244.316 357.82> 317 27<236 300> 618 20<236 332.483>
VStem: 131 105<28.3091 317 344 608.895> 401 91<401.826 556.183> 436 101<89.1739 252.26>
LayerCount: 2
Fore
SplineSet
236 616 m 1,0,-1
 236 344 l 1,1,-1
 301 348 l 2,2,3
 334 350 334 350 355.5 363.5 c 128,-1,4
 377 377 377 377 386 399 c 128,-1,5
 395 421 395 421 398 438.5 c 128,-1,6
 401 456 401 456 401 478 c 0,7,8
 401 518 401 518 380.5 556.5 c 128,-1,9
 360 595 360 595 325 612 c 0,10,11
 312 618 312 618 288 618 c 0,12,13
 280 618 280 618 262 617 c 128,-1,14
 244 616 244 616 236 616 c 1,0,-1
537 162 m 0,15,16
 537 135 537 135 524.5 107.5 c 128,-1,17
 512 80 512 80 487.5 54.5 c 128,-1,18
 463 29 463 29 418 13 c 128,-1,19
 373 -3 373 -3 314 -3 c 0,20,21
 307 -3 307 -3 274 -2.5 c 128,-1,22
 241 -2 241 -2 182 -1.5 c 128,-1,23
 123 -1 123 -1 54 -1 c 1,24,-1
 54 15 l 1,25,-1
 72 18 l 1,26,27
 90 20 90 20 109.5 28.5 c 128,-1,28
 129 37 129 37 131 48 c 1,29,30
 131 98 131 98 131 241 c 128,-1,31
 131 384 131 384 131 450 c 0,32,33
 131 555 131 555 131 593 c 1,34,35
 129 604 129 604 98 612 c 2,36,-1
 68 622 l 1,37,-1
 68 639 l 1,38,39
 127 639 127 639 212.5 638.5 c 128,-1,40
 298 638 298 638 323 638 c 0,41,42
 361 638 361 638 398.5 620 c 128,-1,43
 436 602 436 602 464 564.5 c 128,-1,44
 492 527 492 527 492 480 c 0,45,46
 492 479 492 479 492 478 c 0,47,48
 491 425 491 425 454.5 380.5 c 128,-1,49
 418 336 418 336 353 334 c 1,50,51
 537 317 537 317 537 162 c 0,15,16
233 317 m 1,52,-1
 234 68 l 2,53,54
 234 35 234 35 244 26.5 c 128,-1,55
 254 18 254 18 279 18 c 0,56,57
 362 18 362 18 399 49.5 c 128,-1,58
 436 81 436 81 436 153 c 0,59,60
 436 303 436 303 300 316 c 1,61,-1
 233 317 l 1,52,-1
EndSplineSet
EndChar

StartChar: C
Encoding: 67 67 39
Width: 696
GlyphClass: 2
Flags: W
HStem: -23 31<317.772 488.234> 613 28<315.114 484.052>
VStem: 55 132<171.835 437.936> 605 32<598.836 648> 614 20<441 481.526>
LayerCount: 2
Fore
SplineSet
395 641 m 0,0,1
 453 641 453 641 505.5 623 c 128,-1,2
 558 605 558 605 574 586 c 1,3,4
 586 594 586 594 592.5 603 c 128,-1,5
 599 612 599 612 600.5 619 c 128,-1,6
 602 626 602 626 605 648 c 1,7,-1
 637 648 l 1,8,-1
 634 441 l 1,9,-1
 614 441 l 1,10,11
 601 522 601 522 544.5 567.5 c 128,-1,12
 488 613 488 613 387 613 c 0,13,14
 289 613 289 613 239 532 c 128,-1,15
 189 451 189 451 187 313 c 1,16,17
 187 8 187 8 401 8 c 0,18,19
 450 8 450 8 487 21.5 c 128,-1,20
 524 35 524 35 550.5 62 c 128,-1,21
 577 89 577 89 592.5 116 c 128,-1,22
 608 143 608 143 626 184 c 1,23,-1
 649 166 l 1,24,25
 571 -22 571 -22 399 -23 c 0,26,27
 247 -23 247 -23 151 63.5 c 128,-1,28
 55 150 55 150 55 306 c 0,29,30
 55 381 55 381 78 441 c 128,-1,31
 101 501 101 501 137 537 c 128,-1,32
 173 573 173 573 219.5 598 c 128,-1,33
 266 623 266 623 309.5 632 c 128,-1,34
 353 641 353 641 395 641 c 0,0,1
EndSplineSet
EndChar

StartChar: D
Encoding: 68 68 40
Width: 671
GlyphClass: 2
Flags: W
HStem: -3 21<49 107.212 255.611 391.733> 603 28<234 395.719> 611 18<62 107.719>
VStem: 137 97<33.9852 599.637> 526 109<184.09 437.039>
LayerCount: 2
Fore
SplineSet
635 296 m 0,0,1
 635 242 635 242 615.5 190.5 c 128,-1,2
 596 139 596 139 558 94.5 c 128,-1,3
 520 50 520 50 456 23.5 c 128,-1,4
 392 -3 392 -3 310 -3 c 0,5,6
 303 -3 303 -3 269.5 -2.5 c 128,-1,7
 236 -2 236 -2 177 -1.5 c 128,-1,8
 118 -1 118 -1 49 -1 c 1,9,-1
 49 15 l 1,10,11
 130 22 130 22 137 61 c 1,12,-1
 137 565 l 1,13,14
 136 578 136 578 130 587.5 c 128,-1,15
 124 597 124 597 109.5 601.5 c 128,-1,16
 95 606 95 606 88.5 607.5 c 128,-1,17
 82 609 82 609 62 611 c 1,18,-1
 62 629 l 1,19,20
 121 629 121 629 216 630 c 128,-1,21
 311 631 311 631 336 631 c 0,22,23
 385 631 385 631 434 613.5 c 128,-1,24
 483 596 483 596 530 559.5 c 128,-1,25
 577 523 577 523 606 454.5 c 128,-1,26
 635 386 635 386 635 296 c 0,0,1
526 290 m 0,27,28
 526 293 526 293 526 296 c 0,29,30
 526 375 526 375 516.5 428 c 128,-1,31
 507 481 507 481 482 522.5 c 128,-1,32
 457 564 457 564 411.5 583.5 c 128,-1,33
 366 603 366 603 297 603 c 0,34,35
 267 603 267 603 234 600 c 1,36,37
 234 574 234 574 234 510 c 0,38,39
 234 455 234 455 234 322 c 128,-1,40
 234 189 234 189 234 142 c 0,41,42
 234 84 234 84 234 68 c 0,43,44
 234 49 234 49 249.5 33.5 c 128,-1,45
 265 18 265 18 289 18 c 0,46,47
 362 18 362 18 408.5 33 c 128,-1,48
 455 48 455 48 480.5 83.5 c 128,-1,49
 506 119 506 119 515.5 166.5 c 128,-1,50
 525 214 525 214 526 290 c 0,27,28
EndSplineSet
EndChar

StartChar: E
Encoding: 69 69 41
Width: 583
GlyphClass: 2
Flags: W
HStem: 0 20<49.0068 126.707 245.074 443.255> 308 23<234 410.305> 390 20G<430 456> 603 23<234 430.316> 611 18<62 98>
VStem: 140 94<162.5 308 331 584.53> 436 20<230 275.989 371.812 410> 495 19<484 517.666> 500 22<105.391 152>
LayerCount: 2
Fore
SplineSet
513 0 m 1,0,-1
 49 0 l 1,1,-1
 49 16 l 2,2,3
 49 15 49 15 77 15 c 0,4,5
 126 15 126 15 131 39 c 1,6,7
 140 93 140 93 140 425 c 0,8,9
 140 571 140 571 136 585 c 1,10,11
 134 596 134 596 98 604 c 2,12,-1
 62 611 l 1,13,-1
 62 629 l 1,14,15
 168 626 168 626 298.5 626 c 128,-1,16
 429 626 429 626 511 629 c 1,17,-1
 514 484 l 1,18,-1
 495 484 l 1,19,20
 490 509 490 509 480 532.5 c 128,-1,21
 470 556 470 556 446 579.5 c 128,-1,22
 422 603 422 603 391 603 c 2,23,-1
 234 603 l 1,24,-1
 234 331 l 1,25,-1
 382 331 l 2,26,27
 428 331 428 331 432 410 c 1,28,-1
 456 410 l 1,29,-1
 456 230 l 1,30,-1
 436 230 l 1,31,32
 431 308 431 308 379 308 c 2,33,-1
 234 308 l 1,34,-1
 234 69 l 2,35,36
 234 21 234 21 269 20 c 2,37,-1
 420 20 l 1,38,39
 446 21 446 21 470.5 64.5 c 128,-1,40
 495 108 495 108 500 152 c 1,41,-1
 522 152 l 1,42,-1
 513 0 l 1,0,-1
EndSplineSet
EndChar

StartChar: F
Encoding: 70 70 42
Width: 563
GlyphClass: 2
Flags: W
HStem: -4 16<49 111.551 253.688 317> 308 23<234 400.305> 390 20G<420 445> 603 22<234 429.496> 611 18<62 98>
VStem: 131 103<19.1016 194.169> 139 95<35.7782 308 331 584.442> 426 19<230 274.408 373.605 410> 495 19<484 517.666>
LayerCount: 2
Fore
SplineSet
317 -4 m 1,0,1
 267 0 267 0 190 0 c 128,-1,2
 113 0 113 0 49 -4 c 1,3,-1
 49 12 l 1,4,5
 74 12 74 12 102 17.5 c 128,-1,6
 130 23 130 23 131 35 c 0,7,8
 133 59 133 59 136 198.5 c 128,-1,9
 139 338 139 338 139 443 c 0,10,11
 139 568 139 568 136 585 c 0,12,13
 134 596 134 596 98 604 c 2,14,-1
 62 611 l 1,15,-1
 62 629 l 1,16,17
 166 625 166 625 297.5 625 c 128,-1,18
 429 625 429 625 511 629 c 1,19,-1
 514 484 l 1,20,-1
 495 484 l 1,21,22
 490 509 490 509 480 532.5 c 128,-1,23
 470 556 470 556 446 579.5 c 128,-1,24
 422 603 422 603 391 603 c 2,25,-1
 234 603 l 1,26,-1
 234 331 l 1,27,-1
 372 331 l 2,28,29
 418 331 418 331 422 410 c 1,30,-1
 445 410 l 1,31,-1
 445 230 l 1,32,-1
 426 230 l 1,33,34
 421 308 421 308 369 308 c 2,35,-1
 234 308 l 1,36,-1
 234 65 l 2,37,38
 234 20 234 20 269 15 c 0,39,40
 277 14 277 14 291 14 c 2,41,-1
 317 15 l 1,42,43
 317 10 l 0,44,45
 317 5 317 5 317 2 c 0,46,47
 317 -2 317 -2 317 -4 c 1,0,1
EndSplineSet
EndChar

StartChar: G
Encoding: 71 71 43
Width: 747
GlyphClass: 2
Flags: W
HStem: -23 33<309.844 469.088> -3 21G<631 653> 253 22<459 518.672 677.508 726> 613 29<316.897 474.467>
VStem: 51 131<168.738 434.492> 556 95<89.2195 226.34> 605 31<431 488.186> 613 26<597.004 638>
LayerCount: 2
Fore
SplineSet
402 642 m 0,0,1
 439 642 439 642 477.5 627 c 128,-1,2
 516 612 516 612 537 597 c 128,-1,3
 558 582 558 582 575 571 c 1,4,5
 589 577 589 577 600 597 c 128,-1,6
 611 617 611 617 613 638 c 1,7,-1
 639 638 l 1,8,-1
 636 431 l 1,9,-1
 605 431 l 1,10,11
 576 613 576 613 399 613 c 0,12,13
 295 613 295 613 238.5 540 c 128,-1,14
 182 467 182 467 182 295 c 0,15,16
 182 219 182 219 202.5 156.5 c 128,-1,17
 223 94 223 94 270.5 52 c 128,-1,18
 318 10 318 10 386 10 c 0,19,20
 435 10 435 10 481.5 31.5 c 128,-1,21
 528 53 528 53 553 88 c 1,22,23
 556 127 556 127 556 169 c 0,24,25
 556 206 556 206 553 227 c 1,26,27
 514 250 514 250 459 253 c 1,28,-1
 459 275 l 1,29,-1
 726 275 l 1,30,-1
 726 253 l 1,31,32
 671 247 671 247 655 227 c 1,33,34
 651 219 651 219 651 139 c 0,35,36
 651 73 651 73 653 -3 c 1,37,-1
 636 -3 l 1,38,-1
 631 12 l 1,39,40
 627 28 627 28 610 44.5 c 128,-1,41
 593 61 593 61 569 61 c 1,42,43
 547 28 547 28 493.5 2.5 c 128,-1,44
 440 -23 440 -23 385 -23 c 0,45,46
 238 -23 238 -23 144.5 64 c 128,-1,47
 51 151 51 151 51 296 c 0,48,49
 51 373 51 373 73 434.5 c 128,-1,50
 95 496 95 496 130.5 533.5 c 128,-1,51
 166 571 166 571 213 596.5 c 128,-1,52
 260 622 260 622 306.5 632 c 128,-1,53
 353 642 353 642 402 642 c 0,0,1
EndSplineSet
EndChar

StartChar: H
Encoding: 72 72 44
Width: 755
GlyphClass: 2
Flags: W
HStem: 3 9<61.3806 126 280.387 310 642.648 698> 308 23<234 513> 611 15<73 102 285.797 312 446 486.219 649 685>
VStem: 131 103<21.4392 308 331 598.427> 513 97<21.4392 308 331 599.422>
LayerCount: 2
Fore
SplineSet
512 584 m 2,0,1
 512 606 512 606 446 608 c 1,2,-1
 444 623 l 1,3,4
 478 621 478 621 528 621 c 0,5,6
 629 621 629 621 685 626 c 1,7,-1
 685 611 l 1,8,9
 649 604 l 0,10,11
 612 596 612 596 611 585 c 0,12,13
 610 576 610 576 610 487 c 0,14,15
 610 66 610 66 616 35 c 0,16,17
 620 12 620 12 694 12 c 2,18,-1
 698 12 l 1,19,-1
 700 -1 l 1,20,21
 652 3 652 3 574 3 c 0,22,23
 485 3 485 3 436 -2 c 1,24,-1
 437 15 l 1,25,26
 513 15 513 15 513 44 c 2,27,-1
 513 308 l 1,28,-1
 234 308 l 1,29,-1
 234 44 l 2,30,31
 234 15 234 15 310 15 c 1,32,-1
 311 -1 l 1,33,34
 279 0 279 0 234 0 c 0,35,36
 135 0 135 0 59 -4 c 1,37,-1
 59 12 l 1,38,39
 63 12 l 0,40,41
 126 12 126 12 131 35 c 0,42,43
 133 47 133 47 135 218 c 128,-1,44
 137 389 137 389 137 502 c 0,45,46
 137 579 137 579 136 585 c 0,47,48
 133 596 133 596 102 604 c 2,49,-1
 73 611 l 1,50,-1
 73 626 l 1,51,52
 120 622 120 622 193 622 c 0,53,54
 269 622 269 622 312 626 c 1,55,-1
 312 606 l 1,56,57
 235 601 235 601 234 583 c 1,58,-1
 234 331 l 1,59,-1
 513 331 l 1,60,-1
 512 584 l 2,0,1
EndSplineSet
EndChar

StartChar: I
Encoding: 73 73 45
Width: 376
GlyphClass: 2
Flags: W
HStem: -3 16<59 125.167 272.275 321> 611 15<73 110 290.551 314>
VStem: 146 97<23.25 598.456>
LayerCount: 2
Fore
SplineSet
245 583 m 0,0,1
 245 582 245 582 244.5 527 c 128,-1,2
 244 472 244 472 243.5 389.5 c 128,-1,3
 243 307 243 307 243 239 c 0,4,5
 243 103 243 103 245 45 c 0,6,7
 246 16 246 16 321 16 c 1,8,-1
 322 0 l 1,9,10
 290 1 290 1 243 1 c 0,11,12
 135 1 135 1 59 -3 c 1,13,-1
 59 13 l 1,14,15
 63 13 l 0,16,17
 137 13 137 13 141 36 c 0,18,19
 146 66 146 66 146 585 c 0,20,21
 146 596 146 596 110 604 c 2,22,-1
 73 611 l 1,23,-1
 73 626 l 1,24,25
 120 622 120 622 194 622 c 0,26,27
 271 622 271 622 314 626 c 1,28,-1
 314 606 l 1,29,30
 245 601 245 601 245 583 c 0,0,1
EndSplineSet
EndChar

StartChar: J
Encoding: 74 74 46
Width: 385
GlyphClass: 2
Flags: W
HStem: -214 15.5<18.3147 93.8467> 611 15<81 117 290.34 321>
VStem: -75 132<-177.494 -85.1112> 159 90<-93.5206 598.427>
LayerCount: 2
Fore
SplineSet
253 583 m 0,0,1
 249 523 249 523 249 265 c 0,2,3
 249 233 249 233 249.5 180 c 128,-1,4
 250 127 250 127 250 104 c 0,5,6
 250 11 250 11 240 -45.5 c 128,-1,7
 230 -102 230 -102 201 -143 c 0,8,9
 150 -214 150 -214 54 -214 c 0,10,11
 -11 -214 -11 -214 -43 -189.5 c 128,-1,12
 -75 -165 -75 -165 -75 -131 c 0,13,14
 -75 -104 -75 -104 -56.5 -84.5 c 128,-1,15
 -38 -65 -38 -65 -10 -65 c 0,16,17
 21 -65 21 -65 39 -82.5 c 128,-1,18
 57 -100 57 -100 57 -126 c 0,19,20
 57 -166 57 -166 17 -191 c 1,21,22
 30 -198 30 -198 51.5 -198.5 c 128,-1,23
 73 -199 73 -199 93 -191.5 c 128,-1,24
 113 -184 113 -184 121 -172 c 0,25,26
 138 -144 138 -144 144 -118 c 128,-1,27
 150 -92 150 -92 154 -27 c 0,28,29
 159 65 159 65 159 313 c 0,30,31
 159 554 159 554 155 585 c 0,32,33
 153 596 153 596 117 604 c 2,34,-1
 81 611 l 1,35,-1
 81 626 l 1,36,37
 128 622 128 622 201 622 c 0,38,39
 277 622 277 622 321 626 c 1,40,-1
 321 606 l 1,41,42
 310 606 310 606 298 604.5 c 128,-1,43
 286 603 286 603 276 601.5 c 128,-1,44
 266 600 266 600 260 595 c 128,-1,45
 254 590 254 590 253 583 c 0,0,1
EndSplineSet
EndChar

StartChar: K
Encoding: 75 75 47
Width: 670
GlyphClass: 2
Flags: W
HStem: -4 16<59 115.483 260.793 310 670.814 684> 611 15<62 98 286.711 312 429 449.533 582.242 624>
VStem: 138 96<168.899 231 259 597.75>
LayerCount: 2
Fore
SplineSet
471 545 m 0,0,1
 472 548 472 548 476 557 c 128,-1,2
 480 566 480 566 480 569 c 0,3,4
 479 588 479 588 462.5 597.5 c 128,-1,5
 446 607 446 607 429 608 c 1,6,-1
 427 623 l 1,7,8
 461 621 461 621 500 621 c 0,9,10
 569 621 569 621 624 626 c 1,11,-1
 624 611 l 1,12,-1
 609 610 l 2,13,14
 595 608 595 608 574 601 c 128,-1,15
 553 594 553 594 541 582 c 0,16,17
 493 537 493 537 447.5 482.5 c 128,-1,18
 402 428 402 428 350 360 c 1,19,20
 391 307 391 307 430 252.5 c 128,-1,21
 469 198 469 198 499 158.5 c 128,-1,22
 529 119 529 119 577 66 c 0,23,24
 600 40 600 40 623.5 31 c 128,-1,25
 647 22 647 22 686 18 c 1,26,-1
 684 -1 l 1,27,28
 540 5 540 5 539 5 c 0,29,30
 507 5 507 5 479 2 c 1,31,32
 353 205 353 205 287 297 c 1,33,-1
 236 231 l 1,34,-1
 234 44 l 2,35,36
 234 15 234 15 310 15 c 1,37,-1
 311 -1 l 1,38,39
 279 0 279 0 234 0 c 0,40,41
 135 0 135 0 59 -4 c 1,42,-1
 59 12 l 1,43,44
 63 12 l 0,45,46
 124 12 124 12 131 35 c 0,47,48
 138 65 138 65 138 433 c 0,49,50
 138 574 138 574 136 585 c 0,51,52
 133 596 133 596 98 604 c 1,53,-1
 62 611 l 1,54,-1
 62 626 l 1,55,56
 109 622 109 622 186 622 c 0,57,58
 268 622 268 622 312 626 c 1,59,-1
 312 606 l 1,60,61
 238 601 238 601 234 583 c 1,62,-1
 234 259 l 1,63,-1
 350 394 l 2,64,65
 465 530 465 530 471 545 c 0,0,1
EndSplineSet
EndChar

StartChar: L
Encoding: 76 76 48
Width: 587
GlyphClass: 2
Flags: W
HStem: -3 26<252.91 448.566> -3 16<49 111.788> 611 18<62 87.008 260.79 319>
VStem: 148 96<25.5244 599.145> 504 22<104.675 152>
LayerCount: 2
Fore
SplineSet
245 68 m 0,0,1
 245 23 245 23 281 23 c 2,2,3
 410 22 l 0,4,5
 445 22 445 22 471.5 61 c 128,-1,6
 498 100 498 100 504 152 c 1,7,-1
 526 152 l 1,8,-1
 510 -3 l 1,9,-1
 49 -3 l 1,10,-1
 49 13 l 1,11,-1
 72 14 l 2,12,13
 96 16 96 16 119 23 c 128,-1,14
 142 30 142 30 143 41 c 0,15,16
 148 95 148 95 148 386 c 0,17,18
 148 551 148 551 146 585 c 0,19,20
 145 598 145 598 104 604 c 2,21,-1
 62 611 l 1,22,-1
 62 629 l 1,23,-1
 319 630 l 1,24,-1
 319 614 l 1,25,26
 249 610 249 610 247 585 c 1,27,28
 244 346 244 346 244 297 c 0,29,30
 244 272 244 272 244.5 201 c 128,-1,31
 245 130 245 130 245 68 c 0,0,1
EndSplineSet
EndChar

StartChar: M
Encoding: 77 77 49
Width: 881
GlyphClass: 2
Flags: W
HStem: -2 18<28 68 185.69 245 591 652.054 793.009 859> 605 18<20 60.4688 792.684 861>
VStem: 136 25<335.919 502> 675 91<59 508>
LayerCount: 2
Fore
SplineSet
208 627 m 1,0,1
 455 151 455 151 468 121 c 1,2,-1
 689 623 l 1,3,-1
 861 630 l 1,4,-1
 861 610 l 1,5,6
 848 609 848 609 829.5 606 c 128,-1,7
 811 603 811 603 788.5 594.5 c 128,-1,8
 766 586 766 586 766 574 c 2,9,-1
 766 59 l 1,10,-1
 774 45 l 2,11,12
 782 31 782 31 796 23 c 0,13,14
 811 15 811 15 835 14 c 1,15,-1
 859 16 l 1,16,-1
 859 -2 l 1,17,18
 802 0 802 0 724 0 c 0,19,20
 637 0 637 0 591 -3 c 1,21,-1
 591 13 l 1,22,23
 593 13 593 13 615 15 c 128,-1,24
 637 17 637 17 648 23 c 0,25,26
 675 35 675 35 675 55 c 2,27,-1
 675 508 l 1,28,-1
 440 -14 l 1,29,-1
 424 -14 l 1,30,-1
 161 502 l 1,31,32
 161 239 l 0,33,34
 161 126 161 126 161 70 c 0,35,36
 161 52 161 52 163 45.5 c 128,-1,37
 165 39 165 39 172.5 34.5 c 128,-1,38
 180 30 180 30 185 25 c 1,39,40
 207 17 207 17 239 16 c 0,41,42
 240 16 240 16 242 16 c 128,-1,43
 244 16 244 16 245 16 c 1,44,-1
 245 -2 l 1,45,46
 196 1 196 1 139 1 c 0,47,48
 76 1 76 1 28 -3 c 1,49,-1
 28 13 l 1,50,-1
 68 18 l 2,51,52
 108 24 108 24 120 35 c 0,53,54
 127 41 127 41 131 51 c 2,55,-1
 134 61 l 1,56,57
 136 61 136 61 136 530 c 1,58,59
 131 560 131 560 94 581 c 128,-1,60
 57 602 57 602 20 605 c 1,61,-1
 20 623 l 1,62,-1
 208 627 l 1,0,1
EndSplineSet
EndChar

StartChar: N
Encoding: 78 78 50
Width: 687
GlyphClass: 2
Flags: W
HStem: 1 12<20 88.75 180.848 248> 604 18<444 516.744 610.856 667>
VStem: 118 32<26.4182 522> 541 37<194 590.284>
LayerCount: 2
Fore
SplineSet
667 604 m 1,0,1
 653 603 653 603 635.5 600.5 c 128,-1,2
 618 598 618 598 598 591 c 128,-1,3
 578 584 578 584 578 573 c 0,4,5
 576 540 576 540 575 389 c 2,6,-1
 578 -11 l 1,7,-1
 543 -11 l 1,8,-1
 352 250 l 2,9,10
 162 511 162 511 151 522 c 1,11,12
 150 437 150 437 150 383 c 0,13,14
 150 315 150 315 152.5 253 c 128,-1,15
 155 191 155 191 155 99 c 0,16,17
 155 81 155 81 155 59 c 0,18,19
 155 18 155 18 190 18 c 0,20,21
 247 18 247 18 248 16 c 2,22,-1
 248 -2 l 1,23,24
 199 1 199 1 137 1 c 0,25,26
 68 1 68 1 20 -3 c 1,27,-1
 20 13 l 1,28,29
 26 13 l 0,30,31
 108 13 108 13 113 36 c 1,32,33
 118 334 118 334 118 385 c 0,34,35
 118 462 118 462 116 563 c 1,36,37
 114 574 114 574 69 593 c 2,38,-1
 24 611 l 1,39,-1
 24 629 l 1,40,-1
 209 628 l 1,41,42
 268 546 268 546 403 370 c 2,43,-1
 540 194 l 1,44,-1
 541 573 l 1,45,46
 540 587 540 587 516 595.5 c 128,-1,47
 492 604 492 604 459 604 c 0,48,49
 452 604 452 604 444 604 c 1,50,-1
 442 627 l 1,51,52
 484 622 484 622 546 622 c 0,53,54
 603 622 603 622 667 626 c 1,55,-1
 667 604 l 1,0,1
EndSplineSet
EndChar

StartChar: O
Encoding: 79 79 51
Width: 792
GlyphClass: 2
Flags: W
HStem: -12 20<345.676 474.761> 634 17<337.746 469.764>
VStem: 49 119<185.542 445.156> 629 114<190.435 448.405>
LayerCount: 2
Fore
SplineSet
416 8 m 0,0,1
 510 8 510 8 569.5 93.5 c 128,-1,2
 629 179 629 179 629 312 c 0,3,4
 629 470 629 470 571 552 c 128,-1,5
 513 634 513 634 408 634 c 0,6,7
 358 634 358 634 318.5 620 c 128,-1,8
 279 606 279 606 243 573 c 128,-1,9
 207 540 207 540 187.5 473.5 c 128,-1,10
 168 407 168 407 168 311 c 0,11,12
 168 275 168 275 174.5 237.5 c 128,-1,13
 181 200 181 200 199 158 c 128,-1,14
 217 116 217 116 243.5 83.5 c 128,-1,15
 270 51 270 51 315 29.5 c 128,-1,16
 360 8 360 8 416 8 c 0,0,1
416 651 m 0,17,18
 452 651 452 651 491 643 c 128,-1,19
 530 635 530 635 577 611.5 c 128,-1,20
 624 588 624 588 659.5 552 c 128,-1,21
 695 516 695 516 719 453.5 c 128,-1,22
 743 391 743 391 743 312 c 0,23,24
 743 235 743 235 712.5 172 c 128,-1,25
 682 109 682 109 633 69.5 c 128,-1,26
 584 30 584 30 527 9 c 128,-1,27
 470 -12 470 -12 414 -12 c 0,28,29
 263 -12 263 -12 156 74.5 c 128,-1,30
 49 161 49 161 49 304 c 0,31,32
 49 386 49 386 72.5 449 c 128,-1,33
 96 512 96 512 133 549.5 c 128,-1,34
 170 587 170 587 220.5 610.5 c 128,-1,35
 271 634 271 634 318.5 642.5 c 128,-1,36
 366 651 366 651 416 651 c 0,17,18
EndSplineSet
EndChar

StartChar: P
Encoding: 80 80 52
Width: 562
GlyphClass: 2
Flags: W
HStem: -3 21G<334 334> -1 16<60 124.219> 284 21<247.927 362.519> 604 24<74 108 246.283 371.336>
VStem: 145 101<21.1602 295 305.89 600.562> 433 101<365.362 533.375>
LayerCount: 2
Fore
SplineSet
534 447 m 0,0,1
 534 372 534 372 477 328 c 128,-1,2
 420 284 420 284 321 284 c 0,3,4
 286 284 286 284 266 289 c 2,5,-1
 246 295 l 1,6,-1
 245 47 l 2,7,8
 245 29 245 29 266 20 c 128,-1,9
 287 11 287 11 317 11 c 0,10,11
 325 11 325 11 334 12 c 1,12,-1
 334 -3 l 2,13,14
 334 -1 334 -1 60 -1 c 1,15,-1
 60 15 l 1,16,17
 65 15 l 0,18,19
 140 15 140 15 142 38 c 0,20,21
 145 68 145 68 145 299.5 c 128,-1,22
 145 531 145 531 142 585 c 0,23,24
 141 598 141 598 108 604 c 2,25,-1
 74 611 l 1,26,-1
 74 629 l 1,27,28
 133 629 133 629 226 628 c 128,-1,29
 319 627 319 627 344 627 c 0,30,31
 412 627 412 627 473 578 c 128,-1,32
 534 529 534 529 534 447 c 0,0,1
433 447 m 0,33,34
 433 478 433 478 430.5 499.5 c 128,-1,35
 428 521 428 521 419.5 544 c 128,-1,36
 411 567 411 567 391.5 581.5 c 128,-1,37
 372 596 372 596 342 601 c 0,38,39
 325 604 325 604 300 604 c 0,40,41
 291 604 291 604 273 603.5 c 128,-1,42
 255 603 255 603 246 603 c 1,43,-1
 246 310 l 2,44,45
 246 305 246 305 313 305 c 0,46,47
 371 305 371 305 401.5 347.5 c 128,-1,48
 432 390 432 390 433 447 c 0,33,34
EndSplineSet
EndChar

StartChar: Q
Encoding: 81 81 53
Width: 739
GlyphClass: 2
Flags: W
HStem: -216 77<566.857 698.108> -58 39<279.705 378.933> -12 20<309.215 456.952> 634 17<314.295 445.792>
VStem: 37 119<182.653 449.841> 227 19<-142 -114.828> 593 115<195.552 450> 715 28<-115.214 -49>
LayerCount: 2
Fore
SplineSet
650 -139 m 0,0,1
 686 -139 686 -139 700.5 -117 c 128,-1,2
 715 -95 715 -95 715 -54 c 0,3,4
 715 -52 715 -52 715 -49 c 1,5,-1
 743 -43 l 1,6,7
 743 -49 743 -49 743 -55 c 0,8,9
 743 -122 743 -122 717 -169 c 128,-1,10
 691 -216 691 -216 638 -216 c 0,11,12
 594 -216 594 -216 554 -199.5 c 128,-1,13
 514 -183 514 -183 485.5 -160 c 128,-1,14
 457 -137 457 -137 430 -114 c 128,-1,15
 403 -91 403 -91 374.5 -74.5 c 128,-1,16
 346 -58 346 -58 317 -58 c 0,17,18
 295 -58 295 -58 277.5 -79.5 c 128,-1,19
 260 -101 260 -101 253.5 -119.5 c 128,-1,20
 247 -138 247 -138 246 -146 c 1,21,-1
 227 -142 l 1,22,23
 227 -124 227 -124 239.5 -93 c 128,-1,24
 252 -62 252 -62 270 -44 c 0,25,26
 281 -34 281 -34 306 -26.5 c 128,-1,27
 331 -19 331 -19 354 -19 c 2,28,29
 355 -19 l 0,30,31
 396 -19 396 -19 448 -49.5 c 128,-1,32
 500 -80 500 -80 552.5 -109.5 c 128,-1,33
 605 -139 605 -139 650 -139 c 0,0,1
381 -12 m 0,34,35
 233 -12 233 -12 135 75 c 128,-1,36
 37 162 37 162 37 306 c 0,37,38
 37 388 37 388 59.5 450.5 c 128,-1,39
 82 513 82 513 117.5 550.5 c 128,-1,40
 153 588 153 588 202 611.5 c 128,-1,41
 251 635 251 635 297 643 c 128,-1,42
 343 651 343 651 393 651 c 0,43,44
 429 651 429 651 467 642.5 c 128,-1,45
 505 634 505 634 549.5 610.5 c 128,-1,46
 594 587 594 587 628 550.5 c 128,-1,47
 662 514 662 514 685 452 c 128,-1,48
 708 390 708 390 708 312 c 0,49,50
 708 179 708 179 606 83.5 c 128,-1,51
 504 -12 504 -12 381 -12 c 0,34,35
385 634 m 0,52,53
 335 634 335 634 297 620.5 c 128,-1,54
 259 607 259 607 225 574 c 128,-1,55
 191 541 191 541 173.5 475 c 128,-1,56
 156 409 156 409 156 313 c 0,57,58
 156 276 156 276 160.5 240 c 128,-1,59
 165 204 165 204 179.5 160.5 c 128,-1,60
 194 117 194 117 216.5 84.5 c 128,-1,61
 239 52 239 52 280 30 c 128,-1,62
 321 8 321 8 375 8 c 0,63,64
 410 8 410 8 438.5 13 c 128,-1,65
 467 18 467 18 488.5 27 c 128,-1,66
 510 36 510 36 526.5 51 c 128,-1,67
 543 66 543 66 553.5 79.5 c 128,-1,68
 564 93 564 93 572 115.5 c 128,-1,69
 580 138 580 138 584 155.5 c 128,-1,70
 588 173 588 173 590 200.5 c 128,-1,71
 592 228 592 228 592.5 246.5 c 128,-1,72
 593 265 593 265 593 295 c 0,73,74
 593 354 593 354 587.5 402.5 c 128,-1,75
 582 451 582 451 567.5 495.5 c 128,-1,76
 553 540 553 540 530 569.5 c 128,-1,77
 507 599 507 599 470 616.5 c 128,-1,78
 433 634 433 634 385 634 c 0,52,53
EndSplineSet
EndChar

StartChar: R
Encoding: 82 82 54
Width: 636
GlyphClass: 2
Flags: W
HStem: -2 14<49 95.5054 598.788 630> 316 24<234 336.125> 605 21<62 90.512 234 358.5>
VStem: 139 95<24.6953 317 341 595.707> 418 100<405.983 546.293>
LayerCount: 2
Fore
SplineSet
630 -2 m 1,0,-1
 449 1 l 1,1,2
 449 5 449 5 449 9 c 0,3,4
 449 46 449 46 422 147 c 1,5,6
 376 315 376 315 300 316 c 2,7,-1
 233 317 l 1,8,-1
 234 69 l 2,9,10
 234 54 234 54 236 44.5 c 128,-1,11
 238 35 238 35 246 27 c 128,-1,12
 254 19 254 19 269 19 c 0,13,14
 313 18 313 18 313 17 c 2,15,-1
 312 -2 l 1,16,17
 256 2 256 2 163 2 c 0,18,19
 89 2 89 2 49 -1 c 1,20,-1
 49 16 l 1,21,22
 127 16 127 16 131 39 c 1,23,24
 135 55 135 55 135 74 c 0,25,26
 139 175 139 175 139 329 c 0,27,28
 139 558 139 558 135 582 c 0,29,30
 133 593 133 593 98 601 c 2,31,-1
 62 609 l 1,32,-1
 62 627 l 1,33,34
 121 625 121 625 202 625 c 0,35,36
 235 625 235 625 285 625.5 c 128,-1,37
 335 626 335 626 349 626 c 0,38,39
 387 626 387 626 425 608.5 c 128,-1,40
 463 591 463 591 490.5 554 c 128,-1,41
 518 517 518 517 518 470 c 0,42,43
 518 419 518 419 469 377.5 c 128,-1,44
 420 336 420 336 353 334 c 1,45,46
 384 331 384 331 410 316.5 c 128,-1,47
 436 302 436 302 452 286 c 128,-1,48
 468 270 468 270 484.5 240 c 128,-1,49
 501 210 501 210 507.5 192 c 128,-1,50
 514 174 514 174 527 139 c 0,51,52
 558 57 558 57 567 45 c 0,53,54
 589 14 589 14 630 12 c 1,55,-1
 630 -2 l 1,0,-1
344 600 m 0,56,57
 322 605 322 605 289 605 c 0,58,59
 259 605 259 605 234 602 c 1,60,-1
 234 341 l 1,61,62
 302 340 302 340 303 340 c 0,63,64
 359 340 359 340 388.5 379 c 128,-1,65
 418 418 418 418 418 472 c 0,66,67
 418 518 418 518 398 555 c 128,-1,68
 378 592 378 592 344 600 c 0,56,57
EndSplineSet
EndChar

StartChar: S
Encoding: 83 83 55
Width: 587
GlyphClass: 2
Flags: W
HStem: -15 24<217.199 357.314> 618 20G<464.5 486> 634 19<255.523 357.301>
VStem: 85 20<144.595 181> 108 78<462.182 575.48> 428 106<82.0282 205.58> 464 19<444 518.242>
LayerCount: 2
Fore
SplineSet
301 653 m 0,0,1
 378 653 378 653 432 596 c 1,2,3
 457 599 457 599 472 638 c 1,4,-1
 486 638 l 1,5,-1
 483 444 l 1,6,7
 464 444 l 1,8,9
 461 479 461 479 456 510.5 c 128,-1,10
 451 542 451 542 434 565 c 0,11,12
 387 634 387 634 299 634 c 0,13,14
 252 634 252 634 219 597.5 c 128,-1,15
 186 561 186 561 186 522 c 0,16,17
 186 480 186 480 226 443 c 128,-1,18
 266 406 266 406 332 382 c 0,19,20
 423 348 423 348 478.5 295 c 128,-1,21
 534 242 534 242 534 176 c 0,22,23
 534 91 534 91 478 38 c 128,-1,24
 422 -15 422 -15 292 -15 c 0,25,26
 264 -15 264 -15 238 -9 c 128,-1,27
 212 -3 212 -3 195.5 6 c 128,-1,28
 179 15 179 15 163.5 24.5 c 128,-1,29
 148 34 148 34 141 40 c 1,30,31
 121 31 121 31 104 -1 c 1,32,-1
 83 -1 l 1,33,-1
 85 181 l 1,34,-1
 105 181 l 1,35,36
 122 99 122 99 163.5 54 c 128,-1,37
 205 9 205 9 288 9 c 0,38,39
 428 9 428 9 428 144 c 0,40,41
 428 232 428 232 280 284 c 0,42,43
 200 312 200 312 154 363.5 c 128,-1,44
 108 415 108 415 108 473 c 0,45,46
 107 653 107 653 301 653 c 0,0,1
EndSplineSet
EndChar

StartChar: T
Encoding: 84 84 56
Width: 600
GlyphClass: 2
Flags: W
HStem: -1 19<153 219.441 392.453 460> 605 21<114.925 255 358 506.117>
VStem: 35 19<443 498.692> 254 105<37.8752 605> 558 20<443 516.781>
LayerCount: 2
Fore
SplineSet
232 37 m 0,0,1
 254 65 254 65 254 94 c 2,2,-1
 255 605 l 1,3,4
 151 606 151 606 150 606 c 0,5,6
 126 606 126 606 107 588 c 128,-1,7
 88 570 88 570 78 543.5 c 128,-1,8
 68 517 68 517 61.5 491.5 c 128,-1,9
 55 466 55 466 54 443 c 1,10,-1
 35 443 l 1,11,-1
 39 629 l 1,12,13
 151 626 151 626 324 626 c 0,14,15
 487 626 487 626 575 629 c 1,16,-1
 578 443 l 1,17,-1
 558 443 l 1,18,19
 549 603 549 603 475 604 c 2,20,-1
 358 605 l 1,21,-1
 359 94 l 2,22,23
 359 59 359 59 378 37 c 0,24,25
 393 19 393 19 460 18 c 1,26,-1
 460 -1 l 1,27,-1
 153 -1 l 1,28,-1
 153 18 l 1,29,30
 155 18 155 18 159 18 c 128,-1,31
 163 18 163 18 165 18 c 0,32,33
 218 19 218 19 232 37 c 0,0,1
EndSplineSet
EndChar

StartChar: U
Encoding: 85 85 57
Width: 762
GlyphClass: 2
Flags: W
HStem: -19 29<328.051 479.494> 611 15<52 93 296.316 317 493 534 690.298 712>
VStem: 131 109<113.891 595.841> 581 43<114.526 591.896>
LayerCount: 2
Fore
SplineSet
240 218 m 2,0,1
 240 164 240 164 250.5 124.5 c 128,-1,2
 261 85 261 85 277 63.5 c 128,-1,3
 293 42 293 42 317.5 29.5 c 128,-1,4
 342 17 342 17 363 13.5 c 128,-1,5
 384 10 384 10 412 10 c 0,6,7
 451 10 451 10 479.5 20 c 128,-1,8
 508 30 508 30 532 53 c 128,-1,9
 556 76 556 76 568.5 119.5 c 128,-1,10
 581 163 581 163 581 227 c 0,11,12
 581 238 581 238 581 254.5 c 128,-1,13
 581 271 581 271 581 299 c 0,14,15
 581 437 581 437 577 585 c 1,16,17
 575 596 575 596 534 604 c 2,18,-1
 493 611 l 1,19,-1
 493 626 l 1,20,21
 540 622 540 622 602 622 c 0,22,23
 668 622 668 622 712 626 c 1,24,-1
 712 606 l 1,25,26
 665 603 665 603 624 583 c 1,27,28
 621 520 621 520 621 430 c 1,29,-1
 624 239 l 1,30,31
 624 118 624 118 566 51.5 c 128,-1,32
 508 -15 508 -15 394 -19 c 1,33,34
 359 -19 359 -19 325 -12.5 c 128,-1,35
 291 -6 291 -6 255 11 c 128,-1,36
 219 28 219 28 192.5 54.5 c 128,-1,37
 166 81 166 81 148.5 124.5 c 128,-1,38
 131 168 131 168 131 223 c 0,39,40
 131 226 131 226 132.5 255.5 c 128,-1,41
 134 285 134 285 136 340 c 128,-1,42
 138 395 138 395 138 462 c 0,43,44
 138 523 138 523 136 585 c 1,45,46
 134 596 134 596 93 604 c 2,47,-1
 52 611 l 1,48,-1
 52 626 l 1,49,50
 99 622 99 622 183 622 c 0,51,52
 273 622 273 622 317 626 c 1,53,-1
 317 606 l 1,54,55
 258 601 258 601 240 583 c 1,56,57
 239 517 239 517 239 423 c 2,58,-1
 240 218 l 2,0,1
EndSplineSet
EndChar

StartChar: V
Encoding: 86 86 58
Width: 700
GlyphClass: 2
Flags: W
HStem: 611 15<0 26.8618 267.68 291 492 518.88 677.066 700>
LayerCount: 2
Fore
SplineSet
208 551 m 1,0,1
 293 340 293 340 390 124 c 1,2,3
 572 547 572 547 572 573 c 0,4,5
 572 587 572 587 552 595 c 1,6,-1
 492 611 l 1,7,-1
 492 626 l 1,8,9
 539 622 539 622 597 622 c 0,10,11
 656 622 656 622 700 626 c 1,12,-1
 700 606 l 1,13,14
 659 604 659 604 634 589 c 0,15,16
 625 583 625 583 609 559 c 2,17,-1
 594 536 l 1,18,19
 567 457 567 457 489 269.5 c 128,-1,20
 411 82 411 82 380 -14 c 1,21,-1
 340 -15 l 1,22,23
 290 107 290 107 212.5 283.5 c 128,-1,24
 135 460 135 460 116 508 c 0,25,26
 89 576 89 576 56 592 c 0,27,28
 31 604 31 604 0 611 c 1,29,-1
 0 626 l 1,30,31
 47 622 47 622 143 622 c 0,32,33
 246 622 246 622 291 626 c 1,34,-1
 291 606 l 1,35,36
 223 600 223 600 217 589 c 0,37,38
 212 579 212 579 210 565 c 2,39,-1
 208 551 l 1,0,1
EndSplineSet
EndChar

StartChar: W
Encoding: 87 87 59
Width: 1013
GlyphClass: 2
Flags: W
HStem: 611 15<24 50.8618 318.418 335 807 830.893 1008.44 1016> 616 20G<533.846 566>
LayerCount: 2
Fore
SplineSet
367 -11 m 1,0,-1
 328 -11 l 1,1,2
 139 509 l 0,3,4
 114 575 114 575 80 592 c 0,5,6
 55 604 55 604 24 611 c 1,7,-1
 24 626 l 1,8,9
 71 622 71 622 176 622 c 0,10,11
 291 622 291 622 335 626 c 1,12,-1
 335 606 l 1,13,14
 322 605 322 605 289 597 c 128,-1,15
 256 589 256 589 253 583 c 0,16,17
 248 572 248 572 248 552 c 0,18,19
 248 524 248 524 258 494 c 0,20,21
 277 439 277 439 300 377.5 c 128,-1,22
 323 316 323 316 348.5 250.5 c 128,-1,23
 374 185 374 185 384 158 c 1,24,25
 432 289 432 289 504 519 c 2,26,-1
 540 636 l 1,27,-1
 566 635 l 1,28,29
 583 568 583 568 656 384.5 c 128,-1,30
 729 201 729 201 751 138 c 1,31,32
 758 161 758 161 796 272.5 c 128,-1,33
 834 384 834 384 861 470 c 128,-1,34
 888 556 888 556 888 571 c 0,35,36
 888 585 888 585 867 593 c 1,37,-1
 807 609 l 1,38,-1
 807 624 l 1,39,40
 854 620 854 620 912 620 c 0,41,42
 971 620 971 620 1016 624 c 1,43,-1
 1016 604 l 1,44,45
 975 602 975 602 949 587 c 0,46,47
 940 581 940 581 925 557 c 2,48,-1
 909 534 l 1,49,50
 889 471 889 471 852.5 361 c 128,-1,51
 816 251 816 251 787.5 161 c 128,-1,52
 759 71 759 71 735 -11 c 1,53,-1
 701 -11 l 1,54,55
 681 51 681 51 649.5 129.5 c 128,-1,56
 618 208 618 208 577 302.5 c 128,-1,57
 536 397 536 397 519 438 c 1,58,59
 508 402 508 402 448.5 234 c 128,-1,60
 389 66 389 66 367 -11 c 1,0,-1
EndSplineSet
EndChar

StartChar: X
Encoding: 88 88 60
Width: 735
GlyphClass: 2
Flags: W
HStem: -6 19<48 97.2852 246.16 257 419 473.905 655.883 710> 611 15<38 87.6289 318.23 339 468 494.88 653.978 677>
LayerCount: 2
Fore
SplineSet
565 545 m 1,0,-1
 417 337 l 1,1,2
 481 240 l 0,3,4
 544 143 544 143 588 82 c 0,5,6
 622 35 622 35 637 29 c 0,7,8
 662 19 662 19 710 8 c 1,9,-1
 710 -6 l 1,10,11
 663 -2 663 -2 566 -2 c 0,12,13
 463 -2 463 -2 419 -6 c 1,14,-1
 419 13 l 1,15,16
 478 18 478 18 483 29 c 0,17,18
 486 35 486 35 486 44 c 0,19,20
 486 60 486 60 481 69 c 0,21,22
 448 121 448 121 394.5 200.5 c 128,-1,23
 341 280 341 280 341 279 c 0,24,25
 304 229 304 229 273 185.5 c 128,-1,26
 242 142 242 142 226 120.5 c 128,-1,27
 210 99 210 99 198 83.5 c 128,-1,28
 186 68 186 68 182.5 62.5 c 128,-1,29
 179 57 179 57 178 54.5 c 128,-1,30
 177 52 177 52 177 50 c 0,31,32
 177 31 177 31 197 25 c 2,33,-1
 257 8 l 1,34,-1
 257 -6 l 1,35,36
 210 -2 210 -2 152 -2 c 0,37,38
 93 -2 93 -2 48 -6 c 1,39,-1
 48 13 l 1,40,41
 89 15 89 15 115 31 c 0,42,43
 124 37 124 37 141 55 c 2,44,-1
 160 75 l 1,45,-1
 329 299 l 1,46,-1
 162 549 l 1,47,48
 146 571 146 571 102 598 c 0,49,50
 96 602 96 602 83 604.5 c 128,-1,51
 70 607 70 607 55 609 c 128,-1,52
 40 611 40 611 38 611 c 1,53,-1
 38 626 l 1,54,55
 85 622 85 622 186 622 c 0,56,57
 295 622 295 622 339 626 c 1,58,-1
 339 606 l 1,59,60
 283 601 283 601 275 589 c 0,61,62
 272 582 272 582 272 573 c 256,63,64
 272 565 272 565 274 558 c 2,65,-1
 276 551 l 1,66,-1
 396 355 l 1,67,68
 510 511 510 511 529 537.5 c 128,-1,69
 548 564 548 564 548 569 c 0,70,71
 548 588 548 588 528 595 c 2,72,-1
 468 611 l 1,73,-1
 468 626 l 1,74,75
 515 622 515 622 573 622 c 0,76,77
 632 622 632 622 677 626 c 1,78,-1
 677 606 l 1,79,80
 636 604 636 604 610 589 c 0,81,82
 601 583 601 583 584 563 c 1,83,-1
 565 545 l 1,0,-1
EndSplineSet
EndChar

StartChar: Y
Encoding: 89 89 61
Width: 645
GlyphClass: 2
Flags: W
HStem: -9 16<195 267.164 410.945 467> 611 15<13 40.5627 273.23 294 423 449.88 608.978 632>
VStem: 281 104<15.9844 296.297>
LayerCount: 2
Fore
SplineSet
286 247 m 1,0,1
 218 406 218 406 115 549 c 0,2,3
 92 581 92 581 70 592 c 0,4,5
 45 604 45 604 13 611 c 1,6,-1
 13 626 l 1,7,8
 60 622 60 622 152 622 c 0,9,10
 250 622 250 622 294 626 c 1,11,-1
 294 606 l 1,12,13
 238 601 238 601 230 589 c 0,14,15
 225 579 225 579 223 565 c 2,16,-1
 221 553 l 1,17,18
 289 421 289 421 360 301 c 1,19,20
 505 560 505 560 506 574 c 256,21,22
 506 588 506 588 483 595 c 2,23,-1
 423 611 l 1,24,-1
 423 626 l 1,25,26
 470 622 470 622 528 622 c 0,27,28
 587 622 587 622 632 626 c 1,29,-1
 632 606 l 1,30,31
 591 604 591 604 565 589 c 0,32,33
 556 583 556 583 541 567 c 1,34,-1
 526 551 l 1,35,36
 408 347 408 347 381 289 c 1,37,38
 381 251 381 251 385 35 c 0,39,40
 385 10 385 10 467 10 c 1,41,-1
 467 -9 l 1,42,-1
 195 -9 l 1,43,-1
 195 7 l 1,44,45
 198 7 198 7 206 7 c 0,46,47
 280 7 280 7 281 30 c 0,48,49
 283 147 283 147 286 247 c 1,0,1
EndSplineSet
EndChar

StartChar: Z
Encoding: 90 90 62
Width: 600
GlyphClass: 2
Flags: W
HStem: -7 13<209.33 399.832> 603 20<153.017 424>
VStem: 76 19<484 520.952> 537 22<112.808 152>
LayerCount: 2
Fore
SplineSet
51 7 m 1,0,1
 257 314 257 314 424 607 c 1,2,-1
 188 603 l 2,3,4
 169 603 169 603 153.5 593.5 c 128,-1,5
 138 584 138 584 129 572.5 c 128,-1,6
 120 561 120 561 112 541 c 128,-1,7
 104 521 104 521 101.5 511.5 c 128,-1,8
 99 502 99 502 95 484 c 1,9,-1
 76 484 l 1,10,-1
 79 629 l 1,11,12
 171 623 171 623 286 623 c 0,13,14
 376 623 376 623 548 629 c 1,15,-1
 548 607 l 1,16,-1
 248 111 l 1,17,18
 209 42 209 42 209 16 c 0,19,20
 209 6 209 6 217 6 c 0,21,22
 395 6 395 6 442 12 c 0,23,24
 468 15 468 15 499.5 62.5 c 128,-1,25
 531 110 531 110 537 152 c 1,26,-1
 559 152 l 1,27,-1
 536 -9 l 1,28,29
 421 -7 421 -7 309 -7 c 0,30,31
 242 -7 242 -7 51 -9 c 1,32,-1
 51 7 l 1,0,1
EndSplineSet
EndChar

StartChar: bracketleft
Encoding: 91 91 63
Width: 282
GlyphClass: 2
Flags: W
HStem: -131 27<166 262> 662 22<166 262>
VStem: 103 63<-104 662>
LayerCount: 2
Fore
SplineSet
103 684 m 1,0,-1
 262 684 l 1,1,-1
 262 662 l 1,2,-1
 166 662 l 1,3,-1
 166 -104 l 1,4,-1
 262 -104 l 1,5,-1
 262 -131 l 1,6,-1
 103 -131 l 1,7,-1
 103 684 l 1,0,-1
EndSplineSet
EndChar

StartChar: backslash
Encoding: 92 92 64
Width: 309
GlyphClass: 2
Flags: W
VStem: 13 283
LayerCount: 2
Fore
SplineSet
67 726 m 1,0,-1
 296 -131 l 1,1,-1
 243 -145 l 1,2,-1
 13 712 l 1,3,-1
 67 726 l 1,0,-1
EndSplineSet
EndChar

StartChar: bracketright
Encoding: 93 93 65
Width: 282
GlyphClass: 2
Flags: W
HStem: -131 27<32 128> 662 22<32 128>
VStem: 128 62<-104 662>
LayerCount: 2
Fore
SplineSet
190 684 m 1,0,-1
 190 -131 l 1,1,-1
 32 -131 l 1,2,-1
 32 -104 l 1,3,-1
 128 -104 l 1,4,-1
 128 662 l 1,5,-1
 32 662 l 1,6,-1
 32 684 l 1,7,-1
 190 684 l 1,0,-1
EndSplineSet
EndChar

StartChar: asciicircum
Encoding: 94 94 66
Width: 421
GlyphClass: 2
Flags: W
HStem: 444 160
VStem: 72 261
LayerCount: 2
Fore
SplineSet
72 453 m 1,0,-1
 210 604 l 1,1,-1
 333 456 l 1,2,-1
 319 444 l 1,3,-1
 207 548 l 1,4,-1
 86 444 l 1,5,-1
 72 453 l 1,0,-1
EndSplineSet
EndChar

StartChar: underscore
Encoding: 95 95 67
Width: 531
GlyphClass: 2
Flags: W
HStem: -69 50<45 479>
LayerCount: 2
Fore
SplineSet
45 -19 m 1,0,-1
 479 -19 l 1,1,-1
 479 -69 l 1,2,-1
 45 -69 l 1,3,-1
 45 -19 l 1,0,-1
EndSplineSet
EndChar

StartChar: grave
Encoding: 96 96 68
Width: 421
GlyphClass: 2
Flags: W
HStem: 462 159
VStem: 101 186
LayerCount: 2
Fore
SplineSet
101 587 m 1,0,-1
 130 621 l 1,1,-1
 287 477 l 1,2,-1
 264 462 l 1,3,-1
 101 587 l 1,0,-1
EndSplineSet
EndChar

StartChar: a
Encoding: 97 97 69
Width: 467
GlyphClass: 2
Flags: W
HStem: -9 45<157.7 238.27> -7 33<386.75 431.227> 205.5 14<195.218 297> 395 19<170.774 258.526>
VStem: 51 86<55.9403 170.063> 70 102<268.863 349.5> 300 83<67.2798 212 226.018 345.923> 453 15<57.2502 78.3008>
LayerCount: 2
Fore
SplineSet
453 83 m 1,0,-1
 468 74 l 1,1,2
 455 -7 455 -7 372 -7 c 0,3,4
 338 -7 338 -7 321 15.5 c 128,-1,5
 304 38 304 38 301 69 c 1,6,7
 281 46 281 46 270.5 36 c 128,-1,8
 260 26 260 26 231 8.5 c 128,-1,9
 202 -9 202 -9 173 -9 c 0,10,11
 123 -9 123 -9 87 19 c 128,-1,12
 51 47 51 47 51 108 c 0,13,14
 51 135 51 135 62.5 155 c 128,-1,15
 74 175 74 175 94.5 187.5 c 128,-1,16
 115 200 115 200 136 208 c 128,-1,17
 157 216 157 216 185 219.5 c 128,-1,18
 213 223 213 223 231.5 224 c 128,-1,19
 250 225 250 225 272.5 225.5 c 128,-1,20
 295 226 295 226 297 226 c 0,21,22
 300 226 300 226 300 300 c 0,23,24
 300 395 300 395 213 395 c 0,25,26
 183 395 183 395 165 382 c 128,-1,27
 147 369 147 369 143 351 c 1,28,29
 172 351 172 351 172 307 c 0,30,31
 172 280 172 280 154 268.5 c 128,-1,32
 136 257 136 257 119 257 c 0,33,34
 100 257 100 257 85 274.5 c 128,-1,35
 70 292 70 292 70 313 c 0,36,37
 70 350 70 350 117 385 c 0,38,39
 155 414 155 414 222 414 c 0,40,41
 285 414 285 414 334 375 c 128,-1,42
 383 336 383 336 383 269 c 0,43,44
 383 236 383 236 381 177 c 128,-1,45
 379 118 379 118 379 92 c 0,46,47
 379 25 379 25 410 26 c 0,48,49
 428 26 428 26 437 39 c 128,-1,50
 446 52 446 52 453 83 c 1,0,-1
297 94 m 1,51,-1
 297 212 l 1,52,53
 262 209 262 209 232.5 205.5 c 128,-1,54
 203 202 203 202 182 194.5 c 128,-1,55
 161 187 161 187 149 169 c 128,-1,56
 137 151 137 151 137 119 c 0,57,58
 137 76 137 76 158.5 56 c 128,-1,59
 180 36 180 36 213 36 c 0,60,61
 265 36 265 36 297 94 c 1,51,-1
EndSplineSet
EndChar

StartChar: b
Encoding: 98 98 70
Width: 522
GlyphClass: 2
Flags: W
HStem: -10 37<242.125 336.33> 382 31<255.956 343.422> 617 13<31 79.75>
VStem: 106 81<86 247.432 328 610.075> 397 95<99.5659 320.564>
LayerCount: 2
Fore
SplineSet
492 205 m 0,0,1
 492 109 492 109 434.5 49.5 c 128,-1,2
 377 -10 377 -10 305 -10 c 0,3,4
 244 -10 244 -10 176 63 c 1,5,6
 163 49 163 49 149 23 c 128,-1,7
 135 -3 135 -3 132 -7 c 1,8,9
 124 -8 124 -8 117 -8 c 2,10,-1
 103 -7 l 1,11,12
 106 125 106 125 106 312 c 0,13,14
 106 486 106 486 103 596 c 0,15,16
 103 613 103 613 31 617 c 1,17,-1
 31 630 l 1,18,19
 135 635 135 635 187 659 c 1,20,-1
 183 328 l 1,21,22
 202 355 202 355 215.5 369 c 128,-1,23
 229 383 229 383 256.5 398 c 128,-1,24
 284 413 284 413 315 413 c 0,25,26
 392 413 392 413 442 361.5 c 128,-1,27
 492 310 492 310 492 205 c 0,0,1
397 208 m 0,28,29
 397 239 397 239 392.5 266 c 128,-1,30
 388 293 388 293 378 320.5 c 128,-1,31
 368 348 368 348 346 365 c 128,-1,32
 324 382 324 382 293 382 c 0,33,34
 266 382 266 382 241.5 362 c 128,-1,35
 217 342 217 342 206 323 c 2,36,-1
 195 303 l 1,37,-1
 187 211 l 1,38,-1
 190 86 l 1,39,-1
 199 72 l 2,40,41
 207 57 207 57 230 42 c 128,-1,42
 253 27 253 27 284 27 c 0,43,44
 334 27 334 27 365.5 78 c 128,-1,45
 397 129 397 129 397 208 c 0,28,29
EndSplineSet
EndChar

StartChar: c
Encoding: 99 99 71
Width: 434
GlyphClass: 2
Flags: W
HStem: -15 33<212.57 328.315> 220 107<305.545 372.5> 397 18<220.896 309.546>
VStem: 51 90<94.4668 307.35> 297 116<240.63 312.475>
LayerCount: 2
Fore
SplineSet
257 415 m 0,0,1
 314 415 314 415 363.5 381.5 c 128,-1,2
 413 348 413 348 413 299 c 0,3,4
 413 260 413 260 393 240 c 128,-1,5
 373 220 373 220 353 220 c 0,6,7
 297 220 297 220 297 274 c 0,8,9
 297 296 297 296 310 311.5 c 128,-1,10
 323 327 323 327 339 327 c 0,11,12
 357 327 357 327 373 313 c 1,13,14
 353 397 353 397 255 397 c 0,15,16
 207 397 207 397 174 338 c 128,-1,17
 141 279 141 279 141 190 c 0,18,19
 141 123 141 123 176.5 70.5 c 128,-1,20
 212 18 212 18 264 18 c 0,21,22
 296 18 296 18 319 28 c 128,-1,23
 342 38 342 38 356 58.5 c 128,-1,24
 370 79 370 79 374 88 c 128,-1,25
 378 97 378 97 386 118 c 1,26,-1
 414 98 l 1,27,28
 399 59 399 59 358.5 22 c 128,-1,29
 318 -15 318 -15 255 -15 c 0,30,31
 161 -15 161 -15 106 42 c 128,-1,32
 51 99 51 99 51 210 c 0,33,34
 51 264 51 264 72 305.5 c 128,-1,35
 93 347 93 347 126 369.5 c 128,-1,36
 159 392 159 392 192 403.5 c 128,-1,37
 225 415 225 415 257 415 c 0,0,1
EndSplineSet
EndChar

StartChar: d
Encoding: 100 100 72
Width: 501
GlyphClass: 2
Flags: W
HStem: -6 33<212.824 301.238> 0 12<463.051 502> 390 22<220.684 305.608> 620 17<293 349.42> 636 20G<422.5 447.5>
VStem: 61 102<89.5179 299.257> 364 80<81.183 223 350 614.888>
LayerCount: 2
Fore
SplineSet
450 656 m 1,0,1
 445 487 445 487 444 265 c 0,2,3
 444 113 444 113 447 33 c 0,4,5
 447 26 447 26 455 21.5 c 128,-1,6
 463 17 463 17 471 15.5 c 128,-1,7
 479 14 479 14 489.5 13 c 128,-1,8
 500 12 500 12 502 12 c 1,9,-1
 502 0 l 1,10,11
 398 -4 398 -4 374 -10 c 1,12,-1
 366 63 l 1,13,14
 344 35 344 35 309 14.5 c 128,-1,15
 274 -6 274 -6 239 -6 c 0,16,17
 160 -6 160 -6 110.5 49.5 c 128,-1,18
 61 105 61 105 61 195 c 0,19,20
 61 290 61 290 117 351 c 128,-1,21
 173 412 173 412 260 412 c 0,22,23
 287 412 287 412 309 402 c 128,-1,24
 331 392 331 392 341.5 381 c 128,-1,25
 352 370 352 370 358 360 c 1,26,-1
 364 350 l 1,27,-1
 364 599 l 1,28,29
 360 619 360 619 292 620 c 1,30,-1
 293 637 l 1,31,32
 395 637 395 637 450 656 c 1,0,1
357 131 m 1,33,-1
 364 223 l 1,34,-1
 359 313 l 1,35,-1
 354 326 l 1,36,37
 348 337 348 337 338 352 c 128,-1,38
 328 367 328 367 307 378.5 c 128,-1,39
 286 390 286 390 261 390 c 0,40,41
 163 390 163 390 163 204 c 0,42,43
 163 27 163 27 264 27 c 0,44,45
 300 27 300 27 328.5 62.5 c 128,-1,46
 357 98 357 98 357 131 c 1,33,-1
EndSplineSet
EndChar

StartChar: e
Encoding: 101 101 73
Width: 450
GlyphClass: 2
Flags: W
HStem: -17 24<212.844 312.832> 217 15<151 331> 388 19<202.681 277.406>
VStem: 51 99<82.5 217 232 298.98> 332 89<233.21 333.877>
LayerCount: 2
Fore
SplineSet
151 232 m 1,0,-1
 331 233 l 1,1,2
 332 250 332 250 332 265 c 0,3,4
 332 296 332 296 327 315 c 0,5,6
 319 347 319 347 294.5 367.5 c 128,-1,7
 270 388 270 388 234 388 c 0,8,9
 197 388 197 388 176 346 c 128,-1,10
 155 304 155 304 151 232 c 1,0,-1
150 217 m 1,11,-1
 150 195 l 2,12,13
 150 123 150 123 176.5 65 c 128,-1,14
 203 7 203 7 253 7 c 0,15,16
 311 7 311 7 345 41 c 128,-1,17
 379 75 379 75 392 112 c 1,18,-1
 420 92 l 1,19,20
 405 54 405 54 362 18.5 c 128,-1,21
 319 -17 319 -17 249 -17 c 0,22,23
 164 -17 164 -17 107.5 36 c 128,-1,24
 51 89 51 89 51 190 c 0,25,26
 51 249 51 249 70.5 293.5 c 128,-1,27
 90 338 90 338 122.5 361.5 c 128,-1,28
 155 385 155 385 188 396 c 128,-1,29
 221 407 221 407 256 407 c 0,30,31
 310 407 310 407 356.5 378 c 128,-1,32
 403 349 403 349 417 284 c 0,33,34
 421 264 421 264 421 244 c 0,35,36
 421 233 421 233 420 218 c 1,37,-1
 150 217 l 1,11,-1
EndSplineSet
EndChar

StartChar: f
Encoding: 102 102 74
Width: 389
GlyphClass: 2
Flags: W
HStem: 0 18<75 145.206 264.867 333> 378 22<81 165 248 343> 655 16<300.661 382.848>
VStem: 165 83<25.8438 378 400 567.012> 415 66<609 629.635>
LayerCount: 2
Fore
SplineSet
333 0 m 1,0,1
 274 4 274 4 199 4 c 128,-1,2
 124 4 124 4 75 0 c 1,3,-1
 75 18 l 1,4,5
 160 18 160 18 161 44 c 2,6,-1
 165 378 l 1,7,-1
 81 378 l 1,8,-1
 81 400 l 1,9,-1
 165 400 l 1,10,11
 165 411 165 411 165 422 c 0,12,13
 165 671 165 671 339 671 c 0,14,15
 385 671 385 671 433 647 c 128,-1,16
 481 623 481 623 481 584 c 0,17,18
 481 558 481 558 467 536.5 c 128,-1,19
 453 515 453 515 424 515 c 0,20,21
 404 515 404 515 391 530.5 c 128,-1,22
 378 546 378 546 378 563 c 0,23,24
 378 576 378 576 387 588 c 128,-1,25
 396 600 396 600 406 604 c 2,26,-1
 415 609 l 1,27,28
 414 634 414 634 390 644.5 c 128,-1,29
 366 655 366 655 336 655 c 0,30,31
 292 655 292 655 269 621 c 0,32,33
 245 584 245 584 246 495 c 0,34,35
 246 453 246 453 247 434 c 128,-1,36
 248 415 248 415 248 400 c 1,37,-1
 343 400 l 1,38,-1
 343 378 l 1,39,-1
 248 378 l 1,40,-1
 254 44 l 2,41,42
 255 31 255 31 270 24 c 128,-1,43
 285 17 285 17 303 17 c 0,44,45
 313 17 313 17 333 18 c 1,46,-1
 333 0 l 1,0,1
EndSplineSet
EndChar

StartChar: g
Encoding: 103 103 75
Width: 477
GlyphClass: 2
Flags: W
HStem: -234 17<172.25 284.265> -23 79<118.75 157 185 332.883> 112 17<205.999 272.864> 376 41<371.25 448.5> 387 17<207.973 267.701>
VStem: 41 72<-181.289 -74.959> 66 50<38 107.456> 73 79<187.255 332.409> 325 74<184.173 341.686> 368 66<-148.479 -54.271>
LayerCount: 2
Fore
SplineSet
442 338 m 0,0,1
 430 338 430 338 414.5 357 c 128,-1,2
 399 376 399 376 395 376 c 0,3,4
 370 376 370 376 357 360 c 1,5,-1
 369 351 l 2,6,7
 379 342 379 342 389 318 c 128,-1,8
 399 294 399 294 399 263 c 0,9,10
 399 193 399 193 347.5 152.5 c 128,-1,11
 296 112 296 112 240 112 c 0,12,13
 213 112 213 112 185 121 c 2,14,-1
 158 129 l 1,15,-1
 147 125 l 2,16,17
 137 120 137 120 127 109.5 c 128,-1,18
 117 99 117 99 116 89 c 1,19,20
 117 56 117 56 181 56 c 0,21,22
 269 56 269 56 305 49 c 0,23,24
 368 38 368 38 401 13 c 128,-1,25
 434 -12 434 -12 434 -72 c 0,26,27
 434 -147 434 -147 368.5 -190.5 c 128,-1,28
 303 -234 303 -234 205 -234 c 0,29,30
 122 -234 122 -234 81.5 -203 c 128,-1,31
 41 -172 41 -172 41 -128 c 0,32,33
 41 -92 41 -92 70.5 -68 c 128,-1,34
 100 -44 100 -44 157 -23 c 1,35,36
 156 -23 156 -23 152 -23 c 128,-1,37
 148 -23 148 -23 147 -23 c 0,38,39
 118 -23 118 -23 92 -2 c 128,-1,40
 66 19 66 19 66 57 c 0,41,42
 66 77 66 77 79 95.5 c 128,-1,43
 92 114 92 114 104.5 121.5 c 128,-1,44
 117 129 117 129 137 139 c 1,45,46
 133 142 133 142 122.5 154.5 c 128,-1,47
 112 167 112 167 100.5 180.5 c 128,-1,48
 89 194 89 194 81 216 c 128,-1,49
 73 238 73 238 73 260 c 0,50,51
 73 316 73 316 118 360 c 128,-1,52
 163 404 163 404 231 404 c 0,53,54
 264 404 264 404 292.5 397 c 128,-1,55
 321 390 321 390 333 383 c 2,56,-1
 345 376 l 1,57,58
 391 417 391 417 425 417 c 0,59,60
 472 417 472 417 472 379 c 0,61,62
 472 338 472 338 442 338 c 0,0,1
325 261 m 0,63,64
 325 320 325 320 297 353.5 c 128,-1,65
 269 387 269 387 236 387 c 0,66,67
 206 387 206 387 179 351 c 128,-1,68
 152 315 152 315 152 263 c 0,69,70
 152 207 152 207 175.5 168 c 128,-1,71
 199 129 199 129 239 129 c 0,72,73
 276 129 276 129 300.5 161 c 128,-1,74
 325 193 325 193 325 261 c 0,63,64
368 -118 m 0,75,76
 368 -61 368 -61 329.5 -43 c 128,-1,77
 291 -25 291 -25 185 -25 c 1,78,-1
 168 -33 l 1,79,80
 150 -40 150 -40 131.5 -64 c 128,-1,81
 113 -88 113 -88 113 -121 c 0,82,83
 113 -157 113 -157 140 -187 c 128,-1,84
 167 -217 167 -217 222 -217 c 0,85,86
 292 -217 292 -217 330 -187.5 c 128,-1,87
 368 -158 368 -158 368 -118 c 0,75,76
EndSplineSet
EndChar

StartChar: h
Encoding: 104 104 76
Width: 563
GlyphClass: 2
Flags: W
HStem: 0 16<61 108.626 213.572 274 328 382.681 486.498 543> 368 38<273.338 371.727> 618 17<61 90.5> 637 20G<175 206.886>
VStem: 125 80<22.1882 611.013> 393 82<20.3145 338.082>
LayerCount: 2
Fore
SplineSet
61 635 m 1,0,-1
 62 635 l 2,1,2
 143 635 143 635 207 657 c 1,3,-1
 205 307 l 1,4,5
 220 332 220 332 228.5 342 c 128,-1,6
 237 352 237 352 254 370.5 c 128,-1,7
 271 389 271 389 292.5 397.5 c 128,-1,8
 314 406 314 406 342 406 c 0,9,10
 378 406 378 406 406 389 c 128,-1,11
 434 372 434 372 448 347 c 128,-1,12
 462 322 462 322 468.5 298.5 c 128,-1,13
 475 275 475 275 475 258 c 0,14,15
 475 228 475 228 475 155.5 c 128,-1,16
 475 83 475 83 475 61 c 0,17,18
 475 38 475 38 475 37 c 0,19,20
 475 28 475 28 489 23 c 128,-1,21
 503 18 503 18 511.5 17.5 c 128,-1,22
 520 17 520 17 543 16 c 1,23,-1
 543 0 l 1,24,25
 501 4 501 4 435 4 c 0,26,27
 366 4 366 4 328 0 c 1,28,-1
 328 16 l 1,29,30
 334 17 334 17 342.5 17 c 128,-1,31
 351 17 351 17 360 18 c 128,-1,32
 369 19 369 19 376.5 21.5 c 128,-1,33
 384 24 384 24 388.5 27.5 c 128,-1,34
 393 31 393 31 393 36 c 0,35,36
 393 37 l 1,37,-1
 393 275 l 2,38,39
 393 367 393 367 325 368 c 0,40,41
 284 368 284 368 260.5 348.5 c 128,-1,42
 237 329 237 329 205 282 c 1,43,-1
 205 37 l 2,44,45
 205 27 205 27 217.5 22 c 128,-1,46
 230 17 230 17 245.5 17 c 128,-1,47
 261 17 261 17 274 16 c 1,48,-1
 274 0 l 1,49,50
 229 4 229 4 163 4 c 0,51,52
 100 4 100 4 61 0 c 1,53,-1
 61 16 l 1,54,55
 79 16 79 16 102 22 c 128,-1,56
 125 28 125 28 125 37 c 0,57,58
 125 74 125 74 126.5 192 c 128,-1,59
 128 310 128 310 128 378 c 0,60,61
 128 521 128 521 125 598 c 1,62,63
 118 605 118 605 108 609 c 128,-1,64
 98 613 98 613 90.5 614 c 128,-1,65
 83 615 83 615 61 618 c 1,66,-1
 61 635 l 1,0,-1
EndSplineSet
EndChar

StartChar: i
Encoding: 105 105 77
Width: 313
GlyphClass: 2
Flags: W
HStem: 0 16<71 121.324 227.482 284> 383 16<71 126.294> 524 117<128.881 212.951>
VStem: 115 116<542.049 626.977> 134 80<21.1123 378.896>
LayerCount: 2
Fore
SplineSet
170 641 m 0,0,1
 193 641 193 641 212 624.5 c 128,-1,2
 231 608 231 608 231 586 c 0,3,4
 231 559 231 559 213.5 541.5 c 128,-1,5
 196 524 196 524 170 524 c 0,6,7
 151 524 151 524 133 540 c 128,-1,8
 115 556 115 556 115 580 c 0,9,10
 115 605 115 605 132.5 623 c 128,-1,11
 150 641 150 641 170 641 c 0,0,1
216 422 m 1,12,13
 214 249 214 249 214 37 c 1,14,15
 218 17 218 17 284 16 c 1,16,-1
 284 0 l 1,17,18
 243 3 243 3 175 3 c 0,19,20
 110 3 110 3 71 0 c 1,21,-1
 71 16 l 1,22,23
 131 18 131 18 134 37 c 1,24,-1
 134 373 l 1,25,26
 103 383 103 383 71 383 c 1,27,-1
 71 399 l 1,28,29
 161 404 161 404 216 422 c 1,12,13
EndSplineSet
EndChar

StartChar: j
Encoding: 106 106 78
Width: 317
GlyphClass: 2
Flags: W
HStem: -209 30<40.9898 119.976> 383 16<78 134.265> 522 119<143.05 226.997>
VStem: -32 100<-151.036 -81.0831> 125 119<538.504 625.997> 141 80<-111.976 379.045>
LayerCount: 2
Fore
SplineSet
223 422 m 1,0,1
 221 249 221 249 221 -14 c 0,2,3
 221 -98 221 -98 169.5 -153.5 c 128,-1,4
 118 -209 118 -209 68 -209 c 0,5,6
 35 -209 35 -209 1.5 -189 c 128,-1,7
 -32 -169 -32 -169 -32 -138 c 0,8,9
 -32 -99 -32 -99 -15.5 -80.5 c 128,-1,10
 1 -62 1 -62 25 -62 c 0,11,12
 43 -62 43 -62 55.5 -76 c 128,-1,13
 68 -90 68 -90 68 -108 c 0,14,15
 68 -147 68 -147 36 -155 c 1,16,17
 39 -166 39 -166 52.5 -172.5 c 128,-1,18
 66 -179 66 -179 79 -179 c 0,19,20
 119 -179 119 -179 134 -151 c 0,21,22
 141 -138 141 -138 141 -14 c 2,23,-1
 141 373 l 1,24,25
 131 377 131 377 122 378.5 c 128,-1,26
 113 380 113 380 100 381 c 128,-1,27
 87 382 87 382 78 383 c 1,28,-1
 78 399 l 1,29,30
 127 399 127 399 223 422 c 1,0,1
193 641 m 0,31,32
 212 641 212 641 228 622.5 c 128,-1,33
 244 604 244 604 244 586 c 0,34,35
 244 567 244 567 227 544.5 c 128,-1,36
 210 522 210 522 190 522 c 0,37,38
 160 522 160 522 142.5 538 c 128,-1,39
 125 554 125 554 125 586 c 0,40,41
 125 611 125 611 147 626 c 128,-1,42
 169 641 169 641 193 641 c 0,31,32
EndSplineSet
EndChar

StartChar: k
Encoding: 107 107 79
Width: 533
GlyphClass: 2
Flags: W
HStem: 0 16<31 87.96 203.586 254 459.336 503> 374 21<276 295.03 379.047 444> 629 16<31 82.4062>
VStem: 104 79<23.25 180 206 621.579>
LayerCount: 2
Fore
SplineSet
199 197 m 1,0,-1
 184 180 l 1,1,2
 182 148 182 148 182 102 c 0,3,4
 182 73 182 73 183 52 c 0,5,6
 184 40 184 40 193 32 c 256,7,8
 201 24 201 24 210.5 21 c 128,-1,9
 220 18 220 18 254 16 c 1,10,-1
 254 0 l 1,11,12
 216 3 216 3 150 3 c 0,13,14
 79 3 79 3 31 0 c 1,15,-1
 31 16 l 1,16,17
 104 20 104 20 104 37 c 0,18,19
 107 130 107 130 108 340 c 0,20,21
 108 511 108 511 104 608 c 1,22,23
 92 626 92 626 31 629 c 1,24,-1
 31 645 l 1,25,26
 33 645 33 645 36 645 c 0,27,28
 90 645 90 645 186 668 c 1,29,-1
 183 206 l 1,30,-1
 284 321 l 2,31,32
 298 338 298 338 298 353 c 0,33,34
 298 370 298 370 275 374 c 1,35,36
 275 377 275 377 275.5 384.5 c 128,-1,37
 276 392 276 392 276 395 c 1,38,-1
 444 395 l 1,39,-1
 444 376 l 1,40,41
 361 368 361 368 328 336 c 1,42,-1
 248 238 l 1,43,44
 281 204 281 204 316 163.5 c 128,-1,45
 351 123 351 123 390 83 c 0,46,47
 430 43 430 43 453.5 27.5 c 128,-1,48
 477 12 477 12 498 12 c 0,49,50
 500 12 500 12 503 12 c 1,51,-1
 503 -2 l 1,52,-1
 365 -4 l 1,53,54
 353 19 353 19 321.5 57.5 c 128,-1,55
 290 96 290 96 259 130 c 128,-1,56
 228 164 228 164 199 197 c 1,0,-1
EndSplineSet
EndChar

StartChar: l
Encoding: 108 108 80
Width: 272
GlyphClass: 2
Flags: W
HStem: 0 16<41 94.0469 212.086 262> 618 17<41 87.5> 637 20G<144.5 193>
VStem: 112 78<23.8665 609.387>
LayerCount: 2
Fore
SplineSet
195 657 m 1,0,1
 191 561 191 561 190 441 c 0,2,3
 190 393 190 393 191.5 261.5 c 128,-1,4
 193 130 193 130 193 37 c 1,5,6
 195 27 195 27 220 22 c 128,-1,7
 245 17 245 17 262 16 c 1,8,-1
 262 0 l 1,9,10
 218 5 218 5 157 5 c 0,11,12
 86 5 86 5 41 0 c 1,13,-1
 41 16 l 1,14,15
 107 19 107 19 109 37 c 1,16,17
 112 132 112 132 112 300 c 0,18,19
 112 479 112 479 109 598 c 1,20,21
 84 618 84 618 41 618 c 1,22,-1
 41 635 l 1,23,24
 94 638 94 638 195 657 c 1,0,1
EndSplineSet
EndChar

StartChar: m
Encoding: 109 109 81
Width: 813
GlyphClass: 2
Flags: W
HStem: 0 16<61 117.406 219.167 274 305 357.449 481.396 530 567 615.453 727.377 782> 368 38<270.759 355.454 520.867 614.406> 384 14<61.4373 121.578>
VStem: 125 80<21.4961 313.406> 371 90<23.4209 292> 634 81<23.6737 37 37.0557 343.242>
LayerCount: 2
Fore
SplineSet
327 406 m 0,0,1
 430 406 430 406 453 309 c 1,2,3
 473 341 473 341 487.5 358.5 c 128,-1,4
 502 376 502 376 527 391 c 128,-1,5
 552 406 552 406 583 406 c 0,6,7
 715 406 715 406 715 247 c 2,8,-1
 715 42 l 2,9,10
 715 29 715 29 727 23.5 c 128,-1,11
 739 18 739 18 758.5 17.5 c 128,-1,12
 778 17 778 17 782 16 c 1,13,-1
 782 0 l 1,14,15
 753 3 753 3 689 3 c 0,16,17
 620 3 620 3 567 0 c 1,18,-1
 567 16 l 1,19,20
 633 22 633 22 633 37 c 1,21,22
 634 37 634 37 634 265 c 0,23,24
 634 320 634 320 619 344 c 128,-1,25
 604 368 604 368 565 368 c 0,26,27
 537 368 537 368 511 349 c 128,-1,28
 485 330 485 330 473 311 c 2,29,-1
 461 292 l 1,30,-1
 461 37 l 2,31,32
 461 29 461 29 485 23 c 128,-1,33
 509 17 509 17 530 16 c 1,34,-1
 530 0 l 1,35,36
 488 3 488 3 421 3 c 0,37,38
 348 3 348 3 305 0 c 1,39,-1
 305 16 l 1,40,41
 371 19 371 19 371 37 c 2,42,-1
 371 266 l 2,43,44
 371 322 371 322 359 345 c 128,-1,45
 347 368 347 368 309 368 c 0,46,47
 284 368 284 368 251.5 339.5 c 128,-1,48
 219 311 219 311 205 271 c 1,49,-1
 205 37 l 2,50,51
 205 19 205 19 274 16 c 1,52,-1
 274 0 l 1,53,54
 218 3 218 3 154 3 c 0,55,56
 97 3 97 3 61 0 c 1,57,-1
 61 16 l 1,58,59
 77 15 77 15 101 18.5 c 128,-1,60
 125 22 125 22 125 37 c 0,61,62
 128 170 128 170 128 245 c 0,63,64
 128 328 128 328 125 373 c 0,65,66
 124 384 124 384 88 384 c 0,67,68
 75 384 75 384 61 383 c 1,69,-1
 61 399 l 1,70,71
 72 398 72 398 84 398 c 0,72,73
 146 398 146 398 196 419 c 1,74,-1
 209 312 l 1,75,76
 218 325 218 325 226 338 c 128,-1,77
 234 351 234 351 245 363.5 c 128,-1,78
 256 376 256 376 267.5 385 c 128,-1,79
 279 394 279 394 294.5 400 c 128,-1,80
 310 406 310 406 327 406 c 0,0,1
EndSplineSet
EndChar

StartChar: n
Encoding: 110 110 82
Width: 575
GlyphClass: 2
Flags: W
HStem: 0 16<66 107.496 228.756 279 340 379.425 514.494 555> 368 38<285.849 375.996> 373 16<66 84.6877>
VStem: 129 80<23.8223 306.032> 407 82<25.7522 42 42.0496 338.117>
LayerCount: 2
Fore
SplineSet
66 389 m 1,0,1
 75 388 75 388 85 388 c 0,2,3
 141 388 141 388 203 408 c 1,4,-1
 211 309 l 1,5,6
 274 405 274 405 346 406 c 0,7,8
 380 406 380 406 406.5 395 c 128,-1,9
 433 384 433 384 448 367.5 c 128,-1,10
 463 351 463 351 472.5 329 c 128,-1,11
 482 307 482 307 485.5 287.5 c 128,-1,12
 489 268 489 268 489 248 c 2,13,-1
 489 43 l 2,14,15
 489 33 489 33 513 24.5 c 128,-1,16
 537 16 537 16 555 16 c 1,17,-1
 555 0 l 1,18,19
 454 4 454 4 430 4 c 0,20,21
 379 4 379 4 340 0 c 1,22,-1
 340 16 l 1,23,24
 360 17 360 17 383 25 c 128,-1,25
 406 33 406 33 406 42 c 1,26,27
 407 42 407 42 407 245 c 0,28,29
 407 300 407 300 387.5 334 c 128,-1,30
 368 368 368 368 329 368 c 0,31,32
 297 368 297 368 260 337 c 128,-1,33
 223 306 223 306 209 261 c 1,34,-1
 209 38 l 2,35,36
 209 22 209 22 279 16 c 1,37,-1
 279 0 l 1,38,39
 238 3 238 3 170 3 c 0,40,41
 105 3 105 3 66 0 c 1,42,-1
 66 16 l 1,43,44
 86 16 86 16 107.5 24 c 128,-1,45
 129 32 129 32 129 42 c 0,46,47
 131 103 131 103 131 203 c 0,48,49
 131 298 131 298 129 359 c 1,50,51
 110 369 110 369 66 373 c 1,52,-1
 66 389 l 1,0,1
EndSplineSet
EndChar

StartChar: o
Encoding: 111 111 83
Width: 486
GlyphClass: 2
Flags: W
HStem: -17 25<216.111 311.599> 397 20<217.085 300.938>
VStem: 51 92<89.5879 307.003> 378 88<99.2214 301.851>
LayerCount: 2
Fore
SplineSet
264 8 m 0,0,1
 318 8 318 8 348 58 c 128,-1,2
 378 108 378 108 378 202 c 0,3,4
 378 280 378 280 346 338.5 c 128,-1,5
 314 397 314 397 262 397 c 0,6,7
 227 397 227 397 202 378 c 128,-1,8
 177 359 177 359 165.5 326.5 c 128,-1,9
 154 294 154 294 148.5 262 c 128,-1,10
 143 230 143 230 143 195 c 0,11,12
 143 112 143 112 175 60 c 128,-1,13
 207 8 207 8 264 8 c 0,0,1
253 417 m 0,14,15
 342 417 342 417 404 355 c 128,-1,16
 466 293 466 293 466 213 c 0,17,18
 466 116 466 116 414 49.5 c 128,-1,19
 362 -17 362 -17 261 -17 c 0,20,21
 51 -17 51 -17 51 212 c 0,22,23
 51 301 51 301 113 359 c 128,-1,24
 175 417 175 417 253 417 c 0,14,15
EndSplineSet
EndChar

StartChar: p
Encoding: 112 112 84
Width: 520
GlyphClass: 2
Flags: W
HStem: -219 14<33 84.3892 225.006 276> -6 28<230.977 336.572> 371 45<254.887 347.062> 383 15<31 69.4863>
VStem: 108 80<-193.331 40 48.3782 270.83> 383 106<106.511 312.369>
LayerCount: 2
Fore
SplineSet
197 292 m 1,0,-1
 188 188 l 1,1,-1
 189 67 l 1,2,3
 229 22 229 22 297 22 c 0,4,5
 339 22 339 22 361 67.5 c 128,-1,6
 383 113 383 113 383 194 c 0,7,8
 383 276 383 276 362 323.5 c 128,-1,9
 341 371 341 371 303 371 c 0,10,11
 236 371 236 371 197 292 c 1,0,-1
31 398 m 1,12,13
 109 398 109 398 181 417 c 1,14,-1
 195 325 l 1,15,16
 222 368 222 368 252 392 c 128,-1,17
 282 416 282 416 327 416 c 0,18,19
 392 416 392 416 440.5 354.5 c 128,-1,20
 489 293 489 293 489 212 c 0,21,22
 489 124 489 124 438 59 c 128,-1,23
 387 -6 387 -6 291 -6 c 0,24,25
 232 -6 232 -6 188 40 c 1,26,-1
 189 -180 l 1,27,28
 196 -191 196 -191 225 -198 c 128,-1,29
 254 -205 254 -205 278 -205 c 1,30,-1
 276 -219 l 1,31,32
 226 -216 226 -216 149 -216 c 128,-1,33
 72 -216 72 -216 33 -219 c 1,34,-1
 33 -205 l 1,35,36
 103 -203 103 -203 103 -180 c 0,37,38
 107 -61 107 -61 108 140 c 0,39,40
 108 280 108 280 105 362 c 1,41,42
 64 381 64 381 31 383 c 1,43,-1
 31 398 l 1,12,13
EndSplineSet
EndChar

StartChar: q
Encoding: 113 113 85
Width: 520
GlyphClass: 2
Flags: W
HStem: -218 14<303 349.949 466.75 520> -14 38<208.875 299.539> 386 20G<419 453> 392 22<224.039 298.137>
VStem: 61 107<84.4826 290.798> 368 83<-198.727 71 108 309> 419 34<358.984 401>
LayerCount: 2
Fore
SplineSet
362 309 m 1,0,1
 321 392 321 392 256 392 c 0,2,3
 216 392 216 392 192 336.5 c 128,-1,4
 168 281 168 281 168 197 c 0,5,6
 168 117 168 117 189.5 70.5 c 128,-1,7
 211 24 211 24 252 24 c 0,8,9
 278 24 278 24 301 36 c 128,-1,10
 324 48 324 48 335 61.5 c 128,-1,11
 346 75 346 75 356 91 c 2,12,-1
 368 108 l 1,13,-1
 368 221 l 1,14,-1
 362 309 l 1,0,1
453 406 m 1,15,16
 453 300 453 300 451 86.5 c 128,-1,17
 449 -127 449 -127 449 -180 c 0,18,19
 449 -202 449 -202 520 -204 c 1,20,-1
 520 -218 l 1,21,22
 411 -213 411 -213 391 -213 c 0,23,24
 343 -213 343 -213 300 -218 c 1,25,-1
 303 -204 l 1,26,27
 361 -204 361 -204 367 -180 c 1,28,-1
 368 71 l 1,29,30
 307 -14 307 -14 233 -14 c 0,31,32
 155 -14 155 -14 108 44.5 c 128,-1,33
 61 103 61 103 61 199 c 0,34,35
 61 231 61 231 73.5 266.5 c 128,-1,36
 86 302 86 302 108.5 336 c 128,-1,37
 131 370 131 370 171.5 392 c 128,-1,38
 212 414 212 414 261 414 c 0,39,40
 290 414 290 414 322 386 c 128,-1,41
 354 358 354 358 375 327 c 1,42,43
 387 336 387 336 403 360.5 c 128,-1,44
 419 385 419 385 419 401 c 1,45,-1
 453 406 l 1,15,16
EndSplineSet
EndChar

StartChar: r
Encoding: 114 114 86
Width: 432
GlyphClass: 2
Flags: W
HStem: 0 16<63 96.5234 229.324 276> 378 38<277.897 358> 383 16<63 121.38>
VStem: 127 80<26.8394 256> 311 107<276.95 345.969>
LayerCount: 2
Fore
SplineSet
339 416 m 0,0,1
 377 416 377 416 397.5 393.5 c 128,-1,2
 418 371 418 371 418 329 c 0,3,4
 418 304 418 304 401 283 c 128,-1,5
 384 262 384 262 362 262 c 0,6,7
 346 262 346 262 329 276 c 128,-1,8
 312 290 312 290 311 309 c 1,9,10
 311 331 311 331 340 351 c 1,11,12
 337 360 337 360 329.5 369 c 128,-1,13
 322 378 322 378 306 378 c 0,14,15
 278 378 278 378 252.5 347.5 c 128,-1,16
 227 317 227 317 216 287 c 2,17,-1
 205 256 l 1,18,-1
 207 42 l 2,19,20
 208 22 208 22 276 16 c 1,21,-1
 276 0 l 1,22,23
 234 3 234 3 167 3 c 0,24,25
 104 3 104 3 63 0 c 1,26,-1
 63 16 l 1,27,28
 78 17 78 17 102.5 26 c 128,-1,29
 127 35 127 35 127 42 c 2,30,-1
 127 373 l 1,31,32
 114 381 114 381 63 383 c 1,33,-1
 61 399 l 1,34,35
 118 399 118 399 197 419 c 1,36,-1
 208 299 l 1,37,38
 224 342 224 342 257 379 c 128,-1,39
 290 416 290 416 339 416 c 0,0,1
EndSplineSet
EndChar

StartChar: s
Encoding: 115 115 87
Width: 399
GlyphClass: 2
Flags: W
HStem: -13 19<153.085 252.604> -2 21G<62.7143 85.4483> 391 20G<312 333> 403 17<171.733 255.058>
VStem: 63 19<-2 16.3744 84.9484 136> 68 69<288.528 365.648> 293 72<36.9858 126.343> 313 18<285 306.5 381 411>
LayerCount: 2
Fore
SplineSet
199 -13 m 0,0,1
 179 -13 179 -13 151 -3 c 128,-1,2
 123 7 123 7 104 16 c 1,3,-1
 87 27 l 1,4,-1
 82 -2 l 1,5,-1
 63 -2 l 1,6,-1
 61 138 l 1,7,-1
 78 136 l 1,8,9
 83 87 83 87 114 46.5 c 128,-1,10
 145 6 145 6 199 6 c 0,11,12
 293 6 293 6 293 82 c 0,13,14
 293 137 293 137 174 180 c 0,15,16
 123 198 123 198 95.5 223 c 128,-1,17
 68 248 68 248 68 291 c 0,18,19
 68 351 68 351 109 385.5 c 128,-1,20
 150 420 150 420 217 420 c 0,21,22
 246 420 246 420 269.5 410 c 128,-1,23
 293 400 293 400 302 391 c 2,24,-1
 311 381 l 1,25,-1
 314 411 l 1,26,-1
 333 411 l 1,27,-1
 331 285 l 1,28,-1
 313 285 l 1,29,30
 311 299 311 299 310 306.5 c 128,-1,31
 309 314 309 314 305 331.5 c 128,-1,32
 301 349 301 349 294 359 c 128,-1,33
 287 369 287 369 276 380.5 c 128,-1,34
 265 392 265 392 247 397.5 c 128,-1,35
 229 403 229 403 207 403 c 0,36,37
 176 403 176 403 156.5 383.5 c 128,-1,38
 137 364 137 364 137 334 c 0,39,40
 137 317 137 317 144.5 303.5 c 128,-1,41
 152 290 152 290 165.5 280.5 c 128,-1,42
 179 271 179 271 192 265.5 c 128,-1,43
 205 260 205 260 225 253 c 128,-1,44
 245 246 245 246 255 242 c 0,45,46
 365 193 365 193 365 122 c 0,47,48
 365 50 365 50 325 18.5 c 128,-1,49
 285 -13 285 -13 199 -13 c 0,0,1
EndSplineSet
EndChar

StartChar: t
Encoding: 116 116 88
Width: 387
GlyphClass: 2
Flags: W
HStem: -7 26<240.683 303.331> 386 26<218 324> 386 13<52 89.9629>
VStem: 136 82<31.9927 386> 197 19<500.332 553>
LayerCount: 2
Fore
SplineSet
324 386 m 1,0,-1
 218 386 l 1,1,2
 218 114 l 0,3,4
 218 71 218 71 231.5 45 c 128,-1,5
 245 19 245 19 268 19 c 0,6,7
 294 19 294 19 311.5 40 c 128,-1,8
 329 61 329 61 344 103 c 1,9,-1
 366 92 l 1,10,11
 357 68 357 68 350 55 c 128,-1,12
 343 42 343 42 330 25 c 128,-1,13
 317 8 317 8 298 0.5 c 128,-1,14
 279 -7 279 -7 252 -7 c 0,15,16
 192 -7 192 -7 162 27 c 0,17,18
 148 42 148 42 142 69.5 c 128,-1,19
 136 97 136 97 136 150 c 2,20,-1
 136 386 l 1,21,-1
 52 386 l 1,22,-1
 52 399 l 1,23,24
 76 399 76 399 110.5 412.5 c 128,-1,25
 145 426 145 426 158 442 c 0,26,27
 171 459 171 459 184 490.5 c 128,-1,28
 197 522 197 522 197 553 c 1,29,-1
 220 553 l 1,30,31
 216 521 216 521 216 455 c 0,32,33
 216 448 216 448 216 433 c 128,-1,34
 216 418 216 418 216 410 c 1,35,-1
 330 412 l 1,36,-1
 324 386 l 1,0,-1
EndSplineSet
EndChar

StartChar: u
Encoding: 117 117 89
Width: 555
GlyphClass: 2
Flags: W
HStem: -11 28<228.774 296.755> 4 12<490.965 537> 379 16<61 117.837 336 385.632> 386 20G<177.5 205.854 456.5 482.196>
VStem: 121 83<33.2698 376.742> 395 88<227.696 375.613> 395 80<147 375.613>
LayerCount: 2
Fore
SplineSet
61 395 m 1,0,1
 149 395 149 395 206 406 c 1,2,-1
 204 132 l 1,3,4
 206 17 206 17 258 17 c 0,5,6
 287 17 287 17 314 37.5 c 128,-1,7
 341 58 341 58 358 82 c 128,-1,8
 375 106 375 106 385 127 c 2,9,-1
 395 147 l 1,10,-1
 395 367 l 1,11,12
 376 379 376 379 336 379 c 1,13,-1
 336 395 l 1,14,15
 430 395 430 395 483 406 c 1,16,-1
 475 207 l 2,17,18
 475 185 475 185 475 157 c 2,19,-1
 476 28 l 1,20,21
 488 18 488 18 537 16 c 1,22,-1
 537 4 l 1,23,24
 461 0 461 0 400 -15 c 1,25,-1
 393 94 l 1,26,-1
 381 78 l 2,27,28
 369 62 369 62 350 42 c 128,-1,29
 331 22 331 22 302 5.5 c 128,-1,30
 273 -11 273 -11 246 -11 c 0,31,32
 177 -11 177 -11 149 25 c 128,-1,33
 121 61 121 61 121 130 c 2,34,-1
 120 371 l 1,35,36
 104 379 104 379 61 379 c 1,37,-1
 61 395 l 1,0,1
EndSplineSet
EndChar

StartChar: v
Encoding: 118 118 90
Width: 552
GlyphClass: 2
Flags: W
HStem: 381 14<33 75.0336 218.357 258 360.976 401.312 479.969 520>
LayerCount: 2
Fore
SplineSet
260 395 m 1,0,-1
 258 381 l 1,1,2
 204 381 204 381 204 352 c 0,3,4
 204 346 204 346 207 338 c 2,5,-1
 315 72 l 1,6,-1
 414 338 l 2,7,8
 417 346 417 346 417 353 c 0,9,10
 417 364 417 364 406.5 371 c 128,-1,11
 396 378 396 378 386.5 379 c 128,-1,12
 377 380 377 380 360 381 c 1,13,-1
 362 395 l 1,14,15
 388 392 388 392 437 392 c 0,16,17
 490 392 490 392 522 395 c 1,18,-1
 520 381 l 1,19,20
 486 381 486 381 471.5 369 c 128,-1,21
 457 357 457 357 444 326 c 2,22,-1
 317 -10 l 1,23,-1
 264 -10 l 1,24,-1
 109 340 l 2,25,26
 99 363 99 363 82.5 371 c 128,-1,27
 66 379 66 379 31 381 c 1,28,-1
 33 395 l 1,29,30
 133 390 133 390 169 390 c 0,31,32
 221 390 221 390 260 395 c 1,0,-1
EndSplineSet
EndChar

StartChar: w
Encoding: 119 119 91
Width: 791
GlyphClass: 2
Flags: W
HStem: 381 11<39 64.7852 248.193 272 606.708 638.395 729.922 764>
LayerCount: 2
Fore
SplineSet
470 396 m 1,0,-1
 492 322 l 1,1,-1
 570 72 l 1,2,-1
 663 339 l 2,3,4
 664 343 664 343 664 347 c 0,5,6
 664 363 664 363 644 373 c 128,-1,7
 624 383 624 383 605 384 c 1,8,-1
 607 398 l 1,9,10
 641 393 641 393 687 393 c 0,11,12
 734 393 734 393 766 398 c 1,13,-1
 764 384 l 1,14,15
 735 382 735 382 713.5 366 c 128,-1,16
 692 350 692 350 685 329 c 2,17,-1
 568 -10 l 1,18,-1
 521 -10 l 1,19,-1
 412 289 l 1,20,-1
 296 -10 l 1,21,-1
 250 -10 l 1,22,-1
 134 322 l 1,23,24
 117 375 117 375 37 379 c 1,25,-1
 39 395 l 1,26,27
 106 392 106 392 171 392 c 0,28,29
 234 392 234 392 274 395 c 1,30,-1
 272 381 l 2,31,32
 271 381 271 381 270 381 c 0,33,34
 255 381 255 381 237.5 369.5 c 128,-1,35
 220 358 220 358 220 344 c 0,36,37
 220 341 220 341 221 338 c 2,38,-1
 299 72 l 1,39,-1
 397 324 l 1,40,-1
 420 396 l 1,41,-1
 470 396 l 1,0,-1
EndSplineSet
EndChar

StartChar: x
Encoding: 120 120 92
Width: 540
GlyphClass: 2
Flags: W
HStem: -2 14<47 86.6249 187.25 226.024 307 342.757 493.411 522> 381 14<66 106.484 239.8 272 346.976 381.25 455.003 498>
LayerCount: 2
Fore
SplineSet
307 -2 m 1,0,-1
 307 12 l 1,1,2
 331 12 331 12 344 19.5 c 128,-1,3
 357 27 357 27 357 34 c 0,4,5
 357 38 357 38 355 42 c 128,-1,6
 353 46 353 46 349.5 51 c 128,-1,7
 346 56 346 56 344 60 c 2,8,-1
 266 169 l 1,9,-1
 189 74 l 2,10,11
 174 56 174 56 174 40 c 0,12,13
 174 12 174 12 227 12 c 1,14,-1
 225 -2 l 1,15,16
 188 1 188 1 136 1 c 128,-1,17
 84 1 84 1 45 -2 c 1,18,-1
 47 12 l 1,19,20
 78 12 78 12 104.5 27.5 c 128,-1,21
 131 43 131 43 159 75 c 2,22,-1
 256 186 l 1,23,-1
 145 338 l 2,24,25
 138 349 138 349 127 358 c 2,26,-1
 116 369 l 1,27,28
 102 377 102 377 95 378.5 c 128,-1,29
 88 380 88 380 66 381 c 1,30,-1
 66 395 l 1,31,32
 114 390 114 390 173 390 c 0,33,34
 234 390 234 390 274 395 c 1,35,-1
 272 381 l 1,36,37
 249 381 249 381 239.5 375 c 128,-1,38
 230 369 230 369 230 361 c 256,39,40
 230 354 230 354 233 346 c 2,41,-1
 238 338 l 1,42,-1
 307 234 l 1,43,-1
 384 330 l 2,44,45
 393 341 393 341 393 354 c 0,46,47
 393 381 393 381 346 381 c 1,48,-1
 348 395 l 1,49,50
 383 392 383 392 425 392 c 0,51,52
 472 392 472 392 500 395 c 1,53,-1
 498 381 l 1,54,55
 470 381 470 381 455 374 c 0,56,57
 436 365 436 365 417 342 c 2,58,-1
 319 221 l 1,59,-1
 426 76 l 2,60,61
 444 49 444 49 467 33 c 0,62,63
 494 14 494 14 526 12 c 1,64,-1
 522 -2 l 1,65,66
 465 1 465 1 403 1 c 256,67,68
 342 1 342 1 307 -2 c 1,0,-1
EndSplineSet
EndChar

StartChar: y
Encoding: 121 121 93
Width: 548
GlyphClass: 2
Flags: W
HStem: -229 28<110.441 180.987> 381 14<35 81.3459 224.8 258 367.205 425.614 488.289 536>
VStem: 31 119<-179.049 -104.988>
LayerCount: 2
Fore
SplineSet
260 395 m 1,0,-1
 258 381 l 1,1,2
 234 381 234 381 224.5 376 c 128,-1,3
 215 371 215 371 215 355 c 0,4,5
 215 346 215 346 221 328 c 2,6,-1
 322 72 l 1,7,-1
 430 322 l 2,8,9
 437 339 437 339 437 351 c 0,10,11
 437 362 437 362 431.5 369 c 128,-1,12
 426 376 426 376 413.5 378.5 c 128,-1,13
 401 381 401 381 392 381.5 c 128,-1,14
 383 382 383 382 366 382 c 1,15,-1
 368 396 l 1,16,17
 403 392 403 392 458 392 c 256,18,19
 513 392 513 392 538 397 c 1,20,-1
 536 383 l 1,21,22
 497 383 497 383 488 375 c 0,23,24
 474 362 474 362 456 315 c 2,25,-1
 276 -113 l 2,26,27
 254 -166 254 -166 219 -197 c 0,28,29
 180 -230 180 -230 128 -229 c 0,30,31
 94 -229 94 -229 62.5 -206.5 c 128,-1,32
 31 -184 31 -184 31 -152 c 128,-1,33
 31 -120 31 -120 47 -104.5 c 128,-1,34
 63 -89 63 -89 85 -89 c 0,35,36
 110 -89 110 -89 130 -101.5 c 128,-1,37
 150 -114 150 -114 150 -138 c 0,38,39
 150 -173 150 -173 110 -189 c 1,40,41
 124 -200 124 -200 152 -201 c 0,42,43
 168 -201 168 -201 202 -171 c 1,44,45
 241 -134 241 -134 280 -17 c 1,46,-1
 127 336 l 2,47,48
 117 362 117 362 92 371 c 0,49,50
 75 377 75 377 35 381 c 1,51,-1
 35 395 l 1,52,53
 78 392 78 392 140 392 c 0,54,55
 215 392 215 392 260 395 c 1,0,-1
EndSplineSet
EndChar

StartChar: z
Encoding: 122 122 94
Width: 465
GlyphClass: 2
Flags: W
HStem: 0 28<167 363.253> 377 24<130.723 348>
VStem: 84 21<263 337.007> 413 18<101.011 157>
LayerCount: 2
Fore
SplineSet
89 399 m 1,0,-1
 438 401 l 1,1,-1
 442 381 l 1,2,3
 183 77 183 77 167 28 c 1,4,-1
 330 31 l 2,5,6
 363 32 363 32 386.5 64.5 c 128,-1,7
 410 97 410 97 413 157 c 1,8,-1
 431 157 l 1,9,-1
 420 0 l 1,10,-1
 70 0 l 1,11,-1
 67 41 l 1,12,13
 106 86 106 86 226.5 230.5 c 128,-1,14
 347 375 347 375 348 377 c 1,15,-1
 152 374 l 2,16,17
 133 374 133 374 122.5 354 c 128,-1,18
 112 334 112 334 110.5 309.5 c 128,-1,19
 109 285 109 285 105 263 c 1,20,-1
 84 263 l 1,21,-1
 89 399 l 1,0,-1
EndSplineSet
EndChar

StartChar: braceleft
Encoding: 123 123 95
Width: 282
GlyphClass: 2
Flags: W
HStem: -131 27<166 262> 264 39<23 103> 662 22<166 262>
VStem: 103 63<-104 264 303 662>
LayerCount: 2
Fore
SplineSet
103 264 m 1,0,-1
 23 264 l 1,1,-1
 23 303 l 1,2,-1
 103 303 l 1,3,-1
 103 684 l 1,4,-1
 262 684 l 1,5,-1
 262 662 l 1,6,-1
 166 662 l 1,7,-1
 166 -104 l 1,8,-1
 262 -104 l 1,9,-1
 262 -131 l 1,10,-1
 103 -131 l 1,11,-1
 103 264 l 1,0,-1
EndSplineSet
EndChar

StartChar: bar
Encoding: 124 124 96
Width: 309
GlyphClass: 2
Flags: W
VStem: 127 55<-154 734>
LayerCount: 2
Fore
SplineSet
127 734 m 1,0,-1
 182 734 l 1,1,-1
 182 -154 l 1,2,-1
 127 -154 l 1,3,-1
 127 734 l 1,0,-1
EndSplineSet
EndChar

StartChar: braceright
Encoding: 125 125 97
Width: 282
GlyphClass: 2
Flags: W
HStem: -131 27<32 128> 264 39<190 267> 662 22<32 128>
VStem: 128 62<-104 264 303 662>
LayerCount: 2
Fore
SplineSet
190 684 m 1,0,-1
 190 303 l 1,1,-1
 267 303 l 1,2,-1
 267 264 l 1,3,-1
 190 264 l 1,4,-1
 190 -131 l 1,5,-1
 32 -131 l 1,6,-1
 32 -104 l 1,7,-1
 128 -104 l 1,8,-1
 128 662 l 1,9,-1
 32 662 l 1,10,-1
 32 684 l 1,11,-1
 190 684 l 1,0,-1
EndSplineSet
EndChar

StartChar: exclamdown
Encoding: 161 161 99
Width: 425
GlyphClass: 2
Flags: W
HStem: 474 124<180.503 272.189>
VStem: 150 122<-5.05518 106.644> 164 119<488.546 581.516> 205 37<300.356 389>
LayerCount: 2
Fore
SplineSet
242 389 m 1,0,1
 272 18 l 0,2,3
 272 17 272 17 272 16 c 0,4,5
 272 -13 272 -13 205 -12 c 0,6,7
 173 -12 173 -12 161.5 -5.5 c 128,-1,8
 150 1 150 1 150 15 c 0,9,10
 150 62 150 62 205 387 c 0,11,12
 205 389 l 1,13,-1
 242 389 l 1,0,1
225 474 m 0,14,15
 197 474 197 474 180.5 494 c 128,-1,16
 164 514 164 514 164 536 c 0,17,18
 164 556 164 556 181.5 577 c 128,-1,19
 199 598 199 598 222 598 c 0,20,21
 282 598 282 598 283 536 c 0,22,23
 282 474 282 474 225 474 c 0,14,15
EndSplineSet
EndChar

StartChar: sterling
Encoding: 163 163 100
Width: 512
GlyphClass: 2
Flags: W
HStem: -94 78<308 428.191> -62 39<104.592 187.61> 73 31<108.102 164.241> 136 40<55 176 303 412> 216 37<55 120 255 412> 431 32<236.63 362.599>
VStem: 46 52<-17.6053 64.9926> 110 85<262.423 389.101> 246 58<45.5165 133.86> 417 33<331.914 375.451> 462 35<22.8125 102>
LayerCount: 2
Fore
SplineSet
133 73 m 128,-1,1
 120 73 120 73 109 60.5 c 128,-1,2
 98 48 98 48 98 23 c 0,3,4
 98 -22 98 -22 147 -23 c 0,5,6
 192 -23 192 -23 214 6 c 1,7,8
 183 43 183 43 168 55 c 0,9,0
 146 73 146 73 133 73 c 128,-1,1
137 217 m 1,10,-1
 55 217 l 1,11,-1
 55 250 l 1,12,-1
 120 251 l 1,13,14
 110 277 110 277 110 305 c 0,15,16
 110 383 110 383 164.5 423 c 128,-1,17
 219 463 219 463 288 463 c 0,18,19
 359 463 359 463 402 428.5 c 128,-1,20
 445 394 445 394 450 333 c 1,21,-1
 417 328 l 1,22,23
 399 431 399 431 294 431 c 0,24,25
 248 431 248 431 221.5 402.5 c 128,-1,26
 195 374 195 374 195 321 c 0,27,28
 195 291 195 291 224 253 c 1,29,-1
 412 256 l 1,30,-1
 412 216 l 1,31,-1
 255 216 l 1,32,33
 278 190 278 190 288 175 c 1,34,-1
 412 176 l 1,35,-1
 412 136 l 1,36,-1
 303 137 l 1,37,38
 304 132 304 132 304 127 c 0,39,40
 304 97 304 97 297.5 76 c 128,-1,41
 291 55 291 55 280.5 44.5 c 128,-1,42
 270 34 270 34 259 18 c 1,43,44
 302 -17 302 -17 357 -16 c 0,45,46
 402 -16 402 -16 432 9 c 128,-1,47
 462 34 462 34 462 80 c 0,48,49
 462 83 462 83 462 87.5 c 128,-1,50
 462 92 462 92 461.5 96.5 c 128,-1,51
 461 101 461 101 461 102 c 2,52,-1
 493 111 l 1,53,54
 493 105 493 105 495 93.5 c 128,-1,55
 497 82 497 82 497 76 c 0,56,57
 497 -94 497 -94 375 -94 c 0,58,59
 316 -94 316 -94 225 -9 c 1,60,61
 203 -35 203 -35 179 -48 c 0,62,63
 152 -62 152 -62 128 -62 c 0,64,65
 88 -62 88 -62 67 -35 c 128,-1,66
 46 -8 46 -8 46 16 c 0,67,68
 46 51 46 51 68.5 77.5 c 128,-1,69
 91 104 91 104 134 104 c 0,70,71
 184 104 184 104 236 38 c 1,72,73
 246 53 246 53 246 77 c 0,74,75
 246 100 246 100 239.5 113 c 128,-1,76
 233 126 233 126 219 138 c 1,77,-1
 55 140 l 1,78,-1
 55 173 l 1,79,-1
 176 174 l 1,80,81
 152 195 152 195 137 217 c 1,10,-1
EndSplineSet
EndChar

StartChar: currency
Encoding: 164 164 101
Width: 512
GlyphClass: 2
Flags: W
HStem: -9 19<39 80 235.074 370.916> 203 45<39 128 224 403> 302 45<39 129 224 403> 402 21G<420.5 442> 521 23<224 358.316> 529 18<52 88>
VStem: 129 95<30.9958 203 248 302 347 502.566> 423 19<402 435.666> 442 23<108.936 152>
LayerCount: 2
Fore
SplineSet
224 59 m 2,0,1
 224 10 224 10 259 10 c 2,2,3
 348 10 l 1,4,5
 374 11 374 11 405.5 60 c 128,-1,6
 437 109 437 109 442 152 c 1,7,-1
 465 152 l 1,8,-1
 441 -9 l 1,9,-1
 39 -9 l 1,10,-1
 39 7 l 1,11,-1
 80 13 l 2,12,13
 120 19 120 19 121 30 c 0,14,15
 125 61 125 61 128 203 c 1,16,-1
 39 203 l 1,17,-1
 39 248 l 1,18,-1
 129 248 l 1,19,20
 129 276 129 276 129 302 c 1,21,-1
 39 302 l 1,22,-1
 39 347 l 1,23,-1
 130 347 l 1,24,25
 130 356 130 356 130 365 c 0,26,27
 130 490 130 490 126 503 c 1,28,29
 124 514 124 514 88 522 c 2,30,-1
 52 529 l 1,31,-1
 52 547 l 1,32,33
 158 544 158 544 257.5 544 c 128,-1,34
 357 544 357 544 439 547 c 1,35,-1
 442 402 l 1,36,-1
 423 402 l 1,37,38
 418 427 418 427 408 450.5 c 128,-1,39
 398 474 398 474 374 497.5 c 128,-1,40
 350 521 350 521 319 521 c 2,41,-1
 224 521 l 1,42,-1
 224 347 l 1,43,-1
 403 347 l 1,44,-1
 403 302 l 1,45,-1
 224 302 l 1,46,-1
 224 248 l 1,47,-1
 403 248 l 1,48,-1
 403 203 l 1,49,-1
 224 203 l 1,50,-1
 224 59 l 2,0,1
EndSplineSet
EndChar

StartChar: brokenbar
Encoding: 166 166 102
Width: 309
GlyphClass: 2
Flags: W
VStem: 127 55<-154 210 385 734>
LayerCount: 2
Fore
SplineSet
127 734 m 1,0,-1
 182 734 l 1,1,-1
 182 385 l 1,2,-1
 127 385 l 1,3,-1
 127 734 l 1,0,-1
182 210 m 1,4,-1
 182 -154 l 1,5,-1
 127 -154 l 1,6,-1
 127 210 l 1,7,-1
 182 210 l 1,4,-1
EndSplineSet
EndChar

StartChar: section
Encoding: 167 167 103
Width: 372
GlyphClass: 2
Flags: W
HStem: -240 21<134.338 236.608> 424 16<146.851 227.45>
VStem: 43 16<-115.89 -89> 46 70<58.3435 140.859 305.426 384.625> 276 74<-180.295 -76.5 65.1329 172> 288 33<401 431> 290 22<305 361.996>
LayerCount: 2
Fore
SplineSet
146 189 m 1,0,1
 103 202 103 202 74.5 234 c 128,-1,2
 46 266 46 266 46 311 c 0,3,4
 46 371 46 371 87 405.5 c 128,-1,5
 128 440 128 440 196 440 c 0,6,7
 225 440 225 440 247.5 430.5 c 128,-1,8
 270 421 270 421 279 412 c 2,9,-1
 288 401 l 1,10,-1
 291 431 l 1,11,-1
 321 431 l 1,12,-1
 312 305 l 1,13,-1
 290 305 l 1,14,15
 288 324 288 324 287 332.5 c 128,-1,16
 286 341 286 341 279 362 c 128,-1,17
 272 383 272 383 262 393.5 c 128,-1,18
 252 404 252 404 232 414 c 128,-1,19
 212 424 212 424 185 424 c 0,20,21
 115 424 115 424 116 354 c 0,22,23
 116 337 116 337 121.5 324 c 128,-1,24
 127 311 127 311 140 303.5 c 128,-1,25
 153 296 153 296 162.5 292 c 128,-1,26
 172 288 172 288 193 281.5 c 128,-1,27
 214 275 214 275 222 272 c 0,28,29
 287 249 287 249 318.5 222.5 c 128,-1,30
 350 196 350 196 350 148 c 0,31,32
 350 42 350 42 253 15 c 1,33,34
 301 -4 301 -4 325.5 -30 c 128,-1,35
 350 -56 350 -56 350 -97 c 0,36,37
 350 -239 350 -239 177 -240 c 0,38,39
 157 -240 157 -240 130 -229.5 c 128,-1,40
 103 -219 103 -219 87 -209 c 2,41,-1
 71 -199 l 1,42,-1
 59 -227 l 1,43,-1
 43 -227 l 1,44,-1
 39 -88 l 1,45,-1
 62 -89 l 1,46,47
 67 -138 67 -138 98 -178.5 c 128,-1,48
 129 -219 129 -219 182 -219 c 0,49,50
 276 -219 276 -219 276 -143 c 0,51,52
 276 -94 276 -94 150 -57 c 0,53,54
 105 -44 105 -44 75.5 -12 c 128,-1,55
 46 20 46 20 46 66 c 0,56,57
 46 114 46 114 72.5 146 c 128,-1,58
 99 178 99 178 146 189 c 1,0,1
276 102 m 0,59,60
 276 146 276 146 182 178 c 1,61,62
 150 177 150 177 133 157.5 c 128,-1,63
 116 138 116 138 116 109 c 0,64,65
 116 89 116 89 124 74.5 c 128,-1,66
 132 60 132 60 145.5 53.5 c 128,-1,67
 159 47 159 47 176 41 c 128,-1,68
 193 35 193 35 210 31 c 1,69,70
 276 40 276 40 276 102 c 0,59,60
EndSplineSet
EndChar

StartChar: dieresis
Encoding: 168 168 104
Width: 421
GlyphClass: 2
Flags: W
HStem: 490 69<100.053 151.687 260.798 303.718>
VStem: 98 64<491.914 549.202> 251 62<500.314 548.686>
LayerCount: 2
Fore
SplineSet
98 524 m 0,0,1
 98 539 98 539 107.5 549 c 128,-1,2
 117 559 117 559 129 559 c 0,3,4
 142 559 142 559 152 549.5 c 128,-1,5
 162 540 162 540 162 525 c 128,-1,6
 162 510 162 510 152.5 500 c 128,-1,7
 143 490 143 490 131 490 c 0,8,9
 118 490 118 490 108 500 c 128,-1,10
 98 510 98 510 98 524 c 0,0,1
251 524 m 0,11,12
 251 539 251 539 260 549 c 128,-1,13
 269 559 269 559 282 559 c 128,-1,14
 295 559 295 559 304 549.5 c 128,-1,15
 313 540 313 540 313 525 c 128,-1,16
 313 510 313 510 304 500 c 128,-1,17
 295 490 295 490 283 490 c 0,18,19
 270 490 270 490 260.5 500 c 128,-1,20
 251 510 251 510 251 524 c 0,11,12
EndSplineSet
EndChar

StartChar: copyright
Encoding: 169 169 105
Width: 512
GlyphClass: 2
Flags: W
HStem: -32 25<181.053 326.947> 38 23<212.585 316.025> 335 21<214.27 317.835> 423 24<183.646 324.354>
VStem: 14 25<135.053 280.909> 99 64<107.526 281.581> 365 15<260 285.488 336.134 359> 469 25<135.053 280.909>
LayerCount: 2
Fore
SplineSet
265 356 m 0,0,1
 293 356 293 356 318 347.5 c 128,-1,2
 343 339 343 339 351 330 c 1,3,4
 362 336 362 336 366 359 c 1,5,-1
 381 359 l 1,6,-1
 380 260 l 1,7,-1
 365 260 l 1,8,9
 355 335 355 335 259 335 c 128,-1,10
 163 335 163 335 163 199 c 0,11,12
 163 136 163 136 185 98.5 c 128,-1,13
 207 61 207 61 264 61 c 0,14,15
 309 61 309 61 328 78.5 c 128,-1,16
 347 96 347 96 365 136 c 1,17,-1
 384 128 l 1,18,19
 346 38 346 38 264 38 c 0,20,21
 191 38 191 38 145 79 c 128,-1,22
 99 120 99 120 99 196 c 0,23,24
 99 254 99 254 129 292.5 c 128,-1,25
 159 331 159 331 194 343.5 c 128,-1,26
 229 356 229 356 265 356 c 0,0,1
254 447 m 128,-1,28
 353 447 353 447 423.5 377 c 128,-1,29
 494 307 494 307 494 208 c 128,-1,30
 494 109 494 109 423.5 38.5 c 128,-1,31
 353 -32 353 -32 254 -32 c 128,-1,32
 155 -32 155 -32 84.5 38.5 c 128,-1,33
 14 109 14 109 14 208 c 128,-1,34
 14 307 14 307 84.5 377 c 128,-1,27
 155 447 155 447 254 447 c 128,-1,28
254 423 m 128,-1,36
 165 423 165 423 102 360 c 128,-1,37
 39 297 39 297 39 208 c 128,-1,38
 39 119 39 119 102 56 c 128,-1,39
 165 -7 165 -7 254 -7 c 128,-1,40
 343 -7 343 -7 406 56 c 128,-1,41
 469 119 469 119 469 208 c 128,-1,42
 469 297 469 297 406 360 c 128,-1,35
 343 423 343 423 254 423 c 128,-1,36
EndSplineSet
EndChar

StartChar: guillemotleft
Encoding: 171 171 106
Width: 503
GlyphClass: 2
Flags: W
LayerCount: 2
Fore
SplineSet
458 380 m 1,0,-1
 458 362 l 1,1,-1
 307 201 l 1,2,-1
 307 187 l 1,3,-1
 449 43 l 1,4,-1
 449 20 l 1,5,-1
 233 183 l 1,6,-1
 233 209 l 1,7,-1
 458 380 l 1,0,-1
327 380 m 1,8,-1
 327 362 l 1,9,-1
 147 201 l 1,10,-1
 147 187 l 1,11,-1
 317 43 l 1,12,-1
 317 20 l 1,13,-1
 58 183 l 1,14,-1
 58 209 l 1,15,-1
 327 380 l 1,8,-1
EndSplineSet
EndChar

StartChar: registered
Encoding: 174 174 107
Width: 512
GlyphClass: 2
Flags: W
HStem: -32 25<181.053 326.947> 55 19<134 154 368.92 387> 203 13<223 269.938> 344 13<140 158 223 290.002> 423 24<183.646 324.354>
VStem: 14 25<135.053 280.909> 175 48<89.0781 203 216 341.484> 310 49<237.191 328.418> 315 72<55 88.5405> 469 25<135.053 280.909>
LayerCount: 2
Fore
SplineSet
254 447 m 128,-1,1
 353 447 353 447 423.5 377 c 128,-1,2
 494 307 494 307 494 208 c 128,-1,3
 494 109 494 109 423.5 38.5 c 128,-1,4
 353 -32 353 -32 254 -32 c 128,-1,5
 155 -32 155 -32 84.5 38.5 c 128,-1,6
 14 109 14 109 14 208 c 128,-1,7
 14 307 14 307 84.5 377 c 128,-1,0
 155 447 155 447 254 447 c 128,-1,1
254 423 m 128,-1,9
 165 423 165 423 102 360 c 128,-1,10
 39 297 39 297 39 208 c 128,-1,11
 39 119 39 119 102 56 c 128,-1,12
 165 -7 165 -7 254 -7 c 128,-1,13
 343 -7 343 -7 406 56 c 128,-1,14
 469 119 469 119 469 208 c 128,-1,15
 469 297 469 297 406 360 c 128,-1,8
 343 423 343 423 254 423 c 128,-1,9
387 55 m 1,16,-1
 315 55 l 1,17,18
 309 113 309 113 305 129 c 0,19,20
 288 201 288 201 254 202 c 2,21,-1
 222 203 l 1,22,-1
 223 103 l 2,23,24
 223 85 223 85 240 80 c 2,25,26
 261 73 l 1,27,-1
 260 55 l 1,28,29
 237 57 237 57 197.5 57 c 128,-1,30
 158 57 158 57 134 55 c 1,31,-1
 134 73 l 1,32,-1
 154 78 l 2,33,34
 172 82 172 82 173 89 c 2,35,36
 174 94 l 0,37,38
 175 98 175 98 175 105 c 2,39,-1
 175 330 l 1,40,41
 174 335 174 335 158 340 c 2,42,-1
 140 345 l 1,43,-1
 140 358 l 1,44,45
 169 358 169 358 217.5 357 c 128,-1,46
 266 356 266 356 278 356 c 0,47,48
 308 356 308 356 333.5 335.5 c 128,-1,49
 359 315 359 315 359 281 c 1,50,51
 358 257 358 257 334.5 235 c 128,-1,52
 311 213 311 213 280 212 c 1,53,54
 295 211 295 211 305 206 c 128,-1,55
 315 201 315 201 322.5 190 c 128,-1,56
 330 179 330 179 333.5 171.5 c 128,-1,57
 337 164 337 164 342 147 c 128,-1,58
 347 130 347 130 350 123 c 0,59,60
 358 101 358 101 363.5 91.5 c 128,-1,61
 369 82 369 82 373 79.5 c 128,-1,62
 377 77 377 77 387 74 c 1,63,-1
 387 55 l 1,16,-1
310 281 m 0,64,65
 310 307 310 307 301.5 324.5 c 128,-1,66
 293 342 293 342 275 342 c 0,67,68
 271 342 271 342 262.5 343 c 128,-1,69
 254 344 254 344 249 344 c 128,-1,70
 244 344 244 344 235 344 c 128,-1,71
 226 344 226 344 223 344 c 1,72,-1
 223 216 l 1,73,-1
 255 215 l 2,74,75
 285 215 285 215 297.5 236 c 128,-1,76
 310 257 310 257 310 281 c 0,64,65
EndSplineSet
EndChar

StartChar: acute
Encoding: 180 180 108
Width: 421
GlyphClass: 2
Flags: W
HStem: 457 163
VStem: 118 200
LayerCount: 2
Fore
SplineSet
118 475 m 1,0,-1
 287 620 l 1,1,-1
 318 572 l 1,2,-1
 129 457 l 1,3,-1
 118 475 l 1,0,-1
EndSplineSet
EndChar

StartChar: guillemotright
Encoding: 187 187 109
Width: 503
GlyphClass: 2
Flags: W
LayerCount: 2
Fore
SplineSet
58 380 m 1,0,-1
 283 209 l 1,1,-1
 283 183 l 1,2,-1
 68 20 l 1,3,-1
 68 43 l 1,4,-1
 209 187 l 1,5,-1
 209 201 l 1,6,-1
 58 362 l 1,7,-1
 58 380 l 1,0,-1
189 380 m 1,8,-1
 458 209 l 1,9,-1
 458 183 l 1,10,-1
 199 20 l 1,11,-1
 199 43 l 1,12,-1
 369 187 l 1,13,-1
 369 201 l 1,14,-1
 189 362 l 1,15,-1
 189 380 l 1,8,-1
EndSplineSet
EndChar

StartChar: questiondown
Encoding: 191 191 110
Width: 512
GlyphClass: 2
Flags: W
HStem: -22 22<222.39 307.903> 440 21<179.42 261.524> 532 116<189.534 272.466>
VStem: 62 97<60.3325 201.096> 172 118<547.987 632.013> 281 54<326.447 420.933> 307 131<107.562 184.702>
LayerCount: 2
Fore
SplineSet
120 354 m 1,0,-1
 97 369 l 1,1,2
 132 461 132 461 228 461 c 0,3,4
 262 461 262 461 298.5 433.5 c 128,-1,5
 335 406 335 406 335 371 c 0,6,7
 335 311 335 311 281 278 c 1,8,9
 264 269 264 269 242 254 c 128,-1,10
 220 239 220 239 201.5 223.5 c 128,-1,11
 183 208 183 208 171 184.5 c 128,-1,12
 159 161 159 161 159 133 c 0,13,14
 159 73 159 73 190 36.5 c 128,-1,15
 221 0 221 0 271 0 c 0,16,17
 305 0 305 0 336 33 c 128,-1,18
 367 66 367 66 372 96 c 1,19,20
 307 100 307 100 307 150 c 0,21,22
 307 177 307 177 324 194 c 128,-1,23
 341 211 341 211 372 211 c 0,24,25
 405 211 405 211 421.5 185.5 c 128,-1,26
 438 160 438 160 438 131 c 0,27,28
 438 88 438 88 385.5 33 c 128,-1,29
 333 -22 333 -22 264 -22 c 0,30,31
 234 -22 234 -22 202 -14 c 128,-1,32
 170 -6 170 -6 137 11.5 c 128,-1,33
 104 29 104 29 83 62.5 c 128,-1,34
 62 96 62 96 62 141 c 0,35,36
 62 221 62 221 157 268 c 0,37,38
 159 269 159 269 177.5 277 c 128,-1,39
 196 285 196 285 210 292.5 c 128,-1,40
 224 300 224 300 242 312.5 c 128,-1,41
 260 325 260 325 270.5 340.5 c 128,-1,42
 281 356 281 356 281 374 c 0,43,44
 281 441 281 441 226 440 c 0,45,46
 185 440 185 440 158.5 415.5 c 128,-1,47
 132 391 132 391 120 354 c 1,0,-1
290 590 m 0,48,49
 290 563 290 563 273 547.5 c 128,-1,50
 256 532 256 532 229.5 532 c 128,-1,51
 203 532 203 532 187.5 547 c 128,-1,52
 172 562 172 562 172 590 c 0,53,54
 172 617 172 617 189 632.5 c 128,-1,55
 206 648 206 648 232.5 648 c 128,-1,56
 259 648 259 648 274.5 633 c 128,-1,57
 290 618 290 618 290 590 c 0,48,49
EndSplineSet
EndChar

StartChar: AE
Encoding: 198 198 117
Width: 911
GlyphClass: 2
Flags: W
HStem: -5 20<38 86.6035 188.906 259 377 396 659.211 747.939> 3 17<566.23 747.939> 297 24<309 467 564 727.895> 379 20G<747.5 773> 603 21<562 745.791>
VStem: 467 97<45.7383 297 321 596> 754 19<220 264.408 364.875 399> 812 19<484 517.666> 817 23<102.859 152>
LayerCount: 2
Fore
SplineSet
467 321 m 1,0,-1
 469 596 l 1,1,2
 445 555 445 555 410.5 500 c 128,-1,3
 376 445 376 445 309 321 c 1,4,-1
 467 321 l 1,0,-1
377 0 m 1,5,-1
 377 16 l 1,6,-1
 396 18 l 2,7,8
 415 19 415 19 436 26.5 c 128,-1,9
 457 34 457 34 459 45 c 0,10,11
 463 67 463 67 467 297 c 1,12,-1
 298 297 l 1,13,-1
 168 74 l 2,14,15
 167 73 167 73 161.5 62 c 128,-1,16
 156 51 156 51 156 50 c 0,17,18
 156 20 156 20 260 17 c 1,19,-1
 259 -1 l 1,20,-1
 38 -5 l 1,21,-1
 38 15 l 1,22,23
 89 15 89 15 116 47 c 0,24,25
 136 72 136 72 454 626 c 1,26,27
 528 624 528 624 597 624 c 0,28,29
 712 624 712 624 828 629 c 1,30,-1
 831 484 l 1,31,-1
 812 484 l 1,32,33
 807 509 807 509 797 532.5 c 128,-1,34
 787 556 787 556 763 579.5 c 128,-1,35
 739 603 739 603 709 603 c 2,36,-1
 562 603 l 1,37,38
 562 438 562 438 564 321 c 1,39,-1
 699 321 l 2,40,41
 745 321 745 321 750 399 c 1,42,-1
 773 399 l 1,43,-1
 773 220 l 1,44,-1
 754 220 l 1,45,46
 749 298 749 298 696 298 c 2,47,-1
 564 298 l 1,48,-1
 563 27 l 1,49,50
 667 21 667 21 689 20 c 0,51,52
 715 20 715 20 749 23 c 1,53,54
 773 33 773 33 793 73 c 128,-1,55
 813 113 813 113 817 152 c 1,56,-1
 840 152 l 1,57,-1
 830 0 l 1,58,59
 759 3 759 3 656 3 c 0,60,61
 605 3 605 3 377 0 c 1,5,-1
EndSplineSet
EndChar

StartChar: Ccedilla
Encoding: 199 199 118
Width: 696
GlyphClass: 2
Flags: W
HStem: -193 22<341 405.285> -87 34<388 427.003> -23 31<386.354 404.96> -23 22<385 408> 613 35<321 470.5>
VStem: 55 132<79 416> 433 45<-151.224 -94.8619>
LayerCount: 2
Fore
SplineSet
385 -1 m 1,0,-1
 408 -2 l 1,1,-1
 388 -53 l 1,2,3
 442 -53 442 -53 460 -66 c 128,-1,4
 478 -79 478 -79 478 -105 c 0,5,6
 478 -138 478 -138 438 -165.5 c 128,-1,7
 398 -193 398 -193 339 -193 c 1,8,-1
 341 -171 l 1,9,10
 388 -171 388 -171 410.5 -159.5 c 128,-1,11
 433 -148 433 -148 433 -118 c 256,12,13
 433 -87 433 -87 348 -87 c 1,14,-1
 385 -1 l 1,0,-1
395 641 m 0,15,16
 453 641 453 641 505.5 623 c 128,-1,17
 558 605 558 605 574 586 c 1,18,19
 586 594 586 594 592.5 603 c 128,-1,20
 599 612 599 612 600.5 619 c 128,-1,21
 602 626 602 626 605 648 c 1,22,-1
 637 648 l 1,23,-1
 634 441 l 1,24,-1
 614 441 l 1,25,26
 601 522 601 522 544.5 567.5 c 128,-1,27
 488 613 488 613 387 613 c 0,28,29
 289 613 289 613 239 532 c 128,-1,30
 189 451 189 451 187 313 c 1,31,32
 187 8 187 8 401 8 c 0,33,34
 450 8 450 8 487 21.5 c 128,-1,35
 524 35 524 35 550.5 62 c 128,-1,36
 577 89 577 89 592.5 116 c 128,-1,37
 608 143 608 143 626 184 c 1,38,-1
 649 166 l 1,39,40
 571 -22 571 -22 399 -23 c 0,41,42
 247 -23 247 -23 151 63.5 c 128,-1,43
 55 150 55 150 55 306 c 0,44,45
 55 381 55 381 78 441 c 128,-1,46
 101 501 101 501 137 537 c 128,-1,47
 173 573 173 573 219.5 598 c 128,-1,48
 266 623 266 623 309.5 632 c 128,-1,49
 353 641 353 641 395 641 c 0,15,16
395 641 m 0,50,51
 453 641 453 641 505.5 623 c 128,-1,52
 558 605 558 605 574 586 c 1,53,54
 586 594 586 594 592.5 603 c 128,-1,55
 599 612 599 612 600.5 619 c 128,-1,56
 602 626 602 626 605 648 c 1,57,-1
 637 648 l 1,58,-1
 634 441 l 1,59,-1
 614 441 l 1,60,61
 601 522 601 522 544.5 567.5 c 128,-1,62
 488 613 488 613 387 613 c 0,63,64
 289 613 289 613 239 532 c 128,-1,65
 189 451 189 451 187 313 c 1,66,67
 187 8 187 8 401 8 c 0,68,69
 450 8 450 8 487 21.5 c 128,-1,70
 524 35 524 35 550.5 62 c 128,-1,71
 577 89 577 89 592.5 116 c 128,-1,72
 608 143 608 143 626 184 c 1,73,-1
 649 166 l 1,74,75
 571 -22 571 -22 399 -23 c 0,76,77
 247 -23 247 -23 151 63.5 c 128,-1,78
 55 150 55 150 55 306 c 0,79,80
 55 381 55 381 78 441 c 128,-1,81
 101 501 101 501 137 537 c 128,-1,82
 173 573 173 573 219.5 598 c 128,-1,83
 266 623 266 623 309.5 632 c 128,-1,84
 353 641 353 641 395 641 c 0,50,51
EndSplineSet
EndChar

StartChar: multiply
Encoding: 215 215 134
Width: 512
GlyphClass: 2
Flags: W
HStem: 390 20G<110.535 150.846 370 410.465>
LayerCount: 2
Fore
SplineSet
390 63 m 1,0,-1
 260 194 l 1,1,-1
 131 63 l 1,2,-1
 87 106 l 1,3,-1
 217 237 l 1,4,-1
 87 367 l 1,5,-1
 131 410 l 1,6,-1
 260 280 l 1,7,-1
 390 410 l 1,8,-1
 434 367 l 1,9,-1
 304 237 l 1,10,-1
 434 106 l 1,11,-1
 390 63 l 1,0,-1
EndSplineSet
EndChar

StartChar: ae
Encoding: 230 230 147
Width: 696
GlyphClass: 2
Flags: W
HStem: -18 45<148.068 243.823> -17 24<448.835 548.145> 220 13<263 302 389 566> 395 19<161.31 251.543 461.119 519.666>
VStem: 41 86<49.5585 169.13> 59 103<267.709 349.5> 302 86<67.392 217 234.016 341.345> 567 89<233.21 333.984>
LayerCount: 2
Fore
SplineSet
389 232 m 1,0,-1
 566 233 l 1,1,2
 567 250 567 250 567 265 c 0,3,4
 567 296 567 296 562 315 c 0,5,6
 554 347 554 347 530 367.5 c 128,-1,7
 506 388 506 388 470 388 c 0,8,9
 397 388 397 388 389 232 c 1,0,-1
317 73 m 1,10,11
 302 39 302 39 255.5 11 c 128,-1,12
 209 -17 209 -17 163 -18 c 1,13,14
 114 -18 114 -18 77.5 14.5 c 128,-1,15
 41 47 41 47 41 108 c 0,16,17
 41 132 41 132 51 150.5 c 128,-1,18
 61 169 61 169 76 182 c 128,-1,19
 91 195 91 195 114.5 204.5 c 128,-1,20
 138 214 138 214 157 219 c 128,-1,21
 176 224 176 224 203.5 227.5 c 128,-1,22
 231 231 231 231 245 231.5 c 128,-1,23
 259 232 259 232 281 233 c 2,24,-1
 302 234 l 2,25,26
 303 234 303 234 303 300 c 0,27,28
 303 342 303 342 276.5 368.5 c 128,-1,29
 250 395 250 395 203 395 c 0,30,31
 173 395 173 395 155 382 c 128,-1,32
 137 369 137 369 133 351 c 1,33,34
 162 351 162 351 162 304 c 0,35,36
 162 286 162 286 144.5 271.5 c 128,-1,37
 127 257 127 257 109 257 c 0,38,39
 90 257 90 257 74.5 274.5 c 128,-1,40
 59 292 59 292 59 313 c 0,41,42
 59 350 59 350 106 385 c 0,43,44
 144 414 144 414 212 414 c 0,45,46
 252 414 252 414 290 398 c 128,-1,47
 328 382 328 382 350 352 c 1,48,49
 407 406 407 406 492 407 c 0,50,51
 546 407 546 407 592.5 378 c 128,-1,52
 639 349 639 349 652 284 c 0,53,54
 656 264 656 264 656 244 c 0,55,56
 656 233 656 233 655 218 c 1,57,-1
 388 217 l 1,58,59
 388 208 388 208 388 202 c 128,-1,60
 388 196 388 196 388 193 c 128,-1,61
 388 190 388 190 388 189 c 0,62,63
 388 142 388 142 398 102 c 128,-1,64
 408 62 408 62 431.5 34.5 c 128,-1,65
 455 7 455 7 488 7 c 0,66,67
 546 7 546 7 580 41 c 128,-1,68
 614 75 614 75 628 112 c 1,69,-1
 655 92 l 1,70,71
 640 54 640 54 597.5 18.5 c 128,-1,72
 555 -17 555 -17 484 -17 c 0,73,74
 378 -17 378 -17 317 73 c 1,10,11
306 84 m 1,75,76
 306 103 306 103 304 139 c 128,-1,77
 302 175 302 175 302 204 c 0,78,79
 302 212 302 212 302 220 c 1,80,81
 282 218 282 218 263 216 c 128,-1,82
 244 214 244 214 226.5 211 c 128,-1,83
 209 208 209 208 193.5 204 c 128,-1,84
 178 200 178 200 166 192 c 128,-1,85
 154 184 154 184 145 175 c 128,-1,86
 136 166 136 166 131.5 151.5 c 128,-1,87
 127 137 127 137 127 119 c 0,88,89
 127 73 127 73 147.5 50 c 128,-1,90
 168 27 168 27 203 27 c 0,91,92
 233 27 233 27 264 45.5 c 128,-1,93
 295 64 295 64 306 84 c 1,75,76
EndSplineSet
EndChar

StartChar: ccedilla
Encoding: 231 231 148
Width: 434
GlyphClass: 2
Flags: W
HStem: -193 22<195 259.285> -87 34<242 281.003> -15 14<239 260.857> 220 107<305.545 372.5> 397 18<220.896 309.546>
VStem: 51 90<94.4668 307.35> 287 45<-151.224 -94.8619> 297 116<240.63 312.475>
LayerCount: 2
Fore
SplineSet
239 -1 m 1,0,-1
 261 -2 l 1,1,-1
 242 -53 l 1,2,3
 296 -53 296 -53 314 -66 c 128,-1,4
 332 -79 332 -79 332 -105 c 0,5,6
 332 -138 332 -138 292 -165.5 c 128,-1,7
 252 -193 252 -193 193 -193 c 1,8,-1
 195 -171 l 1,9,10
 242 -171 242 -171 264.5 -159.5 c 128,-1,11
 287 -148 287 -148 287 -118 c 256,12,13
 287 -87 287 -87 202 -87 c 1,14,-1
 239 -1 l 1,0,-1
257 415 m 0,15,16
 314 415 314 415 363.5 381.5 c 128,-1,17
 413 348 413 348 413 299 c 0,18,19
 413 260 413 260 393 240 c 128,-1,20
 373 220 373 220 353 220 c 0,21,22
 297 220 297 220 297 274 c 0,23,24
 297 296 297 296 310 311.5 c 128,-1,25
 323 327 323 327 339 327 c 0,26,27
 357 327 357 327 373 313 c 1,28,29
 353 397 353 397 255 397 c 0,30,31
 207 397 207 397 174 338 c 128,-1,32
 141 279 141 279 141 190 c 0,33,34
 141 123 141 123 176.5 70.5 c 128,-1,35
 212 18 212 18 264 18 c 0,36,37
 296 18 296 18 319 28 c 128,-1,38
 342 38 342 38 356 58.5 c 128,-1,39
 370 79 370 79 374 88 c 128,-1,40
 378 97 378 97 386 118 c 1,41,-1
 414 98 l 1,42,43
 399 59 399 59 358.5 22 c 128,-1,44
 318 -15 318 -15 255 -15 c 0,45,46
 161 -15 161 -15 106 42 c 128,-1,47
 51 99 51 99 51 210 c 0,48,49
 51 264 51 264 72 305.5 c 128,-1,50
 93 347 93 347 126 369.5 c 128,-1,51
 159 392 159 392 192 403.5 c 128,-1,52
 225 415 225 415 257 415 c 0,15,16
EndSplineSet
EndChar

StartChar: divide
Encoding: 247 247 163
Width: 512
GlyphClass: 2
Flags: W
HStem: 51 93<212.861 285.446> 188 62<46 475> 302 93<212.861 285.446>
VStem: 201 90<66.4695 137.439 317.469 388.439>
LayerCount: 2
Fore
SplineSet
244 395 m 0,0,1
 291 395 291 395 291 352 c 0,2,3
 291 302 291 302 244 302 c 0,4,5
 224 302 224 302 212.5 317 c 128,-1,6
 201 332 201 332 201 350 c 0,7,8
 201 369 201 369 215 382 c 128,-1,9
 229 395 229 395 244 395 c 0,0,1
46 250 m 1,10,-1
 475 250 l 1,11,-1
 475 188 l 1,12,-1
 46 188 l 1,13,-1
 46 250 l 1,10,-1
244 144 m 0,14,15
 291 144 291 144 291 101 c 0,16,17
 291 51 291 51 244 51 c 0,18,19
 224 51 224 51 212.5 66 c 128,-1,20
 201 81 201 81 201 99 c 0,21,22
 201 118 201 118 215 131 c 128,-1,23
 229 144 229 144 244 144 c 0,14,15
EndSplineSet
EndChar

StartChar: aogonek
Encoding: 261 261 175
Width: 458
GlyphClass: 2
Flags: W
HStem: -227 24<299.721 366.919> -9 45<157.7 238.27> -7 11<348 377> 205.5 14<195.218 297> 395 19<170.774 258.526>
VStem: 51 86<55.9403 170.063> 70 102<268.863 349.5> 197 78<-186.867 -74.7215> 300 83<67.2798 212 226.018 345.923> 453 15<57.2502 78.3008>
LayerCount: 2
Fore
SplineSet
197 -134 m 0,0,1
 197 -96 197 -96 226.5 -66.5 c 128,-1,2
 256 -37 256 -37 286 -24 c 0,3,4
 348 4 348 4 371 4 c 0,5,6
 377 4 377 4 380 -5 c 1,7,8
 369 -10 369 -10 355.5 -19 c 128,-1,9
 342 -28 342 -28 321.5 -43 c 128,-1,10
 301 -58 301 -58 288 -79 c 128,-1,11
 275 -100 275 -100 275 -123 c 0,12,13
 275 -166 275 -166 292 -184.5 c 128,-1,14
 309 -203 309 -203 333 -203 c 0,15,16
 358 -203 358 -203 382 -178.5 c 128,-1,17
 406 -154 406 -154 407 -132 c 1,18,19
 408 -133 408 -133 418 -137.5 c 128,-1,20
 428 -142 428 -142 431 -145 c 1,21,22
 420 -176 420 -176 389.5 -201.5 c 128,-1,23
 359 -227 359 -227 315 -227 c 0,24,25
 261 -227 261 -227 229 -201 c 128,-1,26
 197 -175 197 -175 197 -134 c 0,0,1
453 83 m 1,27,-1
 468 74 l 1,28,29
 455 -7 455 -7 372 -7 c 0,30,31
 338 -7 338 -7 321 15.5 c 128,-1,32
 304 38 304 38 301 69 c 1,33,34
 281 46 281 46 270.5 36 c 128,-1,35
 260 26 260 26 231 8.5 c 128,-1,36
 202 -9 202 -9 173 -9 c 0,37,38
 123 -9 123 -9 87 19 c 128,-1,39
 51 47 51 47 51 108 c 0,40,41
 51 135 51 135 62.5 155 c 128,-1,42
 74 175 74 175 94.5 187.5 c 128,-1,43
 115 200 115 200 136 208 c 128,-1,44
 157 216 157 216 185 219.5 c 128,-1,45
 213 223 213 223 231.5 224 c 128,-1,46
 250 225 250 225 272.5 225.5 c 128,-1,47
 295 226 295 226 297 226 c 0,48,49
 300 226 300 226 300 300 c 0,50,51
 300 395 300 395 213 395 c 0,52,53
 183 395 183 395 165 382 c 128,-1,54
 147 369 147 369 143 351 c 1,55,56
 172 351 172 351 172 307 c 0,57,58
 172 280 172 280 154 268.5 c 128,-1,59
 136 257 136 257 119 257 c 0,60,61
 100 257 100 257 85 274.5 c 128,-1,62
 70 292 70 292 70 313 c 0,63,64
 70 350 70 350 117 385 c 0,65,66
 155 414 155 414 222 414 c 0,67,68
 285 414 285 414 334 375 c 128,-1,69
 383 336 383 336 383 269 c 0,70,71
 383 236 383 236 381 177 c 128,-1,72
 379 118 379 118 379 92 c 0,73,74
 379 25 379 25 410 26 c 0,75,76
 428 26 428 26 437 39 c 128,-1,77
 446 52 446 52 453 83 c 1,27,-1
297 94 m 1,78,-1
 297 212 l 1,79,80
 262 209 262 209 232.5 205.5 c 128,-1,81
 203 202 203 202 182 194.5 c 128,-1,82
 161 187 161 187 149 169 c 128,-1,83
 137 151 137 151 137 119 c 0,84,85
 137 76 137 76 158.5 56 c 128,-1,86
 180 36 180 36 213 36 c 0,87,88
 265 36 265 36 297 94 c 1,78,-1
EndSplineSet
EndChar

StartChar: eogonek
Encoding: 281 281 195
Width: 442
GlyphClass: 2
Flags: W
HStem: -227 24<217.88 284.701> -17 13<248 297.781> 217 15<151 331> 388 19<202.681 277.406>
VStem: 51 99<82.5 217 232 298.98> 115 79<-186.867 -74.7486> 332 89<233.21 333.877>
LayerCount: 2
Fore
SplineSet
115 -134 m 0,0,1
 115 -96 115 -96 144.5 -66.5 c 128,-1,2
 174 -37 174 -37 204 -24 c 0,3,4
 248 -5 248 -5 283 -4 c 0,5,6
 291 -4 291 -4 298 -5 c 1,7,8
 292 -9 292 -9 280 -16.5 c 128,-1,9
 268 -24 268 -24 253.5 -36 c 128,-1,10
 239 -48 239 -48 225.5 -61 c 128,-1,11
 212 -74 212 -74 203 -91 c 128,-1,12
 194 -108 194 -108 194 -123 c 0,13,14
 194 -166 194 -166 210.5 -184.5 c 128,-1,15
 227 -203 227 -203 251 -203 c 0,16,17
 276 -203 276 -203 300 -178.5 c 128,-1,18
 324 -154 324 -154 325 -132 c 1,19,20
 326 -133 326 -133 336 -137.5 c 128,-1,21
 346 -142 346 -142 349 -145 c 1,22,23
 338 -176 338 -176 308 -201.5 c 128,-1,24
 278 -227 278 -227 233 -227 c 0,25,26
 179 -227 179 -227 147 -201 c 128,-1,27
 115 -175 115 -175 115 -134 c 0,0,1
151 232 m 1,28,-1
 331 233 l 1,29,30
 332 250 332 250 332 265 c 0,31,32
 332 296 332 296 327 315 c 0,33,34
 319 347 319 347 294.5 367.5 c 128,-1,35
 270 388 270 388 234 388 c 0,36,37
 197 388 197 388 176 346 c 128,-1,38
 155 304 155 304 151 232 c 1,28,-1
150 217 m 1,39,-1
 150 195 l 2,40,41
 150 123 150 123 176.5 65 c 128,-1,42
 203 7 203 7 253 7 c 0,43,44
 311 7 311 7 345 41 c 128,-1,45
 379 75 379 75 392 112 c 1,46,-1
 420 92 l 1,47,48
 405 54 405 54 362 18.5 c 128,-1,49
 319 -17 319 -17 249 -17 c 0,50,51
 164 -17 164 -17 107.5 36 c 128,-1,52
 51 89 51 89 51 190 c 0,53,54
 51 249 51 249 70.5 293.5 c 128,-1,55
 90 338 90 338 122.5 361.5 c 128,-1,56
 155 385 155 385 188 396 c 128,-1,57
 221 407 221 407 256 407 c 0,58,59
 310 407 310 407 356.5 378 c 128,-1,60
 403 349 403 349 417 284 c 0,61,62
 421 264 421 264 421 244 c 0,63,64
 421 233 421 233 420 218 c 1,65,-1
 150 217 l 1,39,-1
EndSplineSet
EndChar

StartChar: iogonek
Encoding: 303 303 217
Width: 262
GlyphClass: 2
Flags: W
HStem: -227 24<138.581 205.766> 0 16<71 121.324 227.482 284> 3 4<142.5 263.356> 383 16<71 126.294> 524 117<128.881 212.951>
VStem: 36 79<-186.867 -73.619> 115 116<542.049 626.977> 134 80<21.1123 378.896>
LayerCount: 2
Fore
SplineSet
36 -134 m 0,0,1
 36 -96 36 -96 65.5 -64.5 c 128,-1,2
 95 -33 95 -33 123 -22 c 0,3,4
 174 -3 174 -3 181 0 c 0,5,6
 210 7 210 7 231 7 c 0,7,8
 244 7 244 7 246 4 c 1,9,10
 231 -2 l 0,11,12
 216 -8 216 -8 200.5 -16 c 128,-1,13
 185 -24 185 -24 173 -32 c 0,14,15
 115 -70 115 -70 115 -123 c 0,16,17
 115 -166 115 -166 131.5 -184.5 c 128,-1,18
 148 -203 148 -203 172 -203 c 0,19,20
 197 -203 197 -203 221 -178.5 c 128,-1,21
 245 -154 245 -154 246 -132 c 1,22,23
 247 -133 247 -133 257 -137.5 c 128,-1,24
 267 -142 267 -142 270 -145 c 1,25,26
 259 -176 259 -176 229 -201.5 c 128,-1,27
 199 -227 199 -227 155 -227 c 0,28,29
 101 -227 101 -227 68.5 -201 c 128,-1,30
 36 -175 36 -175 36 -134 c 0,0,1
216 422 m 1,31,32
 214 249 214 249 214 37 c 1,33,34
 218 17 218 17 284 16 c 1,35,-1
 284 0 l 1,36,37
 243 3 243 3 175 3 c 0,38,39
 110 3 110 3 71 0 c 1,40,-1
 71 16 l 1,41,42
 131 18 131 18 134 37 c 1,43,-1
 134 373 l 1,44,45
 103 383 103 383 71 383 c 1,46,-1
 71 399 l 1,47,48
 161 404 161 404 216 422 c 1,31,32
170 641 m 0,49,50
 193 641 193 641 212 624.5 c 128,-1,51
 231 608 231 608 231 586 c 0,52,53
 231 559 231 559 213.5 541.5 c 128,-1,54
 196 524 196 524 170 524 c 0,55,56
 151 524 151 524 133 540 c 128,-1,57
 115 556 115 556 115 580 c 0,58,59
 115 605 115 605 132.5 623 c 128,-1,60
 150 641 150 641 170 641 c 0,49,50
EndSplineSet
EndChar

StartChar: dotlessi
Encoding: 305 305 219
Width: 262
GlyphClass: 2
Flags: W
HStem: 0 16<40 90.324 196.482 253> 383 16<40 95.2942>
VStem: 103 80<21.1123 378.896>
LayerCount: 2
Fore
SplineSet
185 422 m 1,0,1
 183 249 183 249 183 37 c 1,2,3
 187 17 187 17 253 16 c 1,4,-1
 253 0 l 1,5,6
 212 3 212 3 144 3 c 0,7,8
 79 3 79 3 40 0 c 1,9,-1
 40 16 l 1,10,11
 100 18 100 18 103 37 c 1,12,-1
 103 373 l 1,13,14
 72 383 72 383 40 383 c 1,15,-1
 40 399 l 1,16,17
 130 404 130 404 185 422 c 1,0,1
EndSplineSet
EndChar

StartChar: jcircumflex
Encoding: 309 309 223
Width: 286
GlyphClass: 2
Flags: W
HStem: -209 30<10.0311 88.9756> 383 16<47 103.982>
VStem: -62 99<-151.036 -81.0831> 111 79<-111.976 378.912>
LayerCount: 2
Fore
SplineSet
193 422 m 1,0,1
 191 249 191 249 190 -14 c 0,2,3
 190 -98 190 -98 138.5 -153.5 c 128,-1,4
 87 -209 87 -209 37 -209 c 0,5,6
 4 -209 4 -209 -29 -189 c 128,-1,7
 -62 -169 -62 -169 -62 -138 c 0,8,9
 -62 -99 -62 -99 -46 -80.5 c 128,-1,10
 -30 -62 -30 -62 -6 -62 c 0,11,12
 12 -62 12 -62 24.5 -76 c 128,-1,13
 37 -90 37 -90 37 -108 c 0,14,15
 37 -147 37 -147 5 -155 c 1,16,17
 8 -166 8 -166 21.5 -172.5 c 128,-1,18
 35 -179 35 -179 48 -179 c 0,19,20
 88 -179 88 -179 103 -151 c 0,21,22
 110 -138 110 -138 111 -14 c 2,23,-1
 111 373 l 1,24,25
 101 377 101 377 91.5 378.5 c 128,-1,26
 82 380 82 380 69 381 c 128,-1,27
 56 382 56 382 47 383 c 1,28,-1
 47 399 l 1,29,30
 97 399 97 399 193 422 c 1,0,1
15 458 m 1,31,-1
 154 609 l 1,32,-1
 276 461 l 1,33,-1
 263 450 l 1,34,-1
 151 553 l 1,35,-1
 30 450 l 1,36,-1
 15 458 l 1,31,-1
EndSplineSet
EndChar

StartChar: kgreenlandic
Encoding: 312 312 226
Width: 555
GlyphClass: 2
Flags: W
HStem: 0 16<49 88.4174 228.005 272 480.807 521> 374 21<294.03 313.159 397.842 463> 383 16<49 101.125> 390 20G<183.5 204.706>
VStem: 127 76<40.6511 180 206 374.149>
LayerCount: 2
Fore
SplineSet
217 197 m 1,0,-1
 203 180 l 1,1,2
 203 40 l 0,3,4
 203 31 203 31 228 24 c 128,-1,5
 253 17 253 17 272 16 c 1,6,-1
 272 0 l 1,7,8
 234 3 234 3 168 3 c 0,9,10
 97 3 97 3 49 0 c 1,11,-1
 49 16 l 1,12,13
 66 17 66 17 92.5 25 c 128,-1,14
 119 33 119 33 121 40 c 0,15,16
 127 60 127 60 127 187 c 0,17,18
 127 197 127 197 126 207 c 1,19,20
 126 265 126 265 123 362 c 1,21,22
 111 380 111 380 49 383 c 1,23,-1
 49 399 l 1,24,25
 162 399 162 399 205 410 c 1,26,-1
 202 206 l 1,27,-1
 302 321 l 2,28,29
 316 338 316 338 316 353 c 0,30,31
 316 370 316 370 294 374 c 1,32,-1
 294 382 l 2,33,34
 294 390 294 390 295 395 c 1,35,-1
 463 395 l 1,36,-1
 463 376 l 1,37,38
 380 368 380 368 346 336 c 1,39,-1
 266 238 l 1,40,41
 304 199 304 199 340.5 158 c 128,-1,42
 377 117 377 117 409 83 c 0,43,44
 476 12 476 12 521 12 c 1,45,-1
 521 -2 l 1,46,-1
 383 -4 l 1,47,48
 371 19 371 19 339.5 57.5 c 128,-1,49
 308 96 308 96 277 130 c 128,-1,50
 246 164 246 164 217 197 c 1,0,-1
EndSplineSet
EndChar

StartChar: oe
Encoding: 339 339 251
Width: 442
GlyphClass: 2
Flags: W
HStem: -17 25<206.111 301.689 507.464 611.94> 217 15<446 627> 388 19<504.334 573.406> 397 20<207.085 291.232>
VStem: 41 92<89.5879 307.003> 368 77<76.4873 217 232 313.58> 628 89<233.21 333.877>
LayerCount: 2
Fore
SplineSet
399 75 m 1,0,1
 377 47 377 47 360.5 30 c 128,-1,2
 344 13 344 13 314.5 -2 c 128,-1,3
 285 -17 285 -17 251 -17 c 0,4,5
 41 -17 41 -17 41 212 c 0,6,7
 41 301 41 301 103 359 c 128,-1,8
 165 417 165 417 243 417 c 0,9,10
 320 417 320 417 401 315 c 1,11,12
 475 406 475 406 552 407 c 0,13,14
 606 407 606 407 652.5 378 c 128,-1,15
 699 349 699 349 713 284 c 0,16,17
 717 264 717 264 717 244 c 0,18,19
 717 233 717 233 716 218 c 1,20,-1
 445 217 l 1,21,-1
 445 195 l 2,22,23
 445 123 445 123 472 65 c 128,-1,24
 499 7 499 7 549 7 c 0,25,26
 607 7 607 7 641 41 c 128,-1,27
 675 75 675 75 688 112 c 1,28,-1
 716 92 l 1,29,30
 701 54 701 54 658 18.5 c 128,-1,31
 615 -17 615 -17 545 -17 c 0,32,33
 470 -17 470 -17 399 75 c 1,0,1
627 233 m 1,34,35
 628 250 628 250 628 265 c 0,36,37
 628 296 628 296 623 315 c 0,38,39
 615 347 615 347 590.5 367.5 c 128,-1,40
 566 388 566 388 530 388 c 0,41,42
 493 388 493 388 472 346 c 128,-1,43
 451 304 451 304 446 232 c 1,44,-1
 627 233 l 1,34,35
368 202 m 0,45,46
 368 280 368 280 336 338.5 c 128,-1,47
 304 397 304 397 252 397 c 0,48,49
 217 397 217 397 192 378 c 128,-1,50
 167 359 167 359 155 326.5 c 128,-1,51
 143 294 143 294 138 262 c 128,-1,52
 133 230 133 230 133 195 c 0,53,54
 133 112 133 112 165 60 c 128,-1,55
 197 8 197 8 254 8 c 0,56,57
 308 8 308 8 338 58 c 128,-1,58
 368 108 368 108 368 202 c 0,45,46
EndSplineSet
EndChar

StartChar: Scedilla
Encoding: 350 350 262
Width: 587
GlyphClass: 2
Flags: W
HStem: -193 22<247 311.285> -87 34<294 333.003> -15 14<291 313> 618 20G<464.5 486> 634 19<255.523 357.301>
VStem: 85 20<144.595 181> 108 78<462.182 575.48> 339 45<-151.224 -94.8619> 428 106<82.0282 205.58> 464 19<444 518.242>
LayerCount: 2
Fore
SplineSet
291 -1 m 1,0,-1
 313 -2 l 1,1,-1
 294 -53 l 1,2,3
 348 -53 348 -53 366 -66 c 128,-1,4
 384 -79 384 -79 384 -105 c 0,5,6
 384 -138 384 -138 344 -165.5 c 128,-1,7
 304 -193 304 -193 245 -193 c 1,8,-1
 247 -171 l 1,9,10
 294 -171 294 -171 316.5 -159.5 c 128,-1,11
 339 -148 339 -148 339 -118 c 256,12,13
 339 -87 339 -87 254 -87 c 1,14,-1
 291 -1 l 1,0,-1
301 653 m 0,15,16
 378 653 378 653 432 596 c 1,17,18
 457 599 457 599 472 638 c 1,19,-1
 486 638 l 1,20,-1
 483 444 l 1,21,-1
 464 444 l 1,22,23
 461 479 461 479 456 510.5 c 128,-1,24
 451 542 451 542 434 565 c 0,25,26
 387 634 387 634 299 634 c 0,27,28
 252 634 252 634 219 597.5 c 128,-1,29
 186 561 186 561 186 522 c 0,30,31
 186 480 186 480 226 443 c 128,-1,32
 266 406 266 406 332 382 c 0,33,34
 423 348 423 348 478.5 295 c 128,-1,35
 534 242 534 242 534 176 c 0,36,37
 534 91 534 91 478 38 c 128,-1,38
 422 -15 422 -15 292 -15 c 0,39,40
 264 -15 264 -15 238 -9 c 128,-1,41
 212 -3 212 -3 195.5 6 c 128,-1,42
 179 15 179 15 163.5 24.5 c 128,-1,43
 148 34 148 34 141 40 c 1,44,45
 121 31 121 31 104 -1 c 1,46,-1
 83 -1 l 1,47,-1
 85 181 l 1,48,-1
 105 181 l 1,49,50
 122 99 122 99 163.5 54 c 128,-1,51
 205 9 205 9 288 9 c 0,52,53
 428 9 428 9 428 144 c 0,54,55
 428 232 428 232 280 284 c 0,56,57
 200 312 200 312 154 363.5 c 128,-1,58
 108 415 108 415 108 473 c 0,59,60
 107 653 107 653 301 653 c 0,15,16
EndSplineSet
EndChar

StartChar: scedilla
Encoding: 351 351 263
Width: 399
GlyphClass: 2
Flags: W
HStem: -193 22<148 213.188> -87 34<196 235.003> -13 12<193 215> -2 21G<62.7143 85.4483> 391 20G<312 333> 403 17<171.733 255.058>
VStem: 63 19<-2 16.3744 84.9484 136> 68 69<288.528 365.648> 241 45<-151.224 -94.8619> 293 72<36.9858 126.343> 313 18<285 306.5 381 411>
LayerCount: 2
Fore
SplineSet
193 -1 m 1,0,-1
 215 -2 l 1,1,-1
 196 -53 l 1,2,3
 250 -53 250 -53 268 -66 c 128,-1,4
 286 -79 286 -79 286 -105 c 0,5,6
 286 -138 286 -138 246 -165.5 c 128,-1,7
 206 -193 206 -193 146 -193 c 1,8,-1
 148 -171 l 1,9,10
 195 -171 195 -171 218 -159.5 c 128,-1,11
 241 -148 241 -148 241 -118 c 256,12,13
 241 -87 241 -87 156 -87 c 1,14,-1
 193 -1 l 1,0,-1
199 -13 m 0,15,16
 179 -13 179 -13 151 -3 c 128,-1,17
 123 7 123 7 104 16 c 1,18,-1
 87 27 l 1,19,-1
 82 -2 l 1,20,-1
 63 -2 l 1,21,-1
 61 138 l 1,22,-1
 78 136 l 1,23,24
 83 87 83 87 114 46.5 c 128,-1,25
 145 6 145 6 199 6 c 0,26,27
 293 6 293 6 293 82 c 0,28,29
 293 137 293 137 174 180 c 0,30,31
 123 198 123 198 95.5 223 c 128,-1,32
 68 248 68 248 68 291 c 0,33,34
 68 351 68 351 109 385.5 c 128,-1,35
 150 420 150 420 217 420 c 0,36,37
 246 420 246 420 269.5 410 c 128,-1,38
 293 400 293 400 302 391 c 2,39,-1
 311 381 l 1,40,-1
 314 411 l 1,41,-1
 333 411 l 1,42,-1
 331 285 l 1,43,-1
 313 285 l 1,44,45
 311 299 311 299 310 306.5 c 128,-1,46
 309 314 309 314 305 331.5 c 128,-1,47
 301 349 301 349 294 359 c 128,-1,48
 287 369 287 369 276 380.5 c 128,-1,49
 265 392 265 392 247 397.5 c 128,-1,50
 229 403 229 403 207 403 c 0,51,52
 176 403 176 403 156.5 383.5 c 128,-1,53
 137 364 137 364 137 334 c 0,54,55
 137 317 137 317 144.5 303.5 c 128,-1,56
 152 290 152 290 165.5 280.5 c 128,-1,57
 179 271 179 271 192 265.5 c 128,-1,58
 205 260 205 260 225 253 c 128,-1,59
 245 246 245 246 255 242 c 0,60,61
 365 193 365 193 365 122 c 0,62,63
 365 50 365 50 325 18.5 c 128,-1,64
 285 -13 285 -13 199 -13 c 0,15,16
EndSplineSet
EndChar

StartChar: uogonek
Encoding: 371 371 283
Width: 555
GlyphClass: 2
Flags: W
HStem: -227 24<385.721 452.919> -22 20G<449.5 461> -11 28<228.774 296.755> 4 12<490.965 537> 379 16<61 117.837 336 385.632> 386 20G<177.5 205.854 456.5 482.196>
VStem: 121 83<33.2698 376.742> 283 78<-186.867 -74.5987> 395 88<227.696 375.613> 395 80<147 375.613>
LayerCount: 2
Fore
SplineSet
283 -134 m 0,0,1
 283 -96 283 -96 312.5 -66.5 c 128,-1,2
 342 -37 342 -37 372 -24 c 0,3,4
 388 -17 388 -17 415 -9.5 c 128,-1,5
 442 -2 442 -2 457 -2 c 0,6,7
 465 -2 465 -2 466 -5 c 1,8,9
 451 -12 451 -12 430 -26.5 c 128,-1,10
 409 -41 409 -41 385 -69 c 128,-1,11
 361 -97 361 -97 361 -123 c 0,12,13
 361 -166 361 -166 378 -184.5 c 128,-1,14
 395 -203 395 -203 419 -203 c 0,15,16
 444 -203 444 -203 468 -178.5 c 128,-1,17
 492 -154 492 -154 493 -132 c 1,18,19
 494 -133 494 -133 504 -137.5 c 128,-1,20
 514 -142 514 -142 517 -145 c 1,21,22
 506 -176 506 -176 475.5 -201.5 c 128,-1,23
 445 -227 445 -227 401 -227 c 0,24,25
 347 -227 347 -227 315 -201 c 128,-1,26
 283 -175 283 -175 283 -134 c 0,0,1
61 395 m 1,27,28
 149 395 149 395 206 406 c 1,29,-1
 204 132 l 1,30,31
 206 17 206 17 258 17 c 0,32,33
 287 17 287 17 314 37.5 c 128,-1,34
 341 58 341 58 358 82 c 128,-1,35
 375 106 375 106 385 127 c 2,36,-1
 395 147 l 1,37,-1
 395 367 l 1,38,39
 376 379 376 379 336 379 c 1,40,-1
 336 395 l 1,41,42
 430 395 430 395 483 406 c 1,43,-1
 475 207 l 2,44,45
 475 185 475 185 475 157 c 2,46,-1
 476 28 l 1,47,48
 488 18 488 18 537 16 c 1,49,-1
 537 4 l 1,50,51
 461 0 461 0 400 -15 c 1,52,-1
 393 94 l 1,53,-1
 381 78 l 2,54,55
 369 62 369 62 350 42 c 128,-1,56
 331 22 331 22 302 5.5 c 128,-1,57
 273 -11 273 -11 246 -11 c 0,58,59
 177 -11 177 -11 149 25 c 128,-1,60
 121 61 121 61 121 130 c 2,61,-1
 120 371 l 1,62,63
 104 379 104 379 61 379 c 1,64,-1
 61 395 l 1,27,28
EndSplineSet
EndChar

StartChar: circumflex
Encoding: 710 710 295
Width: 421
GlyphClass: 2
Flags: W
HStem: 450 159
VStem: 76 261
LayerCount: 2
Fore
SplineSet
76 458 m 1,0,-1
 214 609 l 1,1,-1
 337 461 l 1,2,-1
 324 450 l 1,3,-1
 211 553 l 1,4,-1
 90 450 l 1,5,-1
 76 458 l 1,0,-1
EndSplineSet
EndChar

StartChar: caron
Encoding: 711 711 296
Width: 421
GlyphClass: 2
Flags: W
HStem: 450 159
VStem: 73 259
LayerCount: 2
Fore
SplineSet
332 596 m 1,0,-1
 199 450 l 1,1,-1
 73 598 l 1,2,-1
 86 609 l 1,3,-1
 203 503 l 1,4,-1
 319 609 l 1,5,-1
 332 596 l 1,0,-1
EndSplineSet
EndChar

StartChar: ring
Encoding: 730 730 297
Width: 217
GlyphClass: 2
Flags: W
HStem: 489 27<86.0063 156.879> 632 25<86.8161 153.246>
VStem: 37 33<529.925 617.672> 170 35<525.436 618.023>
LayerCount: 2
Fore
SplineSet
121 657 m 128,-1,1
 157 657 157 657 181 634 c 128,-1,2
 205 611 205 611 205 575 c 256,3,4
 205 539 205 539 181 514 c 128,-1,5
 157 489 157 489 121 489 c 128,-1,6
 85 489 85 489 61 514 c 128,-1,7
 37 539 37 539 37 574.5 c 128,-1,8
 37 610 37 610 61 633.5 c 128,-1,0
 85 657 85 657 121 657 c 128,-1,1
70 573 m 256,9,10
 70 545 70 545 84.5 530.5 c 128,-1,11
 99 516 99 516 121 516 c 0,12,13
 170 516 170 516 170 573 c 0,14,15
 170 601 170 601 156.5 616.5 c 128,-1,16
 143 632 143 632 120 632 c 128,-1,17
 97 632 97 632 83.5 616.5 c 128,-1,18
 70 601 70 601 70 573 c 256,9,10
EndSplineSet
EndChar

StartChar: tilde
Encoding: 732 732 298
Width: 256
GlyphClass: 2
Flags: W
HStem: 259 48<137.564 224.59> 326 43<33.6494 105.309>
VStem: 6 12<275 293.913> 234 16<326.695 368>
LayerCount: 2
Fore
SplineSet
18 274 m 1,0,-1
 6 275 l 1,1,2
 6 303 6 303 25.5 336 c 128,-1,3
 45 369 45 369 74 369 c 0,4,5
 92 369 92 369 109.5 353.5 c 128,-1,6
 127 338 127 338 145.5 322.5 c 128,-1,7
 164 307 164 307 184 307 c 0,8,9
 215 307 215 307 224.5 323.5 c 128,-1,10
 234 340 234 340 234 368 c 1,11,-1
 250 368 l 1,12,13
 250 354 250 354 247.5 339 c 128,-1,14
 245 324 245 324 238 304.5 c 128,-1,15
 231 285 231 285 216 272 c 128,-1,16
 201 259 201 259 178 259 c 0,17,18
 159 259 159 259 142.5 270 c 128,-1,19
 126 281 126 281 116 293 c 128,-1,20
 106 305 106 305 94 315.5 c 128,-1,21
 82 326 82 326 70 326 c 0,22,23
 51 326 51 326 34.5 308.5 c 128,-1,24
 18 291 18 291 18 274 c 1,0,-1
EndSplineSet
EndChar

StartChar: hungarumlaut
Encoding: 733 733 299
Width: 459
GlyphClass: 2
Flags: W
HStem: 431 207
VStem: 106 275
LayerCount: 2
Fore
SplineSet
106 444 m 1,0,-1
 216 638 l 1,1,-1
 262 604 l 1,2,-1
 123 431 l 1,3,-1
 106 444 l 1,0,-1
225 444 m 1,4,-1
 335 638 l 1,5,-1
 381 604 l 1,6,-1
 242 431 l 1,7,-1
 225 444 l 1,4,-1
EndSplineSet
EndChar

StartChar: pi
Encoding: 960 960 300
Width: 512
GlyphClass: 2
Flags: W
HStem: -32 25<181.053 326.947> 59 19<163 182 258.714 294> 190 17<252.078 315.3> 333.5 19<169 185 252 328.683> 423 24<183.646 324.354>
VStem: 14 25<135.053 280.909> 203.5 48.5<96.2603 196 207.07 333.938> 342 48<223.516 322.69> 469 25<135.053 280.909>
LayerCount: 2
Fore
SplineSet
254 447 m 128,-1,1
 353 447 353 447 423.5 377 c 128,-1,2
 494 307 494 307 494 208 c 128,-1,3
 494 109 494 109 423.5 38.5 c 128,-1,4
 353 -32 353 -32 254 -32 c 128,-1,5
 155 -32 155 -32 84.5 38.5 c 128,-1,6
 14 109 14 109 14 208 c 128,-1,7
 14 307 14 307 84.5 377 c 128,-1,0
 155 447 155 447 254 447 c 128,-1,1
254 423 m 128,-1,9
 165 423 165 423 102 360 c 128,-1,10
 39 297 39 297 39 208 c 128,-1,11
 39 119 39 119 102 56 c 128,-1,12
 165 -7 165 -7 254 -7 c 128,-1,13
 343 -7 343 -7 406 56 c 128,-1,14
 469 119 469 119 469 208 c 128,-1,15
 469 297 469 297 406 360 c 128,-1,8
 343 423 343 423 254 423 c 128,-1,9
390 275 m 0,16,17
 390 238 390 238 362.5 214 c 128,-1,18
 335 190 335 190 288 190 c 0,19,20
 272 190 272 190 262 193 c 2,21,-1
 252 196 l 1,22,23
 252 160 252 160 252 138.5 c 128,-1,24
 252 117 252 117 252 109 c 128,-1,25
 252 101 252 101 252 99 c 0,26,27
 252 91 252 91 263 84.5 c 128,-1,28
 274 78 274 78 294 78 c 1,29,-1
 294 59 l 1,30,-1
 163 59 l 1,31,-1
 163 80 l 1,32,-1
 182 84 l 2,33,34
 201 88 201 88 202.5 96 c 128,-1,35
 204 104 204 104 204 154 c 0,36,37
 204 192 204 192 203.5 255.5 c 128,-1,38
 203 319 203 319 203 322 c 0,39,40
 202 328 202 328 185 333 c 2,41,-1
 169 338 l 1,42,-1
 169 353 l 1,43,44
 198 353 198 353 242.5 352.5 c 128,-1,45
 287 352 287 352 299 352 c 0,46,47
 333 352 333 352 361.5 332.5 c 128,-1,48
 390 313 390 313 390 275 c 0,16,17
342 275 m 1,49,50
 342 304 342 304 333.5 318.5 c 128,-1,51
 325 333 325 333 298 333 c 0,52,53
 291 333 291 333 275.5 333.5 c 128,-1,54
 260 334 260 334 252 334 c 1,55,-1
 252 209 l 2,56,57
 252 207 252 207 285 207 c 0,58,59
 313 207 313 207 327 227 c 128,-1,60
 341 247 341 247 342 275 c 1,49,50
EndSplineSet
EndChar

StartChar: endash
Encoding: 8211 8211 301
Width: 532
GlyphClass: 2
Flags: W
HStem: 193 53<35 498>
LayerCount: 2
Fore
SplineSet
35 246 m 1,0,-1
 498 246 l 1,1,-1
 498 193 l 1,2,-1
 35 193 l 1,3,-1
 35 246 l 1,0,-1
EndSplineSet
EndChar

StartChar: emdash
Encoding: 8212 8212 302
Width: 1044
GlyphClass: 2
Flags: W
HStem: 195 53<34 1010>
LayerCount: 2
Fore
SplineSet
34 248 m 1,0,-1
 1010 248 l 1,1,-1
 1010 195 l 1,2,-1
 34 195 l 1,3,-1
 34 248 l 1,0,-1
EndSplineSet
EndChar

StartChar: quoteleft
Encoding: 8216 8216 303
Width: 254
GlyphClass: 2
Flags: W
HStem: 425 150<97.7795 188.103> 646 16<165.518 176.584>
VStem: 57 153<452.26 553.729>
LayerCount: 2
Fore
SplineSet
140 575 m 0,0,1
 170 575 170 575 190 552 c 128,-1,2
 210 529 210 529 210 500 c 0,3,4
 210 466 210 466 186 445.5 c 128,-1,5
 162 425 162 425 135.5 425 c 128,-1,6
 109 425 109 425 83 448.5 c 128,-1,7
 57 472 57 472 57 510 c 0,8,9
 57 569 57 569 95 612.5 c 128,-1,10
 133 656 133 656 173 662 c 1,11,-1
 181 646 l 1,12,13
 158 637 158 637 128.5 611 c 128,-1,14
 99 585 99 585 97 560 c 1,15,16
 122 575 122 575 140 575 c 0,0,1
EndSplineSet
EndChar

StartChar: quoteright
Encoding: 8217 8217 304
Width: 254
GlyphClass: 2
Flags: W
HStem: 425 15<90.1771 100.238> 511 151<78.897 169.22>
VStem: 57 153<534.72 634.764>
LayerCount: 2
Fore
SplineSet
127 511 m 0,0,1
 97 511 97 511 77 534 c 128,-1,2
 57 557 57 557 57 587 c 0,3,4
 57 621 57 621 81 641.5 c 128,-1,5
 105 662 105 662 132 662 c 128,-1,6
 159 662 159 662 184.5 638 c 128,-1,7
 210 614 210 614 210 577 c 0,8,9
 210 518 210 518 172 474 c 128,-1,10
 134 430 134 430 94 425 c 1,11,-1
 86 440 l 1,12,13
 109 449 109 449 138.5 475.5 c 128,-1,14
 168 502 168 502 170 526 c 1,15,16
 145 511 145 511 127 511 c 0,0,1
EndSplineSet
EndChar

StartChar: quotesinglbase
Encoding: 8218 8218 305
Width: 254
GlyphClass: 2
Flags: W
HStem: -99 15<90.1771 100.238> -13 150<78.897 169.22>
VStem: 57 153<8.27136 110.467>
LayerCount: 2
Fore
SplineSet
127 -13 m 0,0,1
 97 -13 97 -13 77 10 c 128,-1,2
 57 33 57 33 57 62 c 0,3,4
 57 96 57 96 81 116.5 c 128,-1,5
 105 137 105 137 132 137 c 128,-1,6
 159 137 159 137 184.5 113.5 c 128,-1,7
 210 90 210 90 210 52 c 0,8,9
 210 -7 210 -7 172 -50.5 c 128,-1,10
 134 -94 134 -94 94 -99 c 1,11,-1
 86 -84 l 1,12,13
 109 -75 109 -75 138.5 -49 c 128,-1,14
 168 -23 168 -23 170 2 c 1,15,16
 145 -13 145 -13 127 -13 c 0,0,1
EndSplineSet
EndChar

StartChar: quotedblleft
Encoding: 8220 8220 306
Width: 466
GlyphClass: 2
Flags: W
HStem: 425 150<97.7795 188.103 303.78 394.103> 646 16<165.518 176.584 371.518 382.584>
VStem: 57 153<452.26 553.729> 263 153<451.533 553.729>
LayerCount: 2
Fore
SplineSet
346 575 m 0,0,1
 376 575 376 575 396 552 c 128,-1,2
 416 529 416 529 416 500 c 0,3,4
 416 466 416 466 392 445.5 c 128,-1,5
 368 425 368 425 341 425 c 128,-1,6
 314 425 314 425 288.5 448.5 c 128,-1,7
 263 472 263 472 263 510 c 0,8,9
 263 569 263 569 301 612.5 c 128,-1,10
 339 656 339 656 379 662 c 1,11,-1
 387 646 l 1,12,13
 364 637 364 637 334.5 611 c 128,-1,14
 305 585 305 585 303 560 c 1,15,16
 328 575 328 575 346 575 c 0,0,1
140 575 m 0,17,18
 170 575 170 575 190 552 c 128,-1,19
 210 529 210 529 210 500 c 0,20,21
 210 466 210 466 186 445.5 c 128,-1,22
 162 425 162 425 135.5 425 c 128,-1,23
 109 425 109 425 83 448.5 c 128,-1,24
 57 472 57 472 57 510 c 0,25,26
 57 569 57 569 95 612.5 c 128,-1,27
 133 656 133 656 173 662 c 1,28,-1
 181 646 l 1,29,30
 158 637 158 637 128.5 611 c 128,-1,31
 99 585 99 585 97 560 c 1,32,33
 122 575 122 575 140 575 c 0,17,18
EndSplineSet
EndChar

StartChar: quotedblright
Encoding: 8221 8221 307
Width: 466
GlyphClass: 2
Flags: W
HStem: 425 15<90.1771 100.238 296.177 306.238> 511 151<78.897 169.22 284.897 375.22>
VStem: 57 153<534.72 634.764> 263 153<534.72 634.764>
LayerCount: 2
Fore
SplineSet
127 511 m 0,0,1
 97 511 97 511 77 534 c 128,-1,2
 57 557 57 557 57 587 c 0,3,4
 57 621 57 621 81 641.5 c 128,-1,5
 105 662 105 662 132 662 c 128,-1,6
 159 662 159 662 184.5 638 c 128,-1,7
 210 614 210 614 210 577 c 0,8,9
 210 518 210 518 172 474 c 128,-1,10
 134 430 134 430 94 425 c 1,11,-1
 86 440 l 1,12,13
 109 449 109 449 138.5 475.5 c 128,-1,14
 168 502 168 502 170 526 c 1,15,16
 145 511 145 511 127 511 c 0,0,1
333 511 m 0,17,18
 303 511 303 511 283 534 c 128,-1,19
 263 557 263 557 263 587 c 0,20,21
 263 621 263 621 287 641.5 c 128,-1,22
 311 662 311 662 338 662 c 128,-1,23
 365 662 365 662 390.5 638 c 128,-1,24
 416 614 416 614 416 577 c 0,25,26
 416 518 416 518 378 474 c 128,-1,27
 340 430 340 430 300 425 c 1,28,-1
 292 440 l 1,29,30
 315 449 315 449 344.5 475.5 c 128,-1,31
 374 502 374 502 376 526 c 1,32,33
 351 511 351 511 333 511 c 0,17,18
EndSplineSet
EndChar

StartChar: quotedblbase
Encoding: 8222 8222 308
Width: 466
GlyphClass: 2
Flags: W
HStem: -98 15<86.1771 96.2378 292.177 302.238> -12 150<74.897 165.22 280.897 371.22>
VStem: 53 153<9.27136 111.467> 259 153<9.27136 110.74>
LayerCount: 2
Fore
SplineSet
123 -12 m 0,0,1
 93 -12 93 -12 73 11 c 128,-1,2
 53 34 53 34 53 63 c 0,3,4
 53 97 53 97 77 117.5 c 128,-1,5
 101 138 101 138 128 138 c 128,-1,6
 155 138 155 138 180.5 114.5 c 128,-1,7
 206 91 206 91 206 53 c 0,8,9
 206 -6 206 -6 168 -49.5 c 128,-1,10
 130 -93 130 -93 90 -98 c 1,11,-1
 82 -83 l 1,12,13
 105 -74 105 -74 134.5 -48 c 128,-1,14
 164 -22 164 -22 166 3 c 1,15,16
 141 -12 141 -12 123 -12 c 0,0,1
329 -12 m 0,17,18
 299 -12 299 -12 279 11 c 128,-1,19
 259 34 259 34 259 63 c 0,20,21
 259 97 259 97 283 117.5 c 128,-1,22
 307 138 307 138 333.5 138 c 128,-1,23
 360 138 360 138 386 114.5 c 128,-1,24
 412 91 412 91 412 53 c 0,25,26
 412 -6 412 -6 374 -49.5 c 128,-1,27
 336 -93 336 -93 296 -98 c 1,28,-1
 288 -83 l 1,29,30
 311 -74 311 -74 340.5 -48 c 128,-1,31
 370 -22 370 -22 372 3 c 1,32,33
 347 -12 347 -12 329 -12 c 0,17,18
EndSplineSet
EndChar

StartChar: ellipsis
Encoding: 8230 8230 309
Width: 664
GlyphClass: 2
Flags: W
HStem: -12 150<84.2352 186.733 281.235 383.733 475.72 577.733>
VStem: 60 152<11.205 116.206> 257 152<11.205 116.206> 452 151<11.205 116.856>
LayerCount: 2
Fore
SplineSet
525 138 m 0,0,1
 554 138 554 138 578.5 120.5 c 128,-1,2
 603 103 603 103 603 67 c 0,3,4
 603 -12 603 -12 528 -12 c 0,5,6
 494 -12 494 -12 473 10.5 c 128,-1,7
 452 33 452 33 452 63 c 0,8,9
 452 97 452 97 475 117.5 c 128,-1,10
 498 138 498 138 525 138 c 0,0,1
134 138 m 0,11,12
 163 138 163 138 187.5 120.5 c 128,-1,13
 212 103 212 103 212 67 c 0,14,15
 212 -12 212 -12 137 -12 c 0,16,17
 103 -12 103 -12 81.5 10.5 c 128,-1,18
 60 33 60 33 60 63 c 0,19,20
 60 97 60 97 83.5 117.5 c 128,-1,21
 107 138 107 138 134 138 c 0,11,12
331 138 m 0,22,23
 360 138 360 138 384.5 120.5 c 128,-1,24
 409 103 409 103 409 67 c 0,25,26
 409 -12 409 -12 334 -12 c 0,27,28
 300 -12 300 -12 278.5 10.5 c 128,-1,29
 257 33 257 33 257 63 c 0,30,31
 257 97 257 97 280.5 117.5 c 128,-1,32
 304 138 304 138 331 138 c 0,22,23
EndSplineSet
EndChar

StartChar: partialdiff
Encoding: 8706 8706 311
Width: 837
GlyphClass: 2
Flags: W
HStem: 0 18<34 98.6465 230.451 348.415 482.5 538 584 643.345 745.483 805> 378 22<40 124 207 370 453 579> 637 20G<725.5 735> 666 15<271.89 341.241 517.506 584.98>
VStem: 124 83<28.1406 378 400 573.404> 366 93<27.4823 378> 370 81<81.424 378 400 574.469> 654 79<23.7673 629.154>
LayerCount: 2
Fore
SplineSet
551 666 m 0,0,1
 522 666 522 666 498.5 646.5 c 128,-1,2
 475 627 475 627 465 602 c 0,3,4
 451 569 451 569 451 484 c 0,5,6
 451 479 451 479 451 471 c 128,-1,7
 451 463 451 463 451 460 c 0,8,9
 451 451 451 451 452 432.5 c 128,-1,10
 453 414 453 414 453 400 c 1,11,-1
 579 400 l 1,12,-1
 579 378 l 1,13,-1
 453 378 l 1,14,-1
 459 47 l 2,15,16
 459 39 459 39 467.5 33.5 c 128,-1,17
 476 28 476 28 488.5 25.5 c 128,-1,18
 501 23 501 23 514 21 c 128,-1,19
 527 19 527 19 538 18 c 1,20,-1
 538 0 l 1,21,22
 407 4 407 4 259 4 c 0,23,24
 121 4 121 4 34 0 c 1,25,-1
 34 18 l 1,26,27
 68 18 68 18 94 25.5 c 128,-1,28
 120 33 120 33 120 45 c 2,29,-1
 124 378 l 1,30,-1
 40 378 l 1,31,-1
 40 400 l 1,32,-1
 124 400 l 1,33,34
 124 408 124 408 124 417 c 0,35,36
 124 472 124 472 132 518.5 c 128,-1,37
 140 565 140 565 153 587 c 0,38,39
 208 681 208 681 308 681 c 0,40,41
 336 681 336 681 367.5 665 c 128,-1,42
 399 649 399 649 423 621 c 1,43,44
 478 681 478 681 554 681 c 0,45,46
 621 681 621 681 666 641 c 1,47,48
 714 650 714 650 737 657 c 1,49,50
 733 561 733 561 733 441 c 0,51,52
 733 393 733 393 734 261.5 c 128,-1,53
 735 130 735 130 735 37 c 1,54,55
 737 27 737 27 762 22 c 128,-1,56
 787 17 787 17 805 16 c 1,57,-1
 805 0 l 1,58,59
 761 5 761 5 699 5 c 0,60,61
 628 5 628 5 584 0 c 1,62,-1
 584 16 l 1,63,64
 650 19 650 19 651 37 c 1,65,66
 654 132 654 132 654 300 c 0,67,68
 654 479 654 479 651 598 c 1,69,70
 642 626 642 626 610 646 c 128,-1,71
 578 666 578 666 551 666 c 0,0,1
412 607 m 1,72,73
 404 629 404 629 367 647.5 c 128,-1,74
 330 666 330 666 305 666 c 0,75,76
 276 666 276 666 252.5 646.5 c 128,-1,77
 229 627 229 627 219 602 c 0,78,79
 205 569 205 569 205 486 c 0,80,81
 205 481 205 481 205 472.5 c 128,-1,82
 205 464 205 464 205 460 c 0,83,84
 205 451 205 451 206 432.5 c 128,-1,85
 207 414 207 414 207 400 c 1,86,-1
 370 400 l 1,87,88
 370 408 370 408 370 417 c 0,89,90
 370 472 370 472 378 518.5 c 128,-1,91
 386 565 386 565 398 587 c 0,92,93
 402 593 402 593 412 607 c 1,72,73
370 378 m 1,94,-1
 207 378 l 1,95,-1
 213 45 l 2,96,97
 213 33 213 33 235 25 c 128,-1,98
 257 17 257 17 280 17 c 0,99,100
 306 17 306 17 336 23.5 c 128,-1,101
 366 30 366 30 366 44 c 2,102,-1
 370 378 l 1,94,-1
EndSplineSet
EndChar

StartChar: minus
Encoding: 8722 8722 312
Width: 512
GlyphClass: 2
Flags: W
HStem: 206 61<46 475>
LayerCount: 2
Fore
SplineSet
46 267 m 1,0,-1
 475 267 l 1,1,-1
 475 206 l 1,2,-1
 46 206 l 1,3,-1
 46 267 l 1,0,-1
EndSplineSet
EndChar

StartChar: infinity
Encoding: 8734 8734 313
Width: 512
GlyphClass: 2
Flags: W
HStem: 93 13<117.598 178.912 344.592 396.983> 348 13<117.19 172.558 334.485 400.129>
VStem: 5 69<152.74 298.391> 228 54<173.944 279.421> 439 68<152.541 304.014>
LayerCount: 2
Fore
SplineSet
371 348 m 0,0,1
 282 348 282 348 282 248 c 0,2,3
 282 195 282 195 308.5 150.5 c 128,-1,4
 335 106 335 106 369 106 c 0,5,6
 404 106 404 106 421.5 137.5 c 128,-1,7
 439 169 439 169 439 221 c 0,8,9
 439 289 439 289 423 318.5 c 128,-1,10
 407 348 407 348 371 348 c 0,0,1
5 221 m 0,11,12
 5 284 5 284 47 322.5 c 128,-1,13
 89 361 89 361 146 361 c 0,14,15
 177 361 177 361 209.5 337 c 128,-1,16
 242 313 242 313 257 281 c 1,17,18
 273 317 273 317 304.5 339 c 128,-1,19
 336 361 336 361 371 361 c 0,20,21
 424 361 424 361 465.5 325.5 c 128,-1,22
 507 290 507 290 507 221 c 0,23,24
 507 168 507 168 465 130.5 c 128,-1,25
 423 93 423 93 369 93 c 0,26,27
 338 93 338 93 306 117 c 128,-1,28
 274 141 274 141 257 173 c 1,29,30
 246 141 246 141 212 117 c 128,-1,31
 178 93 178 93 144 93 c 0,32,33
 91 93 91 93 48 130 c 128,-1,34
 5 167 5 167 5 221 c 0,11,12
146 348 m 0,35,36
 73 348 73 348 74 221 c 0,37,38
 74 168 74 168 92.5 137 c 128,-1,39
 111 106 111 106 144 106 c 0,40,41
 228 106 228 106 228 198 c 0,42,43
 228 266 228 266 205.5 307 c 128,-1,44
 183 348 183 348 146 348 c 0,35,36
EndSplineSet
EndChar

StartChar: uniFB00
Encoding: 64256 64256 314
Width: 583
GlyphClass: 3
Flags: W
HStem: 4 13<34 77.6328 235.02 337.802 493.474 538> 378 22<40 124 207 370 453 548> 655 16<265.501 351.264 506.07 587.542>
VStem: 124 83<30.5425 378 400 572.577> 370 89<27.0269 378> 370 81<81.424 378 400 574.207> 620 66<609 629.635>
LayerCount: 2
Fore
SplineSet
34 0 m 1,0,-1
 34 18 l 1,1,2
 116 24 116 24 120 47 c 1,3,-1
 124 378 l 1,4,-1
 40 378 l 1,5,-1
 40 400 l 1,6,-1
 124 400 l 1,7,8
 124 408 124 408 124 417 c 0,9,10
 124 472 124 472 132 518.5 c 128,-1,11
 140 565 140 565 153 587 c 0,12,13
 171 618 171 618 210.5 644.5 c 128,-1,14
 250 671 250 671 308 671 c 0,15,16
 382 671 382 671 423 621 c 1,17,18
 469 671 469 671 544 671 c 0,19,20
 590 671 590 671 638 647 c 128,-1,21
 686 623 686 623 686 584 c 0,22,23
 686 558 686 558 671.5 536.5 c 128,-1,24
 657 515 657 515 629 515 c 0,25,26
 609 515 609 515 596 530.5 c 128,-1,27
 583 546 583 546 583 563 c 0,28,29
 583 576 583 576 592 588 c 128,-1,30
 601 600 601 600 610 604 c 2,31,-1
 620 609 l 1,32,33
 619 634 619 634 594.5 644.5 c 128,-1,34
 570 655 570 655 541 655 c 0,35,36
 489 655 489 655 465 602 c 0,37,38
 451 569 451 569 451 479 c 0,39,40
 451 475 451 475 451 468.5 c 128,-1,41
 451 462 451 462 451 460 c 0,42,43
 451 451 451 451 452 432.5 c 128,-1,44
 453 414 453 414 453 400 c 1,45,-1
 548 400 l 1,46,-1
 548 378 l 1,47,-1
 453 378 l 1,48,-1
 459 47 l 2,49,50
 460 22 460 22 538 18 c 1,51,-1
 538 0 l 1,52,53
 407 4 407 4 259 4 c 0,54,55
 121 4 121 4 34 0 c 1,0,-1
207 378 m 1,56,-1
 213 47 l 1,57,58
 217 17 217 17 280 17 c 0,59,60
 361 17 361 17 366 47 c 1,61,-1
 370 378 l 1,62,-1
 207 378 l 1,56,-1
305 655 m 0,63,64
 275 655 275 655 252 640 c 128,-1,65
 229 625 229 625 219 602 c 0,66,67
 205 569 205 569 205 479 c 0,68,69
 205 475 205 475 205 468.5 c 128,-1,70
 205 462 205 462 205 460 c 0,71,72
 205 451 205 451 206 432.5 c 128,-1,73
 207 414 207 414 207 400 c 1,74,-1
 370 400 l 1,75,76
 370 408 370 408 370 417 c 0,77,78
 370 472 370 472 378 518.5 c 128,-1,79
 386 565 386 565 398 587 c 0,80,81
 401 593 401 593 412 607 c 1,82,83
 405 627 405 627 369 641 c 128,-1,84
 333 655 333 655 305 655 c 0,63,64
EndSplineSet
Ligature2: "'liga' Standard Ligatures lookup 0 subtable" f f
EndChar

StartChar: fi
Encoding: 64257 64257 315
Width: 568
GlyphClass: 3
Flags: W
HStem: 0 16<34 83.571 246.943 292 342 389.486 510.399 555> 378 22<40 124 207 405.215> 666 15<279.855 364.887>
VStem: 120 93<28.1069 378> 124 83<92.8987 378 400 561.826> 406 79<24.9282 378>
LayerCount: 2
Fore
SplineSet
492 584 m 0,0,1
 492 505 492 505 434 505 c 0,2,3
 414 505 414 505 396 523.5 c 128,-1,4
 378 542 378 542 378 563 c 0,5,6
 378 576 378 576 387 588 c 128,-1,7
 396 600 396 600 406 604 c 2,8,-1
 415 609 l 1,9,10
 414 634 414 634 384 650 c 128,-1,11
 354 666 354 666 326 666 c 0,12,13
 300 666 300 666 280 659 c 128,-1,14
 260 652 260 652 248 640 c 128,-1,15
 236 628 236 628 227 612 c 128,-1,16
 218 596 218 596 214.5 577 c 128,-1,17
 211 558 211 558 208.5 538 c 128,-1,18
 206 518 206 518 206 498 c 128,-1,19
 206 478 206 478 205 460 c 0,20,21
 205 451 205 451 206 432.5 c 128,-1,22
 207 414 207 414 207 400 c 1,23,-1
 361 400 l 2,24,25
 426 400 426 400 487 422 c 1,26,27
 485 249 485 249 485 41 c 1,28,29
 486 31 486 31 512 23.5 c 128,-1,30
 538 16 538 16 555 16 c 1,31,-1
 555 0 l 1,32,33
 514 3 514 3 446 3 c 0,34,35
 381 3 381 3 342 0 c 1,36,-1
 342 16 l 1,37,38
 403 18 403 18 406 41 c 1,39,-1
 406 373 l 1,40,41
 392 377 392 377 389 378 c 1,42,-1
 207 378 l 1,43,-1
 213 47 l 2,44,45
 213 34 213 34 239.5 26 c 128,-1,46
 266 18 266 18 292 18 c 1,47,-1
 292 0 l 1,48,49
 233 4 233 4 158 4 c 128,-1,50
 83 4 83 4 34 0 c 1,51,-1
 34 18 l 1,52,53
 66 18 66 18 93 26.5 c 128,-1,54
 120 35 120 35 120 45 c 2,55,-1
 124 378 l 1,56,-1
 40 378 l 1,57,-1
 40 400 l 1,58,-1
 124 400 l 1,59,60
 124 408 124 408 124 417 c 0,61,62
 124 681 124 681 329 681 c 0,63,64
 357 681 357 681 393.5 668.5 c 128,-1,65
 430 656 430 656 461 633.5 c 128,-1,66
 492 611 492 611 492 584 c 0,0,1
EndSplineSet
Ligature2: "'liga' Standard Ligatures lookup 0 subtable" f i
EndChar

StartChar: fl
Encoding: 64258 64258 316
Width: 598
GlyphClass: 3
Flags: W
HStem: 0 18<34 92.4947 240.505 292 348 399.006 510.483 569> 378 22<40 124 207 323> 637 20G<493.5 500> 666 15<276.01 349.733>
VStem: 120 93<29.0046 378> 124 83<199.14 378 400 555.502> 416 84<25.009 613.225>
LayerCount: 2
Fore
SplineSet
410 614 m 1,0,1
 363 665 363 665 315 666 c 0,2,3
 278 666 278 666 254 645 c 128,-1,4
 230 624 230 624 220.5 586.5 c 128,-1,5
 211 549 211 549 208.5 522.5 c 128,-1,6
 206 496 206 496 205 460 c 0,7,8
 205 451 205 451 206 432.5 c 128,-1,9
 207 414 207 414 207 400 c 1,10,-1
 323 400 l 1,11,-1
 323 378 l 1,12,-1
 207 378 l 1,13,-1
 213 48 l 2,14,15
 213 36 213 36 240.5 27 c 128,-1,16
 268 18 268 18 292 18 c 1,17,-1
 292 0 l 1,18,19
 233 4 233 4 158 4 c 128,-1,20
 83 4 83 4 34 0 c 1,21,-1
 34 18 l 1,22,23
 66 18 66 18 92.5 27 c 128,-1,24
 119 36 119 36 120 48 c 2,25,-1
 124 378 l 1,26,-1
 40 378 l 1,27,-1
 40 400 l 1,28,-1
 124 400 l 1,29,30
 124 407 124 407 124 414 c 0,31,32
 124 453 124 453 129 488.5 c 128,-1,33
 134 524 134 524 148 560 c 128,-1,34
 162 596 162 596 183.5 622 c 128,-1,35
 205 648 205 648 239.5 664.5 c 128,-1,36
 274 681 274 681 318 681 c 0,37,38
 342 681 342 681 379 667 c 128,-1,39
 416 653 416 653 439 636 c 1,40,41
 451 638 451 638 468 645.5 c 128,-1,42
 485 653 485 653 502 657 c 1,43,44
 498 567 498 567 498 484 c 0,45,46
 498 457 498 457 499 341 c 128,-1,47
 500 225 500 225 500 115 c 0,48,49
 500 77 500 77 500 37 c 1,50,51
 502 27 502 27 527 22 c 128,-1,52
 552 17 552 17 569 16 c 1,53,-1
 569 0 l 1,54,55
 525 5 525 5 464 5 c 0,56,57
 393 5 393 5 348 0 c 1,58,-1
 348 16 l 1,59,60
 370 17 370 17 392.5 24.5 c 128,-1,61
 415 32 415 32 416 43 c 0,62,63
 420 148 420 148 420 312 c 0,64,65
 420 482 420 482 416 588 c 0,66,67
 416 589 416 589 410 614 c 1,0,1
EndSplineSet
Ligature2: "'liga' Standard Ligatures lookup 0 subtable" f l
EndChar

StartChar: uniFB03
Encoding: 64259 64259 317
Width: 823
GlyphClass: 3
Flags: W
HStem: 4 13<34 87.8418 238.3 338.242 492.343 538 578 616.589 749.152 791> 378 22<40 124 207 370 453 640.596> 666 15<267.885 341.241 519.617 600.362>
VStem: 124 83<28.001 378 400 459.716> 366 93<26.8711 378> 370 83<92.0373 378 400 570.042> 641 80<25.3564 378> 650 67<609 629.808>
LayerCount: 2
Fore
SplineSet
717 584 m 0,0,1
 717 558 717 558 702.5 536.5 c 128,-1,2
 688 515 688 515 659 515 c 0,3,4
 639 515 639 515 626 530.5 c 128,-1,5
 613 546 613 546 613 563 c 0,6,7
 613 576 613 576 622.5 588 c 128,-1,8
 632 600 632 600 641 604 c 2,9,-1
 650 609 l 1,10,11
 649 634 649 634 619.5 650 c 128,-1,12
 590 666 590 666 561 666 c 0,13,14
 533 666 533 666 513.5 656 c 128,-1,15
 494 646 494 646 482.5 629.5 c 128,-1,16
 471 613 471 613 464 591.5 c 128,-1,17
 457 570 457 570 455.5 547.5 c 128,-1,18
 454 525 454 525 452 502 c 128,-1,19
 450 479 450 479 451 460 c 0,20,21
 451 451 451 451 452 432.5 c 128,-1,22
 453 414 453 414 453 400 c 1,23,-1
 641 400 l 1,24,25
 678 405 678 405 723 422 c 1,26,27
 721 249 721 249 721 43 c 1,28,29
 724 31 724 31 747 24 c 128,-1,30
 770 17 770 17 791 16 c 1,31,-1
 791 0 l 1,32,33
 750 3 750 3 682 3 c 0,34,35
 617 3 617 3 578 0 c 1,36,-1
 578 16 l 1,37,38
 601 17 601 17 621 25 c 128,-1,39
 641 33 641 33 641 43 c 2,40,-1
 641 373 l 1,41,42
 628 377 628 377 625 378 c 1,43,-1
 453 378 l 1,44,-1
 459 46 l 1,45,46
 461 22 461 22 538 18 c 1,47,-1
 538 0 l 1,48,49
 407 4 407 4 259 4 c 0,50,51
 121 4 121 4 34 0 c 1,52,-1
 34 18 l 1,53,54
 113 19 113 19 120 45 c 1,55,-1
 124 378 l 1,56,-1
 40 378 l 1,57,-1
 40 400 l 1,58,-1
 124 400 l 1,59,60
 124 408 124 408 124 417 c 0,61,62
 124 472 124 472 132 518.5 c 128,-1,63
 140 565 140 565 153 587 c 0,64,65
 172 621 172 621 211.5 651 c 128,-1,66
 251 681 251 681 308 681 c 0,67,68
 336 681 336 681 367.5 665 c 128,-1,69
 399 649 399 649 423 621 c 1,70,71
 443 644 443 644 482.5 662.5 c 128,-1,72
 522 681 522 681 564 681 c 0,73,74
 609 681 609 681 663 652 c 128,-1,75
 717 623 717 623 717 584 c 0,0,1
412 607 m 1,76,77
 404 629 404 629 367 647.5 c 128,-1,78
 330 666 330 666 305 666 c 0,79,80
 283 666 283 666 266.5 658 c 128,-1,81
 250 650 250 650 240 637 c 128,-1,82
 230 624 230 624 222.5 606.5 c 128,-1,83
 215 589 215 589 212 569.5 c 128,-1,84
 209 550 209 550 207 530.5 c 128,-1,85
 205 511 205 511 205.5 493 c 128,-1,86
 206 475 206 475 205 460 c 0,87,88
 205 451 205 451 206 432.5 c 128,-1,89
 207 414 207 414 207 400 c 1,90,-1
 370 400 l 1,91,92
 370 413 370 413 370 426 c 0,93,94
 370 551 370 551 412 607 c 1,76,77
370 378 m 1,95,-1
 207 378 l 1,96,-1
 213 45 l 2,97,98
 214 32 214 32 235 24.5 c 128,-1,99
 256 17 256 17 280 17 c 0,100,101
 359 17 359 17 366 45 c 1,102,-1
 370 378 l 1,95,-1
EndSplineSet
Ligature2: "'liga' Standard Ligatures lookup 0 subtable" f f i
EndChar
